<svg xmlns="http://www.w3.org/2000/svg" viewBox="0 0 500 500"><defs><clipPath id="a"><rect width="150.13" height="89" x="171.93" y="209.54" rx="3.76" style="fill:#92e3a9;stroke:#263238;stroke-linecap:round;stroke-linejoin:round"/></clipPath><clipPath id="b"><path d="M203 205.78v3.76h-22.66v-3.76a1.09 1.09 0 0 1 1.09-1.09h20.47a1.09 1.09 0 0 1 1.1 1.09Z" style="fill:#999;stroke:#263238;stroke-linecap:round;stroke-linejoin:round"/></clipPath><clipPath id="c"><path d="M224.32 207.27v2.27H206.2v-2.27l3.37-1v-1.35a1 1 0 0 1 1-1h9.34a1 1 0 0 1 1 1v1.35Z" style="fill:#999;stroke:#263238;stroke-linecap:round;stroke-linejoin:round"/></clipPath></defs><path d="M288.31 447.29s-46.72 9.46-89.23 0c-26-5.79-80.76-19.52-93.68-50.64s49.3-57.67 18.73-89.24c-13.19-13.62-76.49-31.59-72.93-119.92S147.5 45.3 276.39 47.7 479.64 167.28 429.8 225s-71.31 57.88-48.71 104.87-8.78 103.96-92.78 117.42Z" style="fill:#92e3a9"/><path d="M288.31 447.29s-46.72 9.46-89.23 0c-26-5.79-80.76-19.52-93.68-50.64s49.3-57.67 18.73-89.24c-13.19-13.62-76.49-31.59-72.93-119.92S147.5 45.3 276.39 47.7 479.64 167.28 429.8 225s-71.31 57.88-48.71 104.87-8.78 103.96-92.78 117.42Z" style="fill:#fff;opacity:.7000000000000001"/><path d="M140.81 410.6a2 2 0 0 0 2-1.78l1.33-.13 1.2 12.51-2 .18-.91-9.53-1.43.15Z" style="fill:#263238"/><path d="m152.42 399.01 4.8-3.61M141.14 397.55l5.94 5.48 3.37-2.53M130.16 410.95l-4.27-5.1 10.57.29-1.46-14.26 2.44 2.25M135.19 427.43l.87-4.84-12.17-3.3 9.3-4.74-1.28-1.52M146.21 430.56l-3.77-4-8.12 5.73.4-2.25M148.89 433.4l-1.06-1.13M157.22 425.49l-4.44-1.13 1.82 15.09-2.62-2.78M160.2 417.32l-3.38 1.75 8.85 8.58-5.84-1.49M162.5 414.32l1.65.96-1.88.97M160.4 398.05l-4.07 12.66 4.68 2.74" style="fill:none;stroke:#263238;stroke-linecap:round;stroke-linejoin:round"/><path d="M159.37 369.48c-.74.07-1.16.51-1.06 1.56l.15 1.57-2.18.2-.13-1.42c-.23-2.35.82-3.8 3.08-4s3.56 1 3.79 3.36c.18 1.94-.38 3.58-2.3 6.07-1.22 1.6-1.53 2.32-1.46 3.1a1.67 1.67 0 0 0 .05.31l4.36-.42.2 2.1-6.67.63-.17-1.8c-.15-1.63.32-2.92 1.86-4.89s2-3.23 1.83-4.8c-.13-1.33-.62-1.64-1.35-1.57Z" style="fill:#263238"/><path d="m141.5 370.34-3.63-3.95 12.39-.22-1.26-8.51M144.71 384.13l-8.49-1.9 10.64-6.04-2.67-2.91M165.67 396.9l-7.34-7.12-9.22 7.13 1.53-11.45-3.25-.73M175.85 387.81l-5.53-1.16 2.92 17.59-5.77-5.59M180.9 376.73l-6.12 3.52 5.42 4.82M167.87 357.58l12.16-10.02-6.27 22.94 5.3 2.78M148.34 353.17l-.54-3.62 14.73 12.43 2.34-1.93" style="fill:none;stroke:#263238;stroke-linecap:round;stroke-linejoin:round"/><path d="M207.88 390.08c.12-1.65-.42-2.14-1.33-2.21s-1.53.38-1.63 1.69l-.09 1.18-2.71-.21.07-1c.22-2.93 1.82-4.49 4.64-4.27s4.15 2 3.93 4.92v.47c-.15 2-.87 3.11-2.3 3.58v.06c1.39.73 1.87 2.11 1.72 4l-.18 1.41c-.22 2.93-1.81 4.49-4.63 4.27s-4.16-2-3.93-4.92l.11-1.52 2.72.21-.13 1.7c-.1 1.3.44 1.84 1.35 1.91s1.52-.33 1.65-2l.11-1.43c.13-1.7-.4-2.37-1.71-2.47l-1-.08.2-2.61 1.12.09c1.07.08 1.76-.34 1.87-1.81Z" style="fill:#263238"/><path d="m191.84 375.29 6.46 3.42 2.57-22.05 2.05 3.58M187.03 399.47l1.59-2.6-9.55-9.16 11.7-2.87-9.64-15.2 7.13 3.76M185.59 416.8l-12.38 5.36 12.12-19.9M214.17 418.27l-1.69 12.61-13.35-19.95-8.19 3.55M225.23 404.24l4.93 9.91-14.9-4.02-.34 2.56M223.62 375.18l3.6-1.44-5.77 13.18 16.15 8.83-14.82 3.56.82 1.65M205.96 365.54l7.78 13.56 6.98-2.77M60.69 149.44l-6.4-3.55M104.46 173.68C92 166 79 160 66.49 152.65M89.66 175.22l-23.05-6.97M409.5 143.66l29.43-19.76 2.41-1.62M395.26 153.23l10.1-6.79M428.16 150.06l9.42-4.54M405.26 161.08l17.74-8.54M263.27 431.23q1.86 14.5 3.73 29M261.3 415.89l1.24 9.69M276.62 437.71c.71 2.89 1.43 5.78 2.14 8.67M273.33 424.35c.6 2.46 1.21 4.92 1.81 7.37" style="fill:none;stroke:#263238;stroke-linecap:round;stroke-linejoin:round"/><path d="M312.75 347.45c-6.21.27-8.38 4.92-9.12 7.68-2.32-1.67-6.94-3.91-11.93-.21-5.4 4-4.77 12.51 2.85 17.76 5.48 3.77 12.64 5.14 16.22 5.61.43.06.81.09 1.13.12.22-.22.5-.49.79-.8 2.48-2.62 7.18-8.2 9-14.58 2.66-8.88-2.21-15.86-8.94-15.58Z" style="fill:#92e3a9;stroke:#263238;stroke-linecap:round;stroke-linejoin:round"/><path d="m315.29 383.74.21.45" style="fill:none;stroke:#263238;stroke-linecap:round;stroke-linejoin:round"/><path d="M316.4 386c2.66 5 10.06 16.4 21.08 14.38 14-2.58 11.1-17.82 3.63-12.75s1.26 28.24 26.81 28.6" style="fill:none;stroke:#263238;stroke-linecap:round;stroke-linejoin:round;stroke-dasharray:1.007117748260498,2.014235496520996"/><path d="M368.94 416.22h.5" style="fill:none;stroke:#263238;stroke-linecap:round;stroke-linejoin:round"/><path d="M178.92 160.17s-3-14.6-.06-26.58c0 0-6.73 11.79-12.11 12.42s-18.51-21.24-18.51-21.24 1.61 16.88-2 20.12-28.87-10.73-28.87-10.73 15.94 14.77 14.63 20-16.88 2.84-16.88 2.84 15.93 8.25 15.85 11.25-7.55 6.12-7.55 6.12l15.87 4.74s-4.19-12 9.06-20.62 30.57 1.68 30.57 1.68ZM231.78 62.23l-23.48 39.49 19.16 30 40.84 19.52-1.3 25.19 14.52-23.05 43.13.14 29.32-28.69-26.16-63.78-96.03 1.18z" style="fill:#fff;stroke:#263238;stroke-linecap:round;stroke-linejoin:round"/><path d="m239.1 103.65-.44 3c-.53 3.63-2.76 5.33-6.41 4.62s-5.15-3.1-4.62-6.64l1.71-11.48c.53-3.52 2.67-5.26 6.28-4.74s5.28 2.87 4.76 6.47l-.32 2.2-3.56-.58.35-2.4c.24-1.6-.42-2.32-1.6-2.5s-2 .32-2.23 1.9l-1.78 12c-.24 1.59.41 2.31 1.59 2.53s2-.22 2.24-1.83l.47-3.21ZM244 113.32l-3.85-.75 3.3-22.73 3.86.56-1.41 9.79 4.46.74 1.42-9.88 4.07.59-3.29 23.36-4.07-.79 1.43-10-4.46-.78ZM261.55 102.62l5.77 1-.48 3.42-5.76-1-1 7 7.28 1.37-.48 3.46-11.39-2.22 3.32-23.5 11.39 1.65-.47 3.42-7.26-1.22ZM275.85 105l6.11 1-.48 3.53-6.11-1.06-1 7.17 7.71 1.45-.48 3.57-12.07-2.36 3.32-24.2L285 95.87l-.47 3.52-7.72-1.18ZM294.06 96.9c4.61.66 6.71 3.34 6.18 7.42l-.1.8-4.53-.72.14-1.05c.24-1.8-.54-2.62-2-2.85s-2.43.33-2.66 2.11.51 3.34 3.29 6.12c3.6 3.63 4.6 6 4.22 8.91-.54 4.11-3.29 6-7.94 5.08s-6.61-3.65-6.08-7.65l.21-1.53 4.36.78-.24 1.8A2.3 2.3 0 0 0 291 119c1.5.28 2.53-.19 2.77-2s-.52-3.41-3.3-6.22c-3.49-3.56-4.42-5.82-4-8.66.46-3.95 3.06-5.88 7.59-5.22ZM307.38 110.24l6.92 1.15-.48 3.76-6.91-1.2-1 7.63 8.73 1.65-.48 3.79-13.66-2.66 3.32-25.75 13.65 2-.47 3.75-8.69-1.36ZM321.64 122.08l.53-9.74 1.37-11 5.25.77-1.38 11.15-1.86 9.59Zm4.25 2.72-.5 4.09-5.06-1 .51-4.05Z" style="fill:#263238"/><path d="m213.59 120.67 7.36 11.73M293.63 55.84l5.1-.09M275.19 56.19l9.77-.18M215.26 78.43l13.5-21.36 42.75-.81M355.52 113.88l2 5.43M349.25 96.36l5.37 15M346.91 89.84l1.4 3.91M313.96 159.66h14.09l8.84-9.6M300.53 159.66h5.19" style="fill:none;stroke:#263238;stroke-linecap:round;stroke-linejoin:round"/><path d="M25 407.81s36.87-44.93 46.88-55.73c7.26-7.84 17.69-9.29 20.68-16.49 0 0 20.85-2 32.07-6S152.37 318 164 316.49s16.73-3.7 23.28-3.39 31.48 2.09 31.48 2.09c2.31-4.48 4.67-8.14-.16-12.49s-21.89-9.2-28.56-7.64c0 0-35.18-5-36.42-6.19s-4.71-25.24 1.83-40.56l-36.92-2.7s-53.65 59.44-104.87 78.22c0 0-6.75 55.67 11.34 83.98Z" style="fill:#fff"/><path d="M216.52 301.22c-11 1.08-32.51 3.25-37.48 4.13-6.72 1.19-27.48 2.38-27.48 2.38s-7.33 9.09-13.66 11.47-18.05-11.47-25.25-9.3c0 0-12.46 11.94-24.73 10-6.8-1.08-6.44-21.12-.67-43.91a418.86 418.86 0 0 0 31.26-30.36l36.92 2.7c-6.54 15.32-3.06 39.37-1.83 40.56s36.4 6.17 36.4 6.17c5.94-1.38 20.05 2.27 26.52 6.16ZM92.08 336.56c-3.49 6.38-13.29 8.05-20.21 15.52-7.08 7.63-27.57 32.32-39 46.14 6-17 27.71-33.21 31.3-38.76 4.74-7.35 0-15.34 8.44-15.29S92 336.54 92 336.54Z" style="fill:#92e3a9;opacity:.4"/><path d="M25 407.81s36.87-44.93 46.88-55.73c7.26-7.84 17.69-9.29 20.68-16.49 0 0 20.85-2 32.07-6S152.37 318 164 316.49s16.73-3.7 23.28-3.39 31.48 2.09 31.48 2.09c2.31-4.48 4.67-8.14-.16-12.49s-21.89-9.2-28.56-7.64c0 0-35.18-5-36.42-6.19s-4.71-25.24 1.83-40.56l-36.92-2.7s-53.65 59.44-104.87 78.22" style="fill:none;stroke:#263238;stroke-linecap:round;stroke-linejoin:round"/><path d="M130.54 222.82s34-28.07 35.87-28.67 10-2.83 17.94-4.68 14.24-3.16 20.3 0 19.52 6.33 19.52 6.33 1.71 6.27-4.42 8.44-24.13.4-24.13.4-12.46 5.93-20 7.32c0 0-16.22 17.2-16.22 24.32" style="fill:#fff"/><path d="M224.32 198.79a6.39 6.39 0 0 1-4.57 5.45c-6.13 2.18-24.13.4-24.13.4s-12.46 5.93-20 7.32c0 0-11.35 12-15.06 20.14L144 228.41s17.8-19.76 18.19-20a34 34 0 0 1 9.33-2.18c4.77-.39 13.8-5.28 13.8-5.28s7.34-2.83 11.89-2.23 15 2.57 21.36 2.17a8.84 8.84 0 0 0 5.75-2.1Z" style="fill:#92e3a9;opacity:.4"/><path d="M130.54 222.82s34-28.07 35.87-28.67 10-2.83 17.94-4.68 14.24-3.16 20.3 0 19.52 6.33 19.52 6.33 1.71 6.27-4.42 8.44-24.13.4-24.13.4-12.46 5.93-20 7.32c0 0-16.22 17.2-16.22 24.32" style="fill:none;stroke:#263238;stroke-linecap:round;stroke-linejoin:round"/><path d="M195.62 204.64a5.44 5.44 0 0 1-4.15-2.38M175.64 212s-5.67.46-8.31-2.58" style="fill:none;stroke:#263238;stroke-linecap:round;stroke-linejoin:round"/><path d="M470.53 421.08S435.22 372.2 426 360.76c-6.72-8.31-17-10.45-19.53-17.84 0 0-20.68-3.37-31.6-8.16s-26.92-13.4-38.4-15.66-16.44-4.81-23-4.94-31.55 0-31.55 0c-2-4.61-4.13-8.43 1-12.45s22.46-7.72 29-5.72c0 0 35.43-2.64 36.75-3.74s6.39-24.87.88-40.59l37-.22s51 65 100.86 87.12c-.01-.02 3.05 55.44-16.88 82.52Z" style="fill:#fff"/><path d="M407 326.71c-12.26 2-23.41-14.81-23.41-14.81-7.19-2.17-18.92 11.67-25.25 9.3s-13.65-11.47-13.65-11.47-20.76-1.19-27.49-2.38c-4.76-.84-24.81-2.88-36.1-4a11.11 11.11 0 0 1 1.73-1.67c5.11-4 22.46-7.72 29-5.72 0 0 35.43-2.64 36.75-3.74s6.39-24.87.88-40.59l37-.22s8.61 11 22.2 25.4c6.18 23.11 5.34 48.8-1.66 49.9ZM464.51 412.76c-10.51-14.47-31.69-43.52-38.55-52-6.72-8.31-17-10.45-19.53-17.84 0 0-7.07-1.15-15.13-3.06 5.54.12 10.32-.2 12.94-1.32 0 0 11 7.67 19.42 7.63s3.69 7.94 8.44 15.29c4.47 6.91 37.01 30.38 32.41 51.3Z" style="fill:#92e3a9;opacity:.4"/><path d="M470.53 421.08S435.22 372.2 426 360.76c-6.72-8.31-17-10.45-19.53-17.84 0 0-20.68-3.37-31.6-8.16s-26.92-13.4-38.4-15.66-16.44-4.81-23-4.94-31.55 0-31.55 0c-2-4.61-4.13-8.43 1-12.45s22.46-7.72 29-5.72c0 0 35.43-2.64 36.75-3.74s6.39-24.87.88-40.59l37-.22s51 65 100.86 87.12" style="fill:none;stroke:#263238;stroke-linecap:round;stroke-linejoin:round"/><path d="M375.72 227.82s-34-28.07-35.87-28.67-10-2.83-17.93-4.68-14.24-3.16-20.31 0-19.52 6.33-19.52 6.33-1.71 6.27 4.42 8.44 24.13.4 24.13.4 12.47 5.93 20 7.32c0 0 16.22 17.2 16.22 24.32" style="fill:#fff"/><path d="m373.75 228.74-26.91 12.54c0-7.12-16.22-24.32-16.22-24.32-7.51-1.39-20-7.32-20-7.32s-18 1.78-24.13-.4a6.48 6.48 0 0 1-4.17-3.82c1.89 1.25 5.3 2.5 11.07 1.84 10.38-1.18 18.25-5.45 20.55-5s2.89 4 2.89 4 17.4 6.94 21.16 5.65 18.2 6.63 18.2 6.63a163.82 163.82 0 0 0 17.56 10.2Z" style="fill:#92e3a9;opacity:.4"/><path d="M375.72 227.82s-34-28.07-35.87-28.67-10-2.83-17.93-4.68-14.24-3.16-20.31 0-19.52 6.33-19.52 6.33-1.71 6.27 4.42 8.44 24.13.4 24.13.4 12.47 5.93 20 7.32c0 0 16.22 17.2 16.22 24.32" style="fill:none;stroke:#263238;stroke-linecap:round;stroke-linejoin:round"/><path d="M310.64 209.64a5.47 5.47 0 0 0 4.16-2.38M330.62 217s5.67.46 8.31-2.58" style="fill:none;stroke:#263238;stroke-linecap:round;stroke-linejoin:round"/><rect width="150.13" height="89" x="171.93" y="209.54" rx="3.76" style="fill:#92e3a9"/><g style="clip-path:url(#a)"><path d="M318.31 209.54H175.69a3.76 3.76 0 0 0-3.76 3.76v81.48a3.76 3.76 0 0 0 3.76 3.76h142.62a3.76 3.76 0 0 0 3.76-3.76V213.3a3.76 3.76 0 0 0-3.76-3.76Zm-.71 83.15a3.08 3.08 0 0 1-3.08 3.08h-135a3.08 3.08 0 0 1-3.08-3.08v-77.62a3.08 3.08 0 0 1 3.08-3.09h135a3.08 3.08 0 0 1 3.08 3.09Z" style="fill-opacity:.7000000000000001;opacity:.30000000000000004"/><path d="M171.93 229.42h150.13v64.01H171.93z" style="fill:#263238"/><path d="M176.4 229.42h141.21v64.01H176.4z" style="fill:#fff;opacity:.2"/><path d="m185.29 295.77 2.24 2.77h-11.84a3.76 3.76 0 0 1-3.76-3.76V217.9s10.26 1.3 12.21 2.35 17 24.06 18.85 33.63-17.7 41.89-17.7 41.89ZM320.19 230.7l-4.64 3.86S307.4 244 303.23 253l-.05-.54-.53-.2a2.51 2.51 0 0 0 0-.27l.46-.33-.19-1.21-.53-.18c0-.09 0-.18-.05-.27l.44-.35-.25-1.21-.54-.14c0-.09-.05-.18-.07-.28l.42-.37-.31-1.18-.54-.12a2.29 2.29 0 0 1-.08-.28l.39-.38-.37-1.17-.54-.09a2.31 2.31 0 0 1-.1-.28l.38-.4-.43-1.15-.55-.06-.11-.27.36-.43-.49-1.12h-.55l-.12-.26.33-.44-.54-1.1h-.56l-.13-.25.31-.46-.6-1.07h-.56l-.14-.25.29-.47-.65-1-.56.05-.15-.24.26-.49-.7-1-.56.08-.16-.23.23-.5-.75-1-.55.11c-.06-.07-.11-.15-.17-.23l.21-.51-.8-.93-.55.14-.19-.21.19-.53-.85-.89-.53.16-.2-.19.16-.54-.89-.84-.52.18-.22-.18.13-.55-.93-.8-.51.22-.23-.18.11-.55-1-.75-.5.24-.23-.16.07-.56-1-.7-.49.27-.24-.16.05-.56-1.05-.64-.47.29-.25-.15v-.55l-1.07-.6-.46.31-.25-.13v-.55l-1.1-.54-.44.33-.27-.12v-.55l-1.13-.49-.42.36-.27-.1-.06-.56-1.16-.42-.4.38-.27-.1-.09-.54-1.18-.37-.38.4-.28-.08-.12-.54-1.18-.31-.37.42-.28-.07-.15-.54-1.2-.24-.35.44-.31-.13-.18-.53-1.21-.19-.33.46H268l-.2-.52-1.22-.13-.3.48H266l-.23-.52-1.22-.06-.29.49h-.39l-.26-.5h-1.21l-.26.51h-.27l-.29-.5-1.22.07-.23.52h-.28l-.3-.48-1.22.13-.2.53h-.28l-.33-.45-1.21.19-.17.53h-.28l-.35-.44-1.2.25-.15.54-.27.06-.37-.41-1.19.31-.12.54-.27.08-.39-.4-1.17.37-.09.55-.27.09-.41-.37-1.15.43-.06.55-.27.1-.42-.35-1.13.49v.55l-.26.12-.45-.33-1.1.54v.56l-.26.13-.46-.31-1.07.6v.55l-.25.15-.48-.29-1 .65v.56l-.24.15-.48-.26-1 .7.08.56a1.88 1.88 0 0 0-.23.16l-.5-.24-1 .76.1.55-.22.17-.51-.21-.93.8.13.54-.21.19-.52-.18-.89.84.16.54c-.07.06-.13.13-.2.2l-.54-.16-.84.89.19.52c-.07.07-.13.15-.19.22l-.54-.14-.8.94.21.51-.17.22-.55-.1-.76 1 .24.5-.16.23-.56-.08-.7 1 .27.49-.15.24-.56-.05-.65 1 .29.48-.14.24h-.56l-.6 1.08.32.46c-.05.08-.09.17-.13.25h-.56l-.54 1.1.33.44c0 .09-.07.18-.11.26h-.56l-.48 1.13.35.42-.1.27-.55.06-.43 1.15.38.41-.09.27-.55.09-.37 1.17.4.39c0 .09-.05.18-.08.27l-.54.12-.31 1.19.42.37-.06.28-.54.14-.25 1.21.44.34c0 .1 0 .19-.05.28l-.53.17-.19 1.22.46.33v.27l-.53.2-.12 1.23.47.3v.28l-.51.22-.07 1.23.5.28v.28l-.51.25v1.23l.51.26v.39l-.49.28.06 1.23.52.23a2.45 2.45 0 0 1 0 .27l-.47.31.13 1.22.52.2v.28l-.46.32.19 1.22.53.17a2.74 2.74 0 0 1 .05.28l-.44.35.26 1.2.53.14a2.86 2.86 0 0 1 .07.28l-.42.37.31 1.19.55.11c0 .09.05.19.07.28l-.39.39.37 1.17.55.09.09.27-.38.4.43 1.16.55.06.11.26-.36.43.49 1.13h.56l.11.26-.33.44.54 1.1h.56l.13.25-.31.46.6 1.08h.56l.14.25-.29.47.65 1 .56-.05.15.24-.26.49.71 1 .55-.08a1.88 1.88 0 0 1 .16.23l-.23.5.75 1 .55-.11.18.23-.22.51.81.93.54-.14a2 2 0 0 0 .19.22l-.19.52.85.89.53-.16.2.2-.16.53.89.85.53-.19.21.19-.13.54.93.8.51-.21.23.17-.11.55 1 .75.5-.24.24.17-.08.55 1 .7.48-.26.24.15-.05.56 1.05.65.47-.29.25.14v.56l1.07.59.46-.31.25.13v.56l1.1.54.45-.34.26.12v.56l1.13.48.42-.36.27.11.06.55 1.16.43.4-.38.27.09.09.55 1.18.36.38-.39.28.07.12.55 1.19.3.36-.41.28.06.15.54 1.2.24.35-.43h.27l.18.54 1.21.18.33-.46h.28l.2.53 1.22.12.3-.48h.28l.23.52 1.23.06.28-.49h.39l.26.51h1.22l.26-.51h.27l.29.49 1.22-.07.23-.52h.28l.3.48 1.22-.13.2-.53h.28l.33.46 1.3-.01.17-.54.28-.05.35.44 1.2-.25.15-.54.27-.06.37.42 1.19-.31.12-.55.27-.08.39.4 1.17-.37.07-.51.27-.09.41.38 1.15-.43.06-.56.27-.1.42.35 1.13-.48v-.56l.26-.12.45.34 1.1-.55v-.55l.26-.13.46.31 1.07-.6v-.56l.24-.14.48.28 1-.65-.05-.55.24-.16.49.27 1-.71-.08-.55.23-.17.51.24 1-.75-.11-.55.22-.18.51.21.93-.8-.13-.54.21-.19.53.19.8-.78 3 1.48 3.38-3.91-2-2.93h.19l.7-1-.27-.49.15-.24.56.05.65-1-.29-.47.14-.25h.56l.6-1.07-.32-.46c.05-.09.09-.17.13-.26h.56l.54-1.11-.33-.44c0-.09.08-.17.11-.26h.56l.48-1.13-.35-.43c0-.09.07-.18.1-.26l.55-.07.43-1.15-.38-.4.09-.28.55-.09.16-.51c2.14 11.66 8 26.58 8 26.58l-.39 2.08.48.49h8.63a3.76 3.76 0 0 0 3.76-3.76v-63.89Zm-18.78 37.65Z" style="fill-opacity:.7000000000000001;opacity:.30000000000000004"/></g><rect width="150.13" height="89" x="171.93" y="209.54" rx="3.76" style="fill:none;stroke:#263238;stroke-linecap:round;stroke-linejoin:round"/><path d="M203 205.78v3.76h-22.66v-3.76a1.09 1.09 0 0 1 1.09-1.09h20.47a1.09 1.09 0 0 1 1.1 1.09Z" style="fill:#999"/><g style="clip-path:url(#b)"><path d="M203 205.78v.49h-22.66v-.49a1.09 1.09 0 0 1 1.09-1.09h20.47a1.09 1.09 0 0 1 1.1 1.09Z" style="fill:#fff;opacity:.4"/></g><path d="M203 205.78v3.76h-22.66v-3.76a1.09 1.09 0 0 1 1.09-1.09h20.47a1.09 1.09 0 0 1 1.1 1.09Z" style="fill:none;stroke:#263238;stroke-linecap:round;stroke-linejoin:round"/><path d="M224.32 207.27v2.27H206.2v-2.27l3.37-1v-1.35a1 1 0 0 1 1-1h9.34a1 1 0 0 1 1 1v1.35Z" style="fill:#999"/><g style="clip-path:url(#c)"><path d="M224.32 207.81v-.54l-3.37-1h-11.38l-3.37 1v.54h18.12zM221 204.92v.17h-11.43v-.17a1 1 0 0 1 1-1h9.34a1 1 0 0 1 1.09 1Z" style="fill:#fff;opacity:.4"/></g><path d="M224.32 207.27v2.27H206.2v-2.27l3.37-1v-1.35a1 1 0 0 1 1-1h9.34a1 1 0 0 1 1 1v1.35ZM209.57 206.27h11.38" style="fill:none;stroke:#263238;stroke-linecap:round;stroke-linejoin:round"/><path d="M298.91 254.4v1.83l.65-.33v-1.16l-.65-.34zM223.46 254.4l-.66.34v1.16l.66.33v-1.83zM298.81 258.14l.67-.3.06-1.16-.64-.37-.09 1.83zM223.55 252.5l-.67.29-.06 1.17.64.37.09-1.83zM298.62 260.04l.69-.26.12-1.17-.62-.39-.19 1.82zM223.75 250.6l-.69.26-.12 1.17.62.39.19-1.82zM298.33 261.93l.7-.23.18-1.16-.6-.42-.28 1.81zM224.03 248.71l-.7.23-.17 1.16.59.42.28-1.81zM297.95 263.8l.71-.2.24-1.14-.58-.46-.37 1.8zM224.41 246.84l-.71.19-.23 1.15.57.46.37-1.8zM297.48 265.64l.72-.15.29-1.13-.55-.49-.46 1.77zM224.89 245l-.72.15-.29 1.13.55.49.46-1.77zM296.91 267.46l.72-.11.35-1.12-.52-.51-.55 1.74zM225.46 243.17l-.73.12-.35 1.12.53.51.55-1.75zM296.25 269.25l.73-.08.4-1.09-.5-.54-.63 1.71zM226.12 241.38l-.73.09-.41 1.09.5.54.64-1.72zM295.5 271.01l.73-.05.46-1.07-.47-.56-.72 1.68zM226.87 239.63l-.74.04-.46 1.08.48.56.72-1.68zM294.66 272.73l.74-.01.51-1.05-.44-.59-.81 1.65zM227.7 237.91l-.73.01-.52 1.05.45.59.8-1.65zM293.74 274.39l.74.03.56-1.02-.41-.61-.89 1.6zM228.63 236.24l-.74-.03-.57 1.03.42.6.89-1.6zM292.73 276.02l.74.06.61-.99-.38-.63-.97 1.56zM229.63 234.62l-.73-.06-.62.99.38.63.97-1.56zM291.65 277.58l.73.11.66-.96-.35-.65-1.04 1.5zM230.72 233.05l-.73-.1-.67.96.35.65 1.05-1.51zM290.48 279.1l.72.14.72-.93-.32-.66-1.12 1.45zM231.88 231.54l-.72-.14-.71.93.31.66 1.12-1.45zM289.24 280.55l.72.17.76-.89-.29-.67-1.19 1.39zM233.12 230.09l-.71-.18-.76.89.28.68 1.19-1.39zM287.93 281.93l.71.22.8-.85-.25-.69-1.26 1.32zM234.43 228.7l-.7-.21-.8.85.24.69 1.26-1.33zM286.55 283.25l.7.25.84-.81-.21-.7-1.33 1.26zM235.81 227.39l-.69-.25-.84.81.21.7 1.32-1.26zM285.11 284.5l.68.28.88-.76-.17-.72-1.39 1.2zM237.26 226.14l-.68-.28-.89.76.18.71 1.39-1.19zM283.6 285.67l.67.32.92-.72-.14-.72-1.45 1.12zM238.76 224.97l-.66-.32-.92.72.14.72 1.44-1.12zM282.04 286.76l.65.35.95-.67-.1-.72-1.5 1.04zM240.33 223.87l-.65-.35-.96.67.11.73 1.5-1.05zM280.42 287.78l.63.38.99-.62-.06-.73-1.56.97zM241.94 222.86l-.63-.38-.99.62.07.73 1.55-.97zM278.76 288.71l.61.41 1.02-.57-.03-.73-1.6.89zM243.61 221.93l-.61-.42-1.02.57.03.74 1.6-.89zM277.63 290l1.05-.52.01-.73-1.64.81.58.44zM244.73 220.64l-1.05.52v.73l1.64-.81-.59-.44zM275.86 290.79l1.07-.47.05-.73-1.68.72.56.48zM246.51 219.85l-1.08.46-.04.74 1.68-.73-.56-.47zM274.05 291.48l1.09-.41.08-.73-1.71.64.54.5zM248.32 219.16l-1.1.4-.08.73 1.72-.63-.54-.5zM272.2 292.09l1.12-.35.12-.73-1.75.55.51.53zM250.16 218.55l-1.11.35-.12.73 1.75-.55-.52-.53zM270.33 292.6l1.13-.3.16-.72-1.78.47.49.55zM252.03 218.04l-1.12.3-.16.72 1.77-.47-.49-.55zM268.43 293.01l1.15-.24.19-.71-1.79.38.45.57zM253.93 217.63l-1.14.23-.19.71 1.79-.37-.46-.57zM266.52 293.33l1.16-.18.22-.7-1.81.28.43.6zM255.85 217.31l-1.16.18-.22.7 1.8-.28-.42-.6zM264.59 293.55l1.16-.12.26-.69-1.82.19.4.62zM257.77 217.09l-1.16.12-.26.69 1.82-.19-.4-.62zM262.65 293.68l1.17-.07.3-.67-1.83.1.36.64zM259.71 216.96l-1.16.07-.3.67 1.83-.1-.37-.64zM260.71 293.7h1.17l.33-.66-1.83.01.33.65zM261.65 216.94h-1.17l-.33.66 1.84-.01-.34-.65zM263.71 217.02l-1.17-.06-.36.64 1.82.09-.29-.67zM258.66 293.62l1.17.06.36-.64-1.83-.09.3.67zM265.64 217.19l-1.16-.11-.4.62 1.82.18-.26-.69zM256.73 293.44l1.16.12.39-.62-1.82-.18.27.68zM267.56 217.47l-1.15-.18-.43.6 1.81.28-.23-.7zM254.8 293.17l1.16.18.43-.6-1.81-.28.22.7zM269.47 217.84l-1.15-.24-.45.58 1.79.37-.19-.71zM252.9 292.8l1.14.23.46-.57-1.79-.37.19.71zM271.35 218.31l-1.13-.3-.48.56 1.77.46-.16-.72zM251.01 292.33l1.14.3.48-.56-1.77-.46.15.72zM273.21 218.87l-1.12-.35-.51.53 1.75.54-.12-.72zM249.16 291.77l1.11.35.51-.53-1.74-.54.12.72zM275.04 219.52l-1.1-.4-.54.5 1.72.63-.08-.73zM247.33 291.12l1.1.4.53-.5-1.71-.63.08.73zM276.83 220.27l-1.08-.46-.56.47 1.68.72-.04-.73zM245.54 290.37l1.07.46.57-.47-1.69-.72.05.73zM278.58 221.1l-1.05-.51-.59.44 1.65.81-.01-.74zM243.79 289.53l1.05.52.58-.45-1.64-.8.01.73zM280.29 222.03l-1.03-.57-.6.42 1.6.88.03-.73zM242.08 288.61l1.02.57.61-.42-1.6-.88-.03.73zM281.95 223.03l-1-.61-.62.38 1.55.97.07-.74zM240.42 287.6l.99.62.63-.38-1.55-.97-.07.73zM283.45 224.85l.1-.72-.96-.67-.65.35 1.51 1.04zM238.92 285.78l-.11.73.96.67.65-.35-1.5-1.05zM284.96 226.02l.14-.72-.92-.72-.67.32 1.45 1.12zM237.41 284.62l-.14.72.92.72.66-.32-1.44-1.12zM286.41 227.26l.18-.72-.89-.76-.68.29 1.39 1.19zM235.96 283.38l-.18.71.89.76.67-.28-1.38-1.19zM287.8 228.57l.21-.7-.85-.81-.69.25 1.33 1.26zM234.57 282.07l-.21.7.85.81.69-.25-1.33-1.26zM289.12 229.95l.24-.69-.8-.85-.71.22 1.27 1.32zM233.25 280.69l-.25.69.81.85.7-.22-1.26-1.32zM290.36 231.39l.28-.67-.76-.89-.71.18 1.19 1.38zM232 279.24l-.28.68.76.89.72-.18-1.2-1.39zM291.54 232.9l.31-.66-.72-.93-.72.14 1.13 1.45zM230.83 277.74l-.32.66.72.93.72-.15-1.12-1.44zM292.63 234.46l.35-.65-.67-.95-.73.1 1.05 1.5zM229.74 276.18l-.35.64.67.96.72-.1-1.04-1.5zM293.64 236.08l.38-.63-.62-.99-.73.07.97 1.55zM228.72 274.56l-.38.63.62.99.73-.07-.97-1.55zM294.57 237.75l.42-.61-.57-1.02-.74.03.89 1.6zM227.79 272.89l-.41.61.57 1.02.73-.03-.89-1.6zM295.42 239.46l.44-.59-.51-1.05-.74-.01.81 1.65zM226.94 271.18l-.44.59.52 1.05h.73l-.81-1.64zM296.18 241.21l.47-.57-.46-1.07-.74-.04.73 1.68zM226.19 269.43l-.47.57.46 1.07.73.04-.72-1.68zM296.85 242.99l.5-.54-.41-1.09-.73-.08.64 1.71zM225.52 267.64l-.5.54.41 1.1.73.08-.64-1.72zM297.43 244.81l.52-.51-.35-1.12-.73-.11.56 1.74zM224.94 265.83l-.53.51.36 1.11.72.12-.55-1.74zM297.91 246.66l.55-.49-.29-1.13-.72-.15.46 1.77zM224.46 263.98l-.55.49.29 1.13.72.15-.46-1.77zM298.3 248.53l.58-.46-.24-1.15-.71-.19.37 1.8zM224.06 262.11l-.57.46.24 1.14.71.19-.38-1.79zM298.6 250.41l.59-.43-.18-1.15-.7-.23.29 1.81zM223.77 260.23l-.6.43.18 1.15.7.23-.28-1.81zM298.8 252.31l.62-.4-.13-1.16-.68-.26.19 1.82zM223.57 258.33l-.62.4.12 1.16.69.26-.19-1.82zM298.9 254.21l.64-.36-.06-1.17-.68-.29.1 1.82zM223.47 256.43l-.64.36.06 1.17.67.29-.09-1.82z" style="fill:#263238"/><circle cx="261.18" cy="255.32" r="37.54" style="fill:#999;stroke:#263238;stroke-linecap:round;stroke-linejoin:round" transform="rotate(-76.16 261.17 255.317)"/><circle cx="261.18" cy="255.32" r="35.84" style="fill:#bfbfbf;stroke:#263238;stroke-linecap:round;stroke-linejoin:round" transform="rotate(-76.15 261.168 255.312)"/><circle cx="261.18" cy="255.32" r="30.31" style="fill-opacity:.7000000000000001;opacity:.30000000000000004" transform="rotate(-80.48 261.194 255.321)"/><circle cx="261.18" cy="255.32" r="28.43" style="fill:#bfbfbf;stroke:#263238;stroke-linecap:round;stroke-linejoin:round" transform="rotate(-75.63 261.186 255.322)"/><circle cx="261.18" cy="255.32" r="21.96" style="fill:#757575;stroke:#263238;stroke-linecap:round;stroke-linejoin:round" transform="rotate(-76.06 261.18 255.32)"/><path d="m294.11 280.44-3.21 3.73-3.15-1.53 4.38-5.08 1.98 2.88z" style="fill:#bfbfbf;stroke:#263238;stroke-linecap:round;stroke-linejoin:round"/><g style="opacity:.30000000000000004"><path d="m248.23 231.57.27.46.41 2.9 1-.57.27.46-1.49.88-.27-.45-.41-2.9-.92.54-.27-.46ZM249.1 232.13a.9.9 0 1 1 1.63-.78l.85 1.77a.9.9 0 1 1-1.63.78Zm1.41 1.55c.11.24.26.28.43.2s.24-.23.12-.47l-.88-1.84c-.12-.24-.27-.28-.44-.2s-.23.23-.12.47ZM251.21 231.15a.9.9 0 1 1 1.68-.63l.69 1.84a.9.9 0 1 1-1.69.63Zm1.25 1.67c.1.25.25.3.42.24s.25-.21.16-.46l-.72-1.91c-.09-.25-.24-.3-.41-.24s-.25.21-.16.46ZM255.07 231.74l-.29-2.7.8-.2 1 3.65-.54.14-.68-2.62.29 2.72-.54.14-1.11-2.47.67 2.59-.5.13-.95-3.66.8-.21ZM257.21 228.56l.59-.07.39 3.22 1-.12.06.54-1.56.18ZM259.9 229.91h.81v.53h-.82l.05 1.1h1v.54l-1.61.06-.16-3.76 1.62-.07v.54h-1ZM262 229.34l-.13 2.73h-.53l.17-3.76h.74l.5 2.28.1-2.25h.53l-.18 3.77h-.6ZM264.84 228.5a.82.82 0 0 1 .74 1.05v.12l-.56-.07v-.16c0-.27-.06-.38-.25-.41s-.31.06-.34.33.05.49.39.88a1.47 1.47 0 0 1 .49 1.26.89.89 0 1 1-1.75-.24v-.23l.55.08v.26c0 .27.06.38.25.41s.32-.06.36-.32-.06-.5-.4-.88a1.46 1.46 0 0 1-.48-1.26c.09-.6.43-.9 1-.82ZM267.82 233.07a.84.84 0 0 1-.62-1.17l.08-.28a.84.84 0 0 1 .58-.65.77.77 0 0 1-.14-.82v-.12a.93.93 0 1 1 1.78.53v.11a.77.77 0 0 1-.56.62.83.83 0 0 1 .13.86l-.08.28a.85.85 0 0 1-1.17.64Zm.15-.51c.18.05.34 0 .44-.31l.1-.34c.09-.28 0-.44-.2-.5s-.35 0-.44.31l-.1.34c-.09.32.02.44.23.5Zm.29-2.15c-.09.29 0 .43.21.48s.35 0 .43-.29l.06-.2c.1-.32 0-.45-.2-.51s-.34 0-.44.32ZM269.72 233.07l-.2.54-.53-.2.2-.54ZM270.63 234.11a.85.85 0 0 1-.46-1.24l.12-.27a.84.84 0 0 1 .65-.57.76.76 0 0 1 0-.84l.05-.11a.93.93 0 1 1 1.69.76l-.05.11a.78.78 0 0 1-.64.54.82.82 0 0 1 0 .86l-.12.27a.85.85 0 0 1-1.24.49Zm.22-.49c.17.08.34 0 .48-.25l.14-.32c.12-.28.06-.45-.13-.53s-.36 0-.48.25l-.14.33c-.14.3-.04.44.13.52Zm.56-2.09c-.12.27 0 .42.15.5s.34 0 .47-.23l.08-.19c.14-.32 0-.46-.13-.53s-.34-.06-.48.25ZM273.49 233.07l.93.55-.27.46-.93-.54ZM276.9 234.47c.2-.27.16-.41 0-.53s-.31-.1-.47.12l-.14.2-.45-.34.12-.16a.82.82 0 0 1 1.27-.24.83.83 0 0 1 .15 1.29l-.06.08a.74.74 0 0 1-.79.37.76.76 0 0 1-.14.88l-.17.24a.83.83 0 0 1-1.28.23.82.82 0 0 1-.15-1.28l.19-.25.45.33-.21.28c-.16.22-.12.37 0 .48s.3.11.5-.16l.18-.24c.2-.28.18-.45 0-.61l-.16-.12.32-.44.18.14c.18.13.35.13.53-.11ZM277.78 235.16a.84.84 0 0 1 1.33-.14.83.83 0 0 1 0 1.3l-.06.07-.42-.37.09-.1c.18-.2.16-.36 0-.48s-.32-.14-.56.13l-.45.51a.53.53 0 0 1 .62.11c.32.29.29.67-.08 1.08l-.46.52a.9.9 0 1 1-1.35-1.2Zm-.41 1.36-.45.51c-.18.2-.15.35 0 .48s.29.13.47-.07l.45-.51c.18-.21.16-.36 0-.49s-.29-.12-.47.08ZM278.28 238.72l-.41.4-.4-.41.41-.4ZM278.66 240a.85.85 0 0 1 .11-1.32l.22-.19a.81.81 0 0 1 .83-.24.78.78 0 0 1 .33-.77l.08-.08a.86.86 0 0 1 1.33.08.85.85 0 0 1-.11 1.32l-.09.08a.8.8 0 0 1-.81.22.82.82 0 0 1-.35.79l-.22.2a.86.86 0 0 1-1.32-.09Zm.41-.35c.12.14.28.19.54 0l.26-.23c.22-.19.24-.37.1-.53s-.31-.17-.54 0l-.26.23c-.25.26-.23.43-.1.57Zm1.39-1.66c-.23.2-.21.37-.08.52s.29.18.52 0l.16-.13c.25-.23.23-.4.1-.54s-.29-.19-.54 0ZM281.08 241.28l2.4-1.26.49.67-3.05 2.22-.33-.45 2.18-1.6-2.42 1.26-.33-.45 1.9-1.92-2.15 1.58-.31-.42 3.05-2.22.49.66ZM282.64 243.81l2.55-.92.4.72-3.33 1.79-.27-.49 2.39-1.28-2.57.93-.27-.5 2.15-1.64-2.36 1.26-.24-.45 3.33-1.79.39.72ZM285.92 245.62a.59.59 0 0 0 .67.45l.14.37-3.55 1.32-.2-.56 2.7-1-.16-.43ZM284.09 248.76l-.54.16-.17-.54.55-.17Zm2-.59-.55.17-.16-.55.55-.16ZM287 248.92a.59.59 0 0 0 .61.53l.09.39-3.68.84-.13-.58 2.81-.64-.11-.44ZM284.75 251.77l-.56.1-.09-.57.56-.09ZM284.29 253.09a.84.84 0 0 1 .86-1h.29a.8.8 0 0 1 .81.29.77.77 0 0 1 .71-.44h.12a.93.93 0 1 1 .18 1.85h-.12a.8.8 0 0 1-.79-.3.83.83 0 0 1-.74.44h-.3a.85.85 0 0 1-1.02-.84Zm.54-.05c0 .19.12.32.45.29h.35c.3 0 .41-.17.39-.38s-.16-.32-.45-.29h-.35c-.33.04-.41.19-.39.34Zm2.1-.54c-.31 0-.39.18-.37.37s.13.33.43.3h.21c.34 0 .41-.19.4-.37s-.13-.33-.47-.3ZM286.6 255.09v1.08h-.6v-1.07ZM287.52 258.52c0-.19-.06-.32-.33-.35l-.4-.05.07-.56h.36a.89.89 0 1 1-.21 1.76 2.09 2.09 0 0 1-1.4-.9c-.33-.4-.49-.51-.69-.54h-.08l-.14 1.12-.53-.06.2-1.71.46.06a1.65 1.65 0 0 1 1.13.73 1.58 1.58 0 0 0 1.1.72c.34.07.44-.04.46-.22ZM284.55 260l-.56-.11.1-.56.56.11ZM283.67 261.08a.86.86 0 0 1 1.15-.67l.28.08a.83.83 0 0 1 .67.55.77.77 0 0 1 .82-.17h.12a.92.92 0 1 1-.46 1.79h-.12a.83.83 0 0 1-.64-.55.81.81 0 0 1-.84.17l-.29-.08a.84.84 0 0 1-.69-1.12Zm.52.13c-.05.19 0 .34.33.43l.34.09c.29.07.44 0 .5-.22s-.05-.36-.33-.43l-.34-.09c-.33-.08-.45.01-.5.22Zm2.16.21c-.3-.08-.42 0-.47.22s0 .35.3.42l.2.06c.33.08.46 0 .51-.22s0-.35-.34-.43ZM266.47 280.21l-.8.16-.11-.53.8-.16-.22-1.08-1 .2-.11-.53 1.58-.32.76 3.7-1.58.32-.11-.53 1-.2ZM264.54 281.09l-.31-2.71.53-.06.43 3.75-.74.08-.85-2.18.25 2.25-.52.06-.43-3.75.6-.07ZM261.86 282.38c-.58 0-.88-.32-.9-.92v-.12h.56v.16c0 .27.12.37.31.37s.29-.11.29-.38-.13-.48-.53-.81a1.44 1.44 0 0 1-.68-1.16.82.82 0 0 1 .86-1c.58 0 .89.32.91.92v.23h-.56v-.27c0-.27-.13-.37-.32-.36s-.31.1-.3.37.13.48.53.81a1.47 1.47 0 0 1 .68 1.16c.01.62-.28.99-.85 1ZM258.19 278.33a.85.85 0 0 1 .79 1.07v.29a.82.82 0 0 1-.47.73.75.75 0 0 1 .26.79v.12a.93.93 0 1 1-1.84-.24v-.12a.76.76 0 0 1 .46-.7.8.8 0 0 1-.26-.82v-.3a.85.85 0 0 1 1.06-.82Zm0 2.7c0-.3-.09-.41-.28-.43s-.34 0-.38.35v.2c0 .34.09.45.28.48s.34-.05.38-.39Zm-.05-2.16c-.19 0-.34.05-.39.38v.34c0 .3.06.44.27.47s.35-.08.39-.38v-.35c.03-.33-.1-.44-.29-.46ZM256.31 278.64l.11-.56.56.11-.11.56ZM255.25 277.76a.85.85 0 0 1 .66 1.15l-.08.29a.8.8 0 0 1-.55.66.81.81 0 0 1 .16.83v.11a.93.93 0 1 1-1.8-.47v-.11a.8.8 0 0 1 .55-.64.83.83 0 0 1-.15-.85l.07-.29a.86.86 0 0 1 1.14-.68Zm-.36 2.68c.08-.29 0-.43-.22-.47s-.35 0-.42.3l-.06.2c-.08.33 0 .45.22.5s.34 0 .43-.33Zm.22-2.16c-.18 0-.34 0-.43.33l-.09.34c-.07.28 0 .44.22.49s.35 0 .43-.32l.09-.34c.08-.32-.03-.45-.22-.5ZM252.55 279.22l-1-.38.19-.51 1 .39ZM249 278.38c-.16.3-.09.44.07.53s.32 0 .45-.19l.11-.22.5.26-.1.18a.82.82 0 0 1-1.22.44.83.83 0 0 1-.35-1.25l.05-.09c.18-.36.41-.52.72-.49a.78.78 0 0 1 0-.89l.14-.27a.89.89 0 1 1 1.57.82l-.14.27-.5-.25.16-.31c.12-.24.07-.39-.1-.48s-.32-.06-.47.24l-.14.26c-.16.32-.11.49.13.61l.18.09-.25.48-.21-.11c-.19-.1-.36-.07-.5.2ZM248 277.86a.9.9 0 1 1-1.53-.93l.06-.08.47.3-.07.11c-.15.23-.1.38.06.48s.33.09.52-.22l.37-.57a.54.54 0 0 1-.63 0c-.37-.23-.39-.61-.1-1.08l.37-.58a.9.9 0 1 1 1.52 1Zm.19-1.41.36-.57c.15-.23.1-.38-.06-.48s-.31-.08-.46.15l-.36.57c-.14.23-.1.38.06.48s.32.08.46-.15ZM246.93 274.42l.34-.46.46.34-.33.46ZM246.34 273.17a.86.86 0 0 1 .11 1.33l-.19.22a.82.82 0 0 1-.78.37.77.77 0 0 1-.2.81l-.08.09a.93.93 0 1 1-1.42-1.19l.07-.09a.81.81 0 0 1 .77-.34.8.8 0 0 1 .21-.83l.19-.23a.85.85 0 0 1 1.32-.14Zm-1.45 2.27c.19-.23.14-.39 0-.52s-.32-.13-.51.1l-.13.16c-.22.26-.17.42 0 .54s.31.15.53-.11Zm1.11-1.85c-.15-.12-.31-.14-.53.11l-.22.27c-.19.23-.18.41 0 .54s.34.12.53-.11l.22-.27c.2-.26.14-.42 0-.54ZM243.75 272.32l-2.2 1.58-.58-.59 2.71-2.63.39.4-1.95 1.92 2.22-1.6.39.4-1.61 2.17 1.92-1.87.36.38-2.71 2.63-.57-.59ZM241.83 270.1l-2.37 1.31-.5-.65 3-2.29.33.44-2.14 1.64 2.39-1.32.34.44-1.85 2 2.12-1.62.32.42-3 2.29-.5-.66ZM238.31 268.82a.59.59 0 0 0-.74-.33l-.19-.35 3.28-1.86.29.51-2.5 1.42.22.4ZM237.75 266.33l.52-.25.25.51-.52.25Zm1.85-.9.52-.25.25.52-.52.25ZM236.75 265.74a.58.58 0 0 0-.68-.42l-.15-.37 3.49-1.42.22.55-2.63 1.08.17.42ZM238.47 262.54l.54-.18.18.54-.54.18ZM238.72 261.19a.85.85 0 0 1-.69 1.13l-.28.08a.83.83 0 0 1-.85-.16.8.8 0 0 1-.64.55h-.12a.93.93 0 1 1-.46-1.8h.11a.79.79 0 0 1 .83.17.81.81 0 0 1 .66-.55l.29-.07a.85.85 0 0 1 1.15.65Zm-2.51 1c.29-.07.35-.23.3-.42s-.18-.3-.47-.22h-.2c-.33.08-.38.25-.34.43s.18.3.51.22Zm2-.86c0-.18-.17-.29-.5-.22l-.34.09c-.29.08-.38.23-.33.43s.21.3.5.22l.34-.09c.31-.09.37-.26.32-.44ZM236.12 259.58l-.16-1.06.54-.08.15 1.07ZM234.66 256.33c0 .19.12.3.39.29h.4v.56h-.37a.82.82 0 0 1-1-.85c0-.58.31-.89.92-.92a2.07 2.07 0 0 1 1.52.68c.39.33.57.43.77.42h.08v-1.12h.54l.06 1.71h-.46a1.6 1.6 0 0 1-1.22-.55 1.59 1.59 0 0 0-1.21-.53c-.34-.02-.43.12-.42.31ZM237.37 254.42h.57v.58h-.58ZM238.07 253.22a.85.85 0 0 1-1 .84h-.3a.79.79 0 0 1-.74-.44.78.78 0 0 1-.79.3h-.12a.93.93 0 1 1 .17-1.85h.12a.79.79 0 0 1 .72.44.82.82 0 0 1 .81-.3h.3a.86.86 0 0 1 .83 1.01Zm-2.7.09c.3 0 .41-.1.43-.3s-.07-.34-.37-.37h-.21c-.34 0-.44.11-.46.3s.06.34.4.37Zm2.16-.14c0-.18-.06-.33-.39-.37h-.35c-.3 0-.44.08-.46.29s.1.35.4.37h.35c.33.04.43-.1.45-.29Z"/></g><path d="M279.78 247.83v15a7.14 7.14 0 0 1-7.13 7.14h-22.94a7.14 7.14 0 0 1-7.12-7.14v-15a7.14 7.14 0 0 1 7.11-7.14h23a7.14 7.14 0 0 1 7.08 7.14Z" style="fill:#757575;stroke:#263238;stroke-linecap:round;stroke-linejoin:round"/><path d="M279.78 247.83v15a7.14 7.14 0 0 1-7.13 7.14h-22.94a7.14 7.14 0 0 1-7.12-7.14v-15a7.14 7.14 0 0 1 7.11-7.14h23a7.14 7.14 0 0 1 7.08 7.14Z" style="fill-opacity:.7000000000000001;opacity:.30000000000000004"/><path d="M269.06 240.69h-4.43a15 15 0 0 1 0 29.26H269a16.61 16.61 0 0 0 0-29.26Zm-11.33 0h-4.42a16.61 16.61 0 0 0 0 29.26h4.4a15 15 0 0 1 0-29.26Z" style="fill-opacity:.7000000000000001;opacity:.30000000000000004"/><path d="M261.18 242.14a13.18 13.18 0 1 0 13.18 13.18 13.18 13.18 0 0 0-13.18-13.18Zm0 23.85a10.68 10.68 0 1 1 10.68-10.67A10.67 10.67 0 0 1 261.18 266Z" style="fill-opacity:.7000000000000001;opacity:.30000000000000004"/><circle cx="261.18" cy="255.32" r="7.4" style="fill:#263238"/><circle cx="261.18" cy="255.32" r="11.19" style="fill:none;stroke:#263238;stroke-linecap:round;stroke-linejoin:round"/><path d="M276.21 255.31A15 15 0 0 1 264.63 270h-6.9a15 15 0 0 1 0-29.26h6.9a15 15 0 0 1 11.58 14.57Z" style="fill:none;stroke:#263238;stroke-linecap:round;stroke-linejoin:round"/><path d="M279.78 255.31a18.55 18.55 0 0 1-7.13 14.69h-22.93a18.59 18.59 0 0 1 0-29.26h23a18.57 18.57 0 0 1 7.06 14.57Z" style="fill:none;stroke:#263238;stroke-linecap:round;stroke-linejoin:round"/><rect width="16.48" height="6.16" x="297.48" y="216.26" rx="1.32" style="fill:#bfbfbf;stroke:#263238;stroke-linecap:round;stroke-linejoin:round"/><rect width="8.56" height="2.33" x="298.46" y="217.48" rx=".76" style="fill:#fff"/><rect width="2.56" height="2.33" x="307.82" y="217.48" rx=".76" style="fill:#fff"/><rect width="9.24" height="5.87" x="221.5" y="218.58" rx="1.38" style="fill:#263238"/><rect width="6.43" height="3.98" x="223.65" y="219.9" rx=".88" style="fill:#fff;opacity:.2"/><path d="M474.88 329.08c-4-4.35-12.66-7.88-15.63-14.81a16.9 16.9 0 0 0-5.84-7.25 12 12 0 0 1-3.87-4.51c-2.69-5.52-7.68-10.46-14.22-19.69-7.71-10.87-11.08-20.17-13.85-23.53S411.39 250 411.39 250c-3-7.31-6.66-9.9-6.66-9.9s-4.62-8.7-8.38-11.87-8.7-3.36-13.84-3.16-16.29-2.38-16.29-2.38-16.75-3.76-22.48-3.76h-12.07s-3.36.8-4.94 3.17-12.07 19.38-14.64 26.7-3.17 11.47-2.18 15.43 3.37 12.66 3.37 12.66 5.53 16.42 5.73 18.59 12.46 4.16 12.86-6.13c0 0 1.58 6.33 4 10.29s9.29 2.17 10.48.39c0 0 4.75 12.07 5.14 15s4.95 3.16 7.52.59 4.75-11.67 3.16-16.22c0 0 10.3-11.47 12.28-18.4 0 0 11.77-2.42 13.2-1.31a9.11 9.11 0 0 0 3.2 5.52s7.13 17 6.93 40.5c0 0 5.92 25.12 33.42 25.91s35 17.8 35 17.8l20.7-30.92s-8.06-5.07-12.02-9.42Zm-113.74-66.83a89.43 89.43 0 0 0-8.9 13.26c-1.17 2.25-2.69 5.07-4.06 7.76 0 0-.88-6-1.87-7.27 0 0 7.32-19.88 7.91-21.07h10.68c3.36 0 8.51-.79 10.29 1-2.77.78-11.87 3.55-14.05 6.32Z" style="fill:#fff"/><path d="M400 302.6c-1.29 2.5-2.44 4.58-3.36 6.45a102.5 102.5 0 0 0-5.87-23.8 9.11 9.11 0 0 1-3.2-5.52c-1.43-1.11-13.2 1.31-13.2 1.31-2 6.93-12.28 18.4-12.28 18.4 1.59 4.55-.59 13.65-3.16 16.22s-7.12 2.37-7.52-.59-5.14-15-5.14-15c-1.19 1.78-8.11 3.56-10.48-.39s-4-10.29-4-10.29c-.4 10.29-12.66 8.31-12.86 6.13s-5.73-18.59-5.73-18.59-2.38-8.7-3.37-12.66c-.07-.26-.12-.52-.18-.79 2.62 1.1 6 2.12 8.7 1.43 5-1.3 14-29.77 16.35-34.26s9.61-6.83 11.53-6.45 19.86 3.73 19.86 3.73-17.08-1.72-19.09-.56a52.78 52.78 0 0 0-7 4.73c-.85.92-14.69 35.4-14.69 35.4s-1.33 6.82 5.2 8.72a17.76 17.76 0 0 0 11.39-.22s8.73-20.82 8.17-22.59 4.41-6.57 4.41-6.57 10.37 3.71 15.11 3.76 13.94-2.34 14.75 2.81c0 0-12.08 3.25-17.85 5.53a77.58 77.58 0 0 1 8.7-3c-1.78-1.78-6.93-1-10.29-1h-10.68c-.59 1.19-7.91 21.07-7.91 21.07 1 1.29 1.87 7.27 1.87 7.27 1.37-2.69 2.89-5.51 4.06-7.76a89.43 89.43 0 0 1 8.9-13.26 9 9 0 0 1 2.69-2c-2.69 2-17 25.53-17.84 27.59s3.14 9.77 8.49 9.51S373.21 277 373.21 277s14.21-.14 18.09-2.56 5.46 0 5.46 0-2.94 3-1.58 4.32 7.18-1.31 8.07-1.71c-1 .57-9.11 4.92-8.87 6.24s7.21 6.11 10.82 5.68c0 0-6.33 3.39-8.18 3.11s6.57 3.67 2.98 10.52ZM404.73 240.1a18.25 18.25 0 0 0-13.92-8c-6.39-.33-1.61-5 5.2-4.1l.32.26c3.78 3.14 8.4 11.84 8.4 11.84ZM411.39 250a31.27 31.27 0 0 0-9.36-1.47c-1.2 0 2.72-3.06 6.26-4.42a31.76 31.76 0 0 1 3.1 5.89ZM482 335.2c-7.53-2.62-20.17-6.11-22.25-12.82-2.37-7.64-6.59-6.85-9-9.88-2.22-2.84-2.13-11.61-6-17.22a42.34 42.34 0 0 1 4.73 7.23 12 12 0 0 0 3.87 4.51 16.9 16.9 0 0 1 5.84 7.25c3 6.93 11.67 10.46 15.63 14.81a51.08 51.08 0 0 0 7.18 6.12Z" style="fill:#92e3a9;opacity:.4"/><path d="M373.21 227.64c-3.56.79-20.77-.4-22.75-.79s-7.71 1.78-9.49 3.75-16.22 36.8-16.22 39.4 2.37 7.71 3.4 9.76 3.72 9.62 3.72 9.62" style="fill:none;stroke:#263238;stroke-linecap:round;stroke-linejoin:round"/><path d="M486.87 338.54s-8-5.11-12-9.46-12.66-7.88-15.63-14.81a16.9 16.9 0 0 0-5.84-7.25 12 12 0 0 1-3.87-4.51c-2.69-5.52-7.68-10.46-14.22-19.69-7.71-10.87-11.08-20.17-13.85-23.53S411.39 250 411.39 250c-3-7.31-6.66-9.9-6.66-9.9s-4.62-8.7-8.38-11.87-8.7-3.36-13.84-3.16-16.29-2.38-16.29-2.38-16.75-3.76-22.48-3.76h-12.07s-3.36.8-4.94 3.17-12.07 19.38-14.64 26.7-3.17 11.47-2.18 15.43 3.37 12.66 3.37 12.66 5.53 16.42 5.73 18.59 12.46 4.16 12.86-6.13c0 0 1.58 6.33 4 10.29s9.29 2.17 10.48.39c0 0 4.75 12.07 5.14 15s4.95 3.16 7.52.59 4.75-11.67 3.16-16.22c0 0 10.3-11.47 12.28-18.4 0 0 11.77-2.42 13.2-1.31a9.11 9.11 0 0 0 3.2 5.52 96.45 96.45 0 0 1 5 18.4c1.13 6.23-1.07 17 4.78 25.06" style="fill:none;stroke:#263238;stroke-linecap:round;stroke-linejoin:round"/><path d="M346.31 300s-1.58-5.93-1.58-8.3 4.74-10.88 7.51-16.22a89.43 89.43 0 0 1 8.9-13.26c2.18-2.77 11.28-5.54 14.05-6.33s10.2-2.37 12.42-3.95" style="fill:none;stroke:#263238;stroke-linecap:round;stroke-linejoin:round"/><path d="M348.18 283.27s-.88-6-1.87-7.27c0 0 7.32-19.88 7.91-21.07s0-4.93 0-4.93" style="fill:none;stroke:#263238;stroke-linecap:round;stroke-linejoin:round"/><path d="M354.22 254.93h10.68c3.36 0 8.51-.79 10.29 1M387.61 279.73a16.4 16.4 0 0 0 10.52-7.19" style="fill:none;stroke:#263238;stroke-linecap:round;stroke-linejoin:round"/><path d="M388.7 279.48c4.17 3.15 16.75-1 22.69-7.93M390.81 285.25s11.87 6 19.59 2.76" style="fill:none;stroke:#263238;stroke-linecap:round;stroke-linejoin:round"/><path d="m13.13 323.83 17 33.22s8.63-16.47 36.12-15.43S101.3 318 101.3 318c1.38-23.5 9.61-39.94 9.61-39.94a9.06 9.06 0 0 0 3.57-5.3c1.5-1 13.08 2.19 13.08 2.19 1.51 7 11 19.17 11 19.17-1.88 4.44-.32 13.66 2.08 16.4s6.94 2.84 7.54-.09 6.13-14.66 6.13-14.66c1.07 1.86 7.86 4.1 10.49.31a46.27 46.27 0 0 0 4.63-10c-.29 10.29 12.08 9.13 12.42 7s7-18.17 7-18.17 2.95-8.53 4.2-12.41.93-8.07-1.15-15.54-11.4-25.15-12.82-27.62-4.72-3.49-4.72-3.49l-12-.8c-5.72-.39-22.68 2.25-22.68 2.25s-11.29 1.82-16.41 1.28-10.07-.68-14 2.23-9.27 11.26-9.27 11.26-3.85 2.35-7.3 9.44c0 0-7.7 5.42-10.69 8.59s-7 12.22-15.38 22.56c-7.15 8.77-12.45 13.37-15.5 18.69A12 12 0 0 1 47 295.6a17 17 0 0 0-6.31 6.85c-3.42 6.7-12.34 9.64-16.58 13.72a58.26 58.26 0 0 1-10.98 7.66Zm115.33-74c1.9-1.65 7-.52 10.33-.3l10.66.72c.51 1.22 6.49 21.54 6.49 21.54-1.08 1.22-2.36 7.13-2.36 7.13-1.18-2.77-2.51-5.69-3.53-8a89.31 89.31 0 0 0-8-13.81c-1.98-2.93-10.88-6.3-13.59-7.28Z" style="fill:#fff"/><path d="M130.71 250.68c.87.34 1.87.74 2.9 1.19Z" style="fill:#92e3a9;opacity:.4"/><path d="M193 262.47c-1.25 3.88-4.2 12.41-4.2 12.41s-6.63 16-7 18.17-12.71 3.31-12.42-7a46.27 46.27 0 0 1-4.63 10c-2.63 3.79-9.42 1.55-10.49-.31 0 0-5.54 11.73-6.13 14.66s-5.15 2.83-7.54.09-4-12-2.08-16.4c0 0-9.51-12.13-11-19.17 0 0-11.58-3.2-13.08-2.19a9.06 9.06 0 0 1-3.57 5.3 103 103 0 0 0-7.48 23.55c-.8-2.06-1.85-4.36-3-7.17-3-7.11 5.68-10.41 3.82-10.28s-7.91-3.73-7.91-3.73c3.57.7 10.85-3.46 11.22-4.84s-7.29-6.21-8.35-6.89c.9.48 6.57 3.46 7.91 2.31s-1.25-4.42-1.25-4.42 1.77-2.28 5.44.42 17.85 4.02 17.85 4.02 11.79 21 17.11 21.68 9.87-6.71 9.2-8.83S143 258.61 140 255.22a8.11 8.11 0 0 1 2.05 1.87 89.31 89.31 0 0 1 8 13.81c1 2.33 2.35 5.25 3.53 8 0 0 1.28-5.91 2.36-7.13 0 0-6-20.32-6.49-21.54l-10.66-.72c-3.33-.22-8.38-1.34-10.3.28-4.53-1.75-8.66-3.21-8.66-3.21 1.21-5.07 10.18-2 14.92-1.67s15.35-2.58 15.35-2.58 4.59 5.16 3.9 6.89 6.41 23.15 6.41 23.15a17.79 17.79 0 0 0 11.23 1c6.66-1.39 5.85-8.29 5.85-8.29s-11.14-35.45-11.92-36.42a51 51 0 0 0-6.58-5.25c-1.92-1.32-19.07-.92-19.07-.92s18.14-2 20.08-2.19 9 2.66 11 7.32 8.77 33.73 13.67 35.41c2.47.91 5.74.28 8.33-.56ZM115 224.81a18.28 18.28 0 0 0-14.5 6.94l-.13-.22c1.21-1.89 5.45-8.28 8.8-10.74a7 7 0 0 1 .66-.45c7.05-.55 11.68 4.66 5.17 4.47ZM102.57 240.36a31.79 31.79 0 0 0-9.44.75L93 241a30.51 30.51 0 0 1 3.54-5.55c3.46 1.55 7.24 5.02 6.03 4.91ZM54.29 286.9C51.74 292 51 298.22 49 300.39c-2.6 2.84-6.75 1.73-9.7 9.17-2.22 5.58-11.95 8.22-19.54 10.14a38.5 38.5 0 0 0 4.35-3.53c4.24-4.08 13.16-7 16.58-13.72A17 17 0 0 1 47 295.6a12 12 0 0 0 4.17-4.25 33.43 33.43 0 0 1 3.12-4.45Z" style="fill:#92e3a9;opacity:.4"/><path d="M169.45 286.08s3.2-7.37 4.36-9.35 3.87-7 4-9.52-11.87-38.21-13.52-40.35-7.22-4.65-9.22-4.39-19.25.3-22.75-.73" style="fill:none;stroke:#263238;stroke-linecap:round;stroke-linejoin:round"/><path d="M13.13 323.83a58.26 58.26 0 0 0 11-7.66c4.24-4.08 13.16-7 16.58-13.72A17 17 0 0 1 47 295.6a12 12 0 0 0 4.17-4.25c3-5.32 8.35-9.92 15.5-18.69 8.42-10.34 12.4-19.39 15.38-22.56s10.69-8.59 10.69-8.59c3.45-7.09 7.3-9.44 7.3-9.44s5.19-8.37 9.15-11.28 8.91-2.77 14-2.23 16.41-1.28 16.41-1.28 17-2.64 22.68-2.25l12 .8s3.3 1 4.72 3.49 10.75 20.15 12.82 27.62 2.4 11.66 1.15 15.54-4.2 12.41-4.2 12.41-6.63 16-7 18.17-12.71 3.31-12.42-7a46.27 46.27 0 0 1-4.63 10c-2.63 3.79-9.42 1.55-10.49-.31 0 0-5.54 11.73-6.13 14.66s-5.15 2.83-7.54.09-4-12-2.08-16.4c0 0-9.51-12.13-11-19.17 0 0-11.58-3.2-13.08-2.19a9.06 9.06 0 0 1-3.57 5.3 96.1 96.1 0 0 0-6.23 18c-1.54 6.14-.06 17-6.44 24.69" style="fill:none;stroke:#263238;stroke-linecap:round;stroke-linejoin:round"/><path d="M154.33 295.77s2-5.81 2.14-8.18-4-11.17-6.42-16.69a89.31 89.31 0 0 0-8-13.81c-2-2.91-10.88-6.28-13.59-7.26s-10-3-12.12-4.77" style="fill:none;stroke:#263238;stroke-linecap:round;stroke-linejoin:round"/><path d="M153.58 278.92s1.28-5.91 2.36-7.13c0 0-6-20.32-6.49-21.54s.33-4.93.33-4.93" style="fill:none;stroke:#263238;stroke-linecap:round;stroke-linejoin:round"/><path d="m149.45 250.25-10.66-.72c-3.35-.22-8.43-1.35-10.33.3M114.48 272.76a16.4 16.4 0 0 1-10-7.88" style="fill:none;stroke:#263238;stroke-linecap:round;stroke-linejoin:round"/><path d="M113.41 272.43C109 275.3 96.76 270.31 91.3 263M110.91 278.06s-12.24 5.16-19.72 1.44" style="fill:none;stroke:#263238;stroke-linecap:round;stroke-linejoin:round"/></svg>