<svg xmlns="http://www.w3.org/2000/svg" viewBox="0 0 500 500"><path d="M443.92 291.755H263.174c-3.232 0-5.862-2.262-5.862-5.043V60.242c0-2.781 2.63-5.042 5.862-5.042H443.92c3.232 0 5.862 2.262 5.862 5.042v226.469c0 2.781-2.63 5.043-5.862 5.043ZM263.174 55.415c-3.095 0-5.612 2.166-5.612 4.827v226.469c0 2.662 2.518 4.828 5.612 4.828H443.92c3.095 0 5.612-2.166 5.612-4.828V60.242c0-2.662-2.518-4.827-5.612-4.827H263.174ZM235.493 291.755H54.746c-3.232 0-5.862-2.262-5.862-5.043V60.242c0-2.781 2.629-5.042 5.862-5.042h180.747c3.232 0 5.862 2.262 5.862 5.042v226.469c0 2.781-2.63 5.043-5.862 5.043ZM54.746 55.415c-3.094 0-5.612 2.166-5.612 4.827v226.469c0 2.662 2.518 4.828 5.612 4.828h180.747c3.095 0 5.612-2.166 5.612-4.828V60.242c0-2.662-2.518-4.827-5.612-4.827H54.746ZM0 317.782h500v.215H0zM51.672 330.186h16.06v.25h-16.06zM170.352 327.476h53.53v.25h-53.53zM68.732 339.476h36.25v.25h-36.25zM378.352 327.346h43.19v.25h-43.19zM430.452 327.346h6.33v.25h-6.33zM316.212 333.576h53.89v.25h-53.89z" style="fill:#e0e0e0"/><path d="M123.275 100.774c-2.04-1.541-5.016-1.716-7.222-.424-2.928-5.917-11.088-8.528-16.907-5.411-1.518-6.376-7.8-11.277-14.354-11.198-6.554.079-12.716 5.13-14.081 11.54-.217 1.019-.36 2.135-1.089 2.879-1.184 1.209-3.16.803-4.847.672-5.308-.414-10.648 3.312-12.092 8.437l73.094-.266c.64-2.475-.462-4.688-2.501-6.229ZM449.563 99.442c-2.474-1.869-6.083-2.081-8.759-.514-3.551-7.176-13.447-10.343-20.505-6.562-1.841-7.733-9.46-13.676-17.408-13.581-7.948.096-15.422 6.221-17.077 13.996-.263 1.236-.437 2.589-1.321 3.492-1.436 1.466-3.833.974-5.878.815-6.437-.502-12.914 4.017-14.665 10.232l88.646-.323c.776-3.002-.56-5.686-3.034-7.555ZM323.381 191.637c-2.409-1.82-5.924-2.026-8.529-.5-3.458-6.988-13.095-10.072-19.967-6.39-1.793-7.53-9.212-13.318-16.952-13.225-7.74.093-15.018 6.058-16.629 13.629-.256 1.203-.426 2.521-1.286 3.4-1.398 1.428-3.732.949-5.724.793-6.268-.489-12.576 3.912-14.28 9.963l86.323-.314c.756-2.923-.545-5.537-2.954-7.356ZM368.118 52.764c-1.321-.998-3.249-1.111-4.678-.274-1.896-3.832-7.181-5.524-10.951-3.505-.983-4.13-5.052-7.304-9.297-7.253-4.245.051-8.236 3.322-9.12 7.475-.141.66-.234 1.383-.705 1.865-.767.783-2.047.52-3.14.435-3.438-.268-6.897 2.145-7.832 5.464l47.342-.172c.415-1.603-.299-3.037-1.62-4.035Z" style="fill:#ebebeb"/><circle cx="253.495" cy="100.344" r="56.576" style="fill:#f5f5f5" transform="rotate(-13.607 253.5 100.345)"/><path d="m237.787 53.008.602-.702 1.161-2.728.762.475.312-.365-.862-1.238.646-.928-.056-.59 1.145-.608 2.217.575.783.007.455.436 1.967-.415.026.811.887.23-.82 1.857-.781.872.307.952-3.035 2.106-.54.597-2.423-.122-.341.872-1.056.287-1.356-2.381zM265.683 58.053l1.007-.753 1.773.46-.452 1.742-1.719 1.414-1.061-1.121.452-1.742zM280.207 68.761l.504-.403.257-.576.707-.56.527-.053.565-.455.3.667.956.383.15 2.027 1.849-.014.101 1.514-.57.292-.144.557-1.571-.408-.876.483.326.463-.353.213.172.248-1.022.525-.135-.183-.354.219-.764-.314-.75.414-.354-.382-.539.15-.336-1.101-1.47-.382-.257-.364-.779-.202-1.187-1.654.108-.729-.417-.582.621-.569.852.106.669.417.508-.057.744.315.407.775.389-.197.472.163.694-.746zM302.012 88.122l2.713-.655 2.132 1.061 1.256 2.483-.323 1.059.416.872-.462 1.78-.729-.135-.657.918-2.376-.617.617-2.376-1.853-.859-.009-2.308-.725-1.223zM271.917 65.088l1.505 1.574-.699 2.692-2.163.96-.248-.45-.666-.092-.545-2.095-.345-.624.458-.28.265-.682 1.395-.868.72.065.323-.2zM230.612 54.365l2.963-.421 1.129.888.325 3.384-.73-.027-1.286.707-1.767-.073-.548-.778-1.032-.038-2.087-1.725 1.256-1.791 1.041.338.736-.464zM252.364 46.819l2.052 1.209.804 2.764-2.231 1.091-2.933-.761.823-3.168 1.485-1.135z" style="fill:#ebebeb;isolation:isolate"/><path d="M266.139 95.903a6.909 6.909 0 0 1 .018-1.005c-.017.154.055-.299.054-.293.042-.2.096-.398.158-.593a5.76 5.76 0 0 1 .93-1.715 5.37 5.37 0 0 1 1.578-1.343c.308-.175.457-.247.759-.347.346-.114.756-.206.978-.222 2.776-.204 5.403 2.237 5.436 4.976.023 1.929 3.023 1.934 3 0-.042-3.498-2.536-6.603-5.835-7.652-3.363-1.069-6.853.562-8.748 3.407-1.111 1.669-1.485 3.617-1.219 5.583.109.804 1.139 1.242 1.845 1.048.867-.238 1.157-1.039 1.048-1.845ZM256.021 97.028c.018.13.015.713-.018 1.005.017-.154-.055.299-.054.293-.042.2-.096.398-.158.593a5.76 5.76 0 0 1-.93 1.715c-.481.587-.957.99-1.578 1.342a3.541 3.541 0 0 1-.759.347c-.346.114-.756.206-.978.222-2.776.204-5.403-2.237-5.436-4.976-.023-1.929-3.023-1.934-3 0 .042 3.498 2.536 6.603 5.835 7.652 3.363 1.069 6.853-.562 8.748-3.407 1.111-1.669 1.485-3.617 1.219-5.583-.109-.804-1.139-1.242-1.845-1.048-.867.238-1.157 1.039-1.048 1.845ZM237.107 91.83c0 4.064-1.929 7.358-4.308 7.358s-4.307-3.294-4.307-7.358 1.928-7.358 4.307-7.358 4.308 3.294 4.308 7.358Z" style="fill:#e0e0e0"/><path d="M396.07 447.576c0 6.27-68.623 11.353-153.273 11.353s-153.273-5.083-153.273-11.353 68.623-11.353 153.273-11.353 153.273 5.083 153.273 11.353Z" style="fill:#f5f5f5"/><path d="m74.769 208.373-2.79 84.526h7.329l-2.79-84.526h-1.749z" style="fill:#263238"/><path d="M74.858 226.861s-40.208 39.827-31.022 51.81c2.456 3.198 15.514-4.423 15.514-4.423s2.395 7.152 4.566 7.635c4.021.891 13.657-9.24 13.657-9.24s7.968 9.778 11.643 9.24c2.783-.408 6.423-9.24 6.423-9.24s11.813 7.778 14.058 4.824c9.281-12.262-34.839-50.605-34.839-50.605Z" style="fill:#58c57a"/><path d="M75.103 205.488s-34.914 34.587-26.926 44.992c2.13 2.776 13.473-3.838 13.473-3.838s2.082 6.206 3.967 6.628c3.491.769 11.853-8.023 11.853-8.023s6.92 8.492 10.112 8.023c2.422-.361 5.58-8.023 5.58-8.023s10.261 6.757 12.207 4.185c8.05-10.629-30.267-43.944-30.267-43.944Z" style="fill:#58c57a"/><path d="M75.395 190.15s-28.457 28.184-21.952 36.663c1.735 2.259 10.976-3.13 10.976-3.13s1.701 5.063 3.232 5.403c2.851.633 9.662-6.539 9.662-6.539s5.641 6.92 8.247 6.539c1.967-.293 4.546-6.539 4.546-6.539s8.356 5.505 9.948 3.402c6.573-8.649-24.66-35.799-24.66-35.799Z" style="fill:#58c57a"/><path d="M80.226 180.699a6.198 6.198 0 0 0-8.88.293c-6.464 7.083-17.535 20.509-13.691 25.517 1.422 1.858 8.996-2.559 8.996-2.559s1.361 4.144 2.647 4.423c2.334.517 7.914-5.355 7.914-5.355s4.627 5.668 6.757 5.355c1.613-.238 3.722-5.355 3.722-5.355s6.852 4.512 8.166 2.797c3.899-5.158-8.533-18.304-15.63-25.116Z" style="fill:#58c57a"/><path d="M94.336 245.985c2.748 1.677 9.493 5.483 11.033 3.447 3.794-5.01-2.713-15.059-10.652-24.284 2.222 1.057 4.569 1.817 5.338.801 3.372-4.437-3.205-13.742-10.411-21.753 2.131 1.201 5.355 2.739 6.213 1.619 3.899-5.158-8.533-18.304-15.63-25.116a6.198 6.198 0 0 0-8.88.293c-6.464 7.083-17.535 20.509-13.691 25.517.522.681 1.872.517 3.372.038-5.883 7.781-10.671 16.243-7.584 20.267.485.631 1.557.665 2.849.386-6.653 9.09-11.697 18.616-8.115 23.28.929 1.211 3.612.635 6.341-.399-8.296 10.982-15.035 22.912-10.682 28.591 2.456 3.198 15.514-4.423 15.514-4.423s2.395 7.152 4.566 7.635c2.066.458 5.613-1.994 8.575-4.487l-.512 15.504h7.328l-.626-18.957c2.318 2.64 7.7 8.355 10.533 7.94 2.783-.408 6.423-9.241 6.423-9.241s11.813 7.778 14.058 4.824c4.862-6.424-4.932-20.005-15.361-31.482Z" style="isolation:isolate;opacity:.3"/><path d="m399.137 149.816-4.723 143.083h12.406l-4.723-143.083h-2.96z" style="fill:#263238"/><path d="M399.287 181.112s-68.063 67.418-52.513 87.702c4.158 5.414 26.262-7.487 26.262-7.487s4.054 12.106 7.729 12.924c6.807 1.509 23.118-15.642 23.118-15.642s13.488 16.552 19.708 15.642c4.711-.691 10.873-15.642 10.873-15.642s19.996 13.166 23.797 8.167c15.711-20.756-58.975-85.663-58.975-85.663Z" style="fill:#58c57a"/><path d="M399.701 144.932s-59.102 58.549-45.579 76.161c3.605 4.7 22.807-6.497 22.807-6.497s3.525 10.505 6.715 11.219c5.909 1.302 20.065-13.58 20.065-13.58s11.714 14.375 17.116 13.58c4.101-.61 9.445-13.58 9.445-13.58s17.37 11.438 20.664 7.084c13.626-17.992-51.234-74.387-51.234-74.387Z" style="fill:#58c57a"/><path d="M400.197 118.969s-48.171 47.71-37.159 62.062c2.937 3.824 18.579-5.298 18.579-5.298s2.88 8.57 5.471 9.146c4.826 1.071 16.356-11.069 16.356-11.069s9.549 11.714 13.961 11.069c3.329-.495 7.694-11.069 7.694-11.069s14.145 9.319 16.84 5.759c11.127-14.64-41.743-60.599-41.743-60.599Z" style="fill:#58c57a"/><path d="M408.375 102.97c-4.177-4.018-10.819-3.889-14.837.288a9.586 9.586 0 0 0-.195.208c-10.943 11.991-29.683 34.717-23.175 43.194 2.407 3.145 15.227-4.331 15.227-4.331s2.304 7.015 4.481 7.487c3.951.876 13.396-9.065 13.396-9.065s7.833 9.595 11.438 9.065c2.73-.403 6.301-9.065 6.301-9.065s11.599 7.637 13.822 4.734c6.6-8.731-14.444-30.985-26.458-42.515ZM410.043 100.734c3.426 2.782 6.514 5.993 9.502 9.231 3.337 3.615 6.553 7.357 9.551 11.259.58.755 1.883.009 1.295-.757-3.009-3.917-6.217-7.682-9.56-11.318-3.057-3.325-6.216-6.625-9.728-9.476-.743-.603-1.811.452-1.061 1.061ZM431.209 124.375c.836 1.255 1.615 2.55 2.407 3.833l.263.426c.206.334.68.492 1.026.269.335-.216.489-.669.269-1.026a322.82 322.82 0 0 0-2.087-3.354c-.192-.303-.384-.607-.583-.905-.217-.326-.672-.498-1.026-.269-.325.209-.502.677-.269 1.026Z" style="fill:#58c57a"/><path d="m125.871 144.149-4.722 148.75h12.405l-4.722-148.75h-2.961z" style="fill:#263238"/><path d="M126.021 176.684s-68.063 70.088-52.513 91.176c4.158 5.628 26.262-7.784 26.262-7.784s4.055 12.585 7.729 13.436c6.807 1.569 23.118-16.262 23.118-16.262s13.488 17.208 19.708 16.262c4.711-.718 10.873-16.262 10.873-16.262s19.996 13.687 23.797 8.49c15.711-21.578-58.975-89.056-58.975-89.056Z" style="fill:#58c57a"/><path d="M126.436 139.071s-59.102 60.868-45.579 79.177c3.605 4.886 22.807-6.754 22.807-6.754s3.525 10.921 6.715 11.663c5.909 1.353 20.065-14.118 20.065-14.118s11.714 14.944 17.116 14.118c4.101-.635 9.445-14.118 9.445-14.118s17.37 11.891 20.664 7.364c13.626-18.704-51.234-77.333-51.234-77.333Z" style="fill:#58c57a"/><path d="M126.931 112.08S78.76 161.679 89.772 176.6c2.937 3.976 18.579-5.508 18.579-5.508s2.88 8.909 5.471 9.508c4.826 1.114 16.356-11.508 16.356-11.508s9.549 12.178 13.961 11.508c3.329-.515 7.694-11.508 7.694-11.508s14.145 9.688 16.84 5.987c11.127-15.22-41.743-62.999-41.743-62.999Z" style="fill:#58c57a"/><path d="M135.109 95.447c-4.176-4.177-10.819-4.043-14.837.299a9.993 9.993 0 0 0-.195.216c-10.943 12.466-29.683 36.092-23.175 44.905 2.407 3.269 15.227-4.503 15.227-4.503s2.304 7.293 4.481 7.784c3.951.91 13.396-9.424 13.396-9.424s7.833 9.975 11.438 9.424c2.73-.419 6.301-9.424 6.301-9.424s11.599 7.939 13.822 4.922c6.6-9.077-14.444-32.212-26.458-44.199Z" style="fill:#58c57a"/><path d="m334.702 174.062-3.923 118.837h10.304l-3.923-118.837h-2.458z" style="fill:#263238"/><path d="M334.826 200.055s-56.529 55.994-43.614 72.841c3.453 4.496 21.812-6.218 21.812-6.218s3.367 10.055 6.419 10.734c5.654 1.253 19.2-12.992 19.2-12.992s11.202 13.747 16.369 12.992c3.913-.574 9.031-12.992 9.031-12.992s16.608 10.935 19.765 6.783c13.049-17.239-48.981-71.147-48.981-71.147Z" style="fill:#58c57a"/><path d="M335.17 170.006s-49.086 48.627-37.855 63.255c2.994 3.903 18.942-5.396 18.942-5.396s2.927 8.725 5.577 9.318c4.908 1.081 16.665-11.279 16.665-11.279s9.729 11.939 14.216 11.279c3.406-.507 7.845-11.279 7.845-11.279s14.426 9.5 17.163 5.883c11.317-14.943-42.552-61.781-42.552-61.781Z" style="fill:#58c57a"/><path d="M335.582 148.443s-40.008 39.625-30.862 51.545c2.439 3.176 15.431-4.401 15.431-4.401s2.392 7.118 4.544 7.596c4.008.89 13.585-9.194 13.585-9.194s7.931 9.729 11.595 9.194c2.765-.411 6.39-9.194 6.39-9.194s11.748 7.739 13.986 4.783c9.241-12.159-34.669-50.33-34.669-50.33Z" style="fill:#58c57a"/><path d="M342.374 135.155a8.715 8.715 0 0 0-12.485.412c-9.088 9.959-24.653 28.834-19.248 35.875 1.999 2.612 12.647-3.597 12.647-3.597s1.913 5.826 3.721 6.218c3.281.727 11.126-7.529 11.126-7.529s6.505 7.969 9.5 7.529c2.267-.335 5.233-7.529 5.233-7.529s9.634 6.343 11.48 3.932c5.482-7.252-11.997-25.734-21.975-35.311Z" style="fill:#58c57a"/><path d="M362.211 226.941c3.863 2.357 13.346 7.709 15.512 4.846 5.334-7.043-3.814-21.171-14.976-34.141 3.123 1.486 6.423 2.555 7.505 1.127 4.741-6.238-4.507-19.32-14.638-30.583 2.996 1.688 7.528 3.851 8.735 2.276 5.482-7.252-11.997-25.734-21.975-35.311a8.715 8.715 0 0 0-12.485.412c-9.088 9.959-24.653 28.834-19.248 35.875.734.958 2.632.727 4.74.053-8.271 10.94-15.002 22.837-10.662 28.493.682.888 2.188.935 4.005.543-9.354 12.78-16.445 26.172-11.409 32.73 1.306 1.703 5.078.893 8.915-.561-11.663 15.44-21.138 32.213-15.018 40.196 3.453 4.496 21.812-6.218 21.812-6.218s3.367 10.055 6.419 10.734c2.905.644 7.892-2.804 12.056-6.309l-.719 21.797h10.303l-.88-26.652c3.259 3.712 10.826 11.746 14.809 11.163 3.913-.574 9.031-12.991 9.031-12.991s16.608 10.935 19.765 6.783c6.836-9.031-6.934-28.125-21.596-44.261Z" style="isolation:isolate;opacity:.3"/><path d="m179.693 174.062-3.922 118.837h10.303l-3.922-118.837h-2.459z" style="fill:#263238"/><path d="M179.817 200.055s-56.529 55.994-43.614 72.841c3.453 4.496 21.812-6.218 21.812-6.218s3.367 10.055 6.419 10.734c5.654 1.253 19.2-12.992 19.2-12.992s11.203 13.747 16.369 12.992c3.913-.574 9.031-12.992 9.031-12.992s16.608 10.935 19.765 6.783c13.049-17.239-48.981-71.147-48.981-71.147Z" style="fill:#58c57a"/><path d="M180.162 170.006s-49.086 48.627-37.855 63.255c2.994 3.903 18.942-5.396 18.942-5.396s2.927 8.725 5.577 9.318c4.908 1.081 16.665-11.279 16.665-11.279s9.729 11.939 14.216 11.279c3.406-.507 7.845-11.279 7.845-11.279s14.426 9.5 17.163 5.883c11.317-14.943-42.552-61.781-42.552-61.781Z" style="fill:#58c57a"/><path d="M180.573 148.443s-40.008 39.625-30.862 51.545c2.439 3.176 15.431-4.401 15.431-4.401s2.392 7.118 4.544 7.596c4.008.89 13.585-9.194 13.585-9.194s7.931 9.729 11.595 9.194c2.765-.411 6.39-9.194 6.39-9.194s11.748 7.739 13.986 4.783c9.241-12.159-34.67-50.33-34.67-50.33Z" style="fill:#58c57a"/><path d="M187.365 135.155a8.715 8.715 0 0 0-12.485.412c-9.088 9.959-24.653 28.834-19.248 35.875 1.999 2.612 12.647-3.597 12.647-3.597s1.913 5.826 3.721 6.218c3.281.727 11.126-7.529 11.126-7.529s6.505 7.969 9.5 7.529c2.267-.335 5.233-7.529 5.233-7.529s9.634 6.343 11.48 3.932c5.482-7.252-11.996-25.734-21.975-35.311Z" style="fill:#58c57a"/><path d="M207.202 226.941c3.863 2.357 13.346 7.709 15.512 4.846 5.334-7.043-3.814-21.171-14.976-34.141 3.123 1.486 6.423 2.555 7.505 1.127 4.741-6.238-4.507-19.32-14.638-30.583 2.996 1.688 7.528 3.851 8.735 2.276 5.482-7.252-11.997-25.734-21.975-35.311a8.715 8.715 0 0 0-12.485.412c-9.088 9.959-24.653 28.834-19.248 35.875.733.958 2.632.727 4.74.053-8.271 10.94-15.002 22.837-10.662 28.493.682.888 2.188.935 4.005.543-9.354 12.78-16.445 26.172-11.409 32.73 1.306 1.703 5.078.893 8.915-.561-11.663 15.44-21.138 32.213-15.018 40.196 3.453 4.496 21.812-6.218 21.812-6.218s3.367 10.055 6.419 10.734c2.905.644 7.892-2.804 12.056-6.309l-.719 21.797h10.303l-.88-26.652c3.259 3.712 10.826 11.746 14.809 11.163 3.913-.574 9.031-12.991 9.031-12.991s16.608 10.935 19.765 6.783c6.836-9.031-6.934-28.125-21.596-44.261Z" style="isolation:isolate;opacity:.3"/><path d="M62.322 364.252c-.565-.95-1.826-2.118-2.709-2.784-.883-.665-2.094-.997-3.117-.578-1.306.535-1.908 2.137-1.726 3.537.182 1.4.85 3.169 1.646 4.334 3.397 4.974 6.542 9.527 11.785 13.228 0-6.178-2.743-12.468-5.878-17.737ZM79.619 365.109c-1.173-.642-3.355.268-4.425 1.07-2.122 1.59-3.415 3.256-4.709 5.571-1.642 2.94-1.833 7.068-2.041 9.689 4.152-3.371 8.381-6.827 11.225-11.356.496-.79.957-1.64 1.046-2.569.089-.929-.277-1.957-1.095-2.405Z" style="fill:#58c57a"/><path d="M68.821 384.625a.25.25 0 0 1-.244-.197 40.455 40.455 0 0 0-5.178-12.807.25.25 0 0 1 .425-.264c2.482 4 4.245 8.362 5.241 12.965a.25.25 0 0 1-.244.303Z" style="fill:#263238"/><path d="M68.274 382.089a.25.25 0 0 1-.234-.335 28.004 28.004 0 0 1 4.833-8.412.25.25 0 0 1 .384.321 27.483 27.483 0 0 0-4.747 8.262.25.25 0 0 1-.235.165Z" style="fill:#263238"/><path d="M47.232 301.306c-.459-.772-1.483-1.721-2.201-2.262-.718-.541-1.701-.81-2.533-.47-1.061.434-1.551 1.736-1.403 2.873.148 1.137.69 2.575 1.337 3.521 2.76 4.041 5.315 7.74 9.575 10.747 0-5.02-2.228-10.13-4.776-14.411ZM61.286 302.002c-.953-.522-2.726.218-3.595.87-1.724 1.292-2.775 2.645-3.826 4.526-1.334 2.388-1.489 5.742-1.659 7.872 3.373-2.738 6.81-5.547 9.12-9.227.403-.642.778-1.332.85-2.087.072-.755-.225-1.59-.89-1.954Z" style="fill:#58c57a"/><path d="M52.512 317.905a.25.25 0 0 1-.244-.197 32.803 32.803 0 0 0-4.201-10.39.25.25 0 0 1 .425-.264 33.283 33.283 0 0 1 4.264 10.548.25.25 0 0 1-.244.303Z" style="fill:#263238"/><path d="M52.068 315.844a.25.25 0 0 1-.235-.335 22.754 22.754 0 0 1 3.935-6.848.251.251 0 0 1 .352-.032c.106.089.12.246.032.353a22.315 22.315 0 0 0-3.849 6.697.25.25 0 0 1-.235.165Z" style="fill:#263238"/><path d="M260.677 301.598c-.459-.772-1.483-1.721-2.201-2.262-.717-.541-1.701-.81-2.533-.47-1.061.434-1.551 1.736-1.402 2.873.148 1.137.69 2.575 1.337 3.521 2.76 4.041 5.315 7.74 9.575 10.747 0-5.02-2.228-10.13-4.776-14.411ZM274.731 302.294c-.953-.522-2.726.218-3.595.87-1.724 1.292-2.775 2.645-3.826 4.526-1.334 2.388-1.489 5.742-1.659 7.872 3.374-2.738 6.81-5.547 9.12-9.227.403-.642.777-1.332.85-2.087.072-.755-.225-1.59-.89-1.954Z" style="fill:#58c57a"/><path d="M265.958 318.197a.25.25 0 0 1-.244-.197 32.803 32.803 0 0 0-4.201-10.39.252.252 0 0 1 .081-.345.252.252 0 0 1 .345.081 33.306 33.306 0 0 1 4.264 10.548.25.25 0 0 1-.244.303Z" style="fill:#263238"/><path d="M265.514 316.136a.25.25 0 0 1-.235-.335 22.75 22.75 0 0 1 3.935-6.848.252.252 0 0 1 .353-.032c.106.089.12.246.032.353a22.249 22.249 0 0 0-3.849 6.697.25.25 0 0 1-.235.165Z" style="fill:#263238"/><path d="M452.609 422.172c-.565-.95-1.826-2.118-2.709-2.784s-2.094-.997-3.117-.578c-1.306.535-1.908 2.137-1.726 3.537.182 1.4.85 3.169 1.646 4.334 3.397 4.974 6.542 9.527 11.785 13.228 0-6.178-2.742-12.468-5.879-17.737ZM469.906 423.029c-1.173-.642-3.355.268-4.425 1.07-2.122 1.59-3.415 3.256-4.709 5.571-1.643 2.94-1.833 7.068-2.042 9.689 4.152-3.371 8.382-6.827 11.225-11.356.496-.79.957-1.64 1.046-2.569.089-.929-.277-1.957-1.095-2.405Z" style="fill:#58c57a"/><path d="M459.108 442.545a.25.25 0 0 1-.244-.197 40.45 40.45 0 0 0-5.178-12.807.252.252 0 0 1 .081-.345.252.252 0 0 1 .345.081 40.965 40.965 0 0 1 5.24 12.965.25.25 0 0 1-.244.303Z" style="fill:#263238"/><path d="M458.562 440.009a.25.25 0 0 1-.235-.335 28.004 28.004 0 0 1 4.833-8.412.253.253 0 0 1 .353-.032c.106.089.12.246.032.353a27.462 27.462 0 0 0-4.747 8.262.25.25 0 0 1-.235.165ZM432.983 258.57c-5.579-3.452-12.553-4.867-19.155-3.887l3.211-13.562c.186-.786.287-1.786-.433-2.225-.622-.379-1.451-.065-2.076.311-3.345 2.011-5.388 5.786-5.143 9.504-.067-2.735-1.218-5.428-3.144-7.48-.638-.68-1.839-.474-2.158.38-1.066 2.854-.4 6.279 1.821 8.498-2.498-1.135-3.488-4.178-6.475-4.831-1.141-.249-2.389.206-2.873 1.206-.625 1.29.394 2.482 1.377 3.38a40.517 40.517 0 0 0 8.955 6.184c-13.804-1.236-28.075 5.45-35.305 16.542l72.736.964c-1.632-6.077-5.76-11.533-11.339-14.985Z" style="fill:#263238"/><path d="M444.008 402.182H376.34l-10.472-128.68h86.855l-8.715 128.68z" style="fill:#263238"/><path d="M444.008 402.182H376.34l-10.472-128.68h86.855l-8.715 128.68z" style="fill:#fff;isolation:isolate;opacity:.4"/><path d="M455.451 282.597h-92.106a5.081 5.081 0 0 1 0-10.162h92.106a5.081 5.081 0 0 1 0 10.162Z" style="fill:#263238"/><path d="M455.451 282.597h-92.106a5.081 5.081 0 0 1 0-10.162h92.106a5.081 5.081 0 0 1 0 10.162Z" style="fill:#fff;isolation:isolate;opacity:.4"/><path d="m366.608 282.597.34 4.183h84.876l.283-4.183h-85.499z" style="opacity:.4"/><path d="m398.464 312.761 7.271 4.168 4.557-7.465 2.715 3.733-2.23 2.278 7.756-.097 4.072-7.271-2.812 1.551-3.005-5.138H403.99l-5.526 8.241zM407.869 333.999l-.205-7.88-8.746-.026 1.784-4.256 3.105.725-4.104-6.582-8.329.288 2.784 1.6-2.836 5.234 6.635 10.944 9.912-.047zM424.587 315.022l-6.415 3.233 3.72 7.916-4.611.209-.673-3.116-4.191 6.526 3.825 7.404.254-3.201 6.681.053 5.884-9.704-4.474-9.32z" style="fill:#fff"/><path d="M447.617 411.349a3.736 3.736 0 0 1-3.736-3.736v-20.051a3.736 3.736 0 0 1 7.472 0v20.051a3.736 3.736 0 0 1-3.736 3.736Z" style="fill:#263238"/><rect width="7.472" height="27.523" x="367.829" y="383.826" rx="3.736" ry="3.736" style="fill:#263238"/><path d="M170.305 60.918c0 1.696-2.452 3.043-2.871 4.604-.419 1.562 1.003 4.009.188 5.42s-3.628 1.385-4.792 2.544c-1.164 1.159-1.111 3.966-2.544 4.792-1.433.826-3.805-.617-5.42-.188-1.615.429-2.914 2.871-4.604 2.871s-3.043-2.452-4.604-2.871c-1.561-.419-4.003 1.009-5.42.188-1.417-.821-1.379-3.628-2.544-4.792-1.164-1.164-3.96-1.105-4.792-2.544-.832-1.438.617-3.821.188-5.431-.429-1.61-2.871-2.909-2.871-4.604s2.452-3.037 2.871-4.599c.418-1.562-1.003-4.009-.188-5.42.816-1.411 3.628-1.384 4.792-2.549 1.164-1.164 1.111-3.96 2.544-4.792 1.433-.832 3.805.623 5.42.188s2.914-2.866 4.604-2.866 3.043 2.452 4.604 2.866c1.561.413 4.003-1.003 5.42-.188s1.379 3.628 2.544 4.792c1.164 1.164 3.96 1.111 4.792 2.549.832 1.438-.617 3.805-.188 5.42.429 1.615 2.871 2.919 2.871 4.609Z" style="fill:#58c57a"/><g style="opacity:.8"><path d="M170.305 60.918c0 1.696-2.452 3.043-2.871 4.604-.419 1.562 1.003 4.009.188 5.42s-3.628 1.385-4.792 2.544c-1.164 1.159-1.111 3.966-2.544 4.792-1.433.826-3.805-.617-5.42-.188-1.615.429-2.914 2.871-4.604 2.871s-3.043-2.452-4.604-2.871c-1.561-.419-4.003 1.009-5.42.188-1.417-.821-1.379-3.628-2.544-4.792-1.164-1.164-3.96-1.105-4.792-2.544-.832-1.438.617-3.821.188-5.431-.429-1.61-2.871-2.909-2.871-4.604s2.452-3.037 2.871-4.599c.418-1.562-1.003-4.009-.188-5.42.816-1.411 3.628-1.384 4.792-2.549 1.164-1.164 1.111-3.96 2.544-4.792 1.433-.832 3.805.623 5.42.188s2.914-2.866 4.604-2.866 3.043 2.452 4.604 2.866c1.561.413 4.003-1.003 5.42-.188s1.379 3.628 2.544 4.792c1.164 1.164 3.96 1.111 4.792 2.549.832 1.438-.617 3.805-.188 5.42.429 1.615 2.871 2.919 2.871 4.609Z" style="fill:#fff"/></g><path d="M144.78 47.684c7.308-3.027 15.686.443 18.713 7.751s-.443 15.686-7.751 18.713c-7.308 3.027-15.686-.443-18.713-7.751s.443-15.686 7.751-18.713Z" style="fill:#58c57a"/><path d="M144.78 47.684c7.308-3.027 15.686.443 18.713 7.751s-.443 15.686-7.751 18.713c-7.308 3.027-15.686-.443-18.713-7.751s.443-15.686 7.751-18.713Z" style="fill:#fff;isolation:isolate;opacity:.5"/><path d="m254.128 402.731 1.847-2.942 3.46-1.403 4.071-7.027c.324-.56.399-1.229.205-1.847l-1.74-5.556-4.36-2.736-5.76.849a2.304 2.304 0 0 0-1.573.988l-4.558 6.721.241 3.726-1.846 2.943-3.725 1.763-9.224 14.84a2.385 2.385 0 0 0 .758 3.279l9.601 6.026a2.385 2.385 0 0 0 3.282-.743l9.353-14.759-.032-4.121Z" style="fill:#58c57a"/><path d="m254.128 402.731 1.847-2.942 3.46-1.403 4.071-7.027c.324-.56.399-1.229.205-1.847l-1.74-5.556-4.36-2.736-5.76.849a2.304 2.304 0 0 0-1.573.988l-4.558 6.721.241 3.726-1.846 2.943-3.725 1.763-9.224 14.84a2.385 2.385 0 0 0 .758 3.279l9.601 6.026a2.385 2.385 0 0 0 3.282-.743l9.353-14.759-.032-4.121Z" style="fill:#fff;opacity:.6"/><path d="M255.976 399.914a.116.116 0 0 1-.066-.02l-10.014-6.285a.125.125 0 1 1 .132-.211l10.014 6.285a.124.124 0 0 1 .039.172.123.123 0 0 1-.105.059ZM259.511 398.452a.116.116 0 0 1-.066-.02l-13.632-8.556a.125.125 0 1 1 .132-.211l13.632 8.556a.124.124 0 0 1 .039.172.123.123 0 0 1-.105.059ZM254.37 406.643a.116.116 0 0 1-.066-.02l-13.632-8.556a.125.125 0 1 1 .132-.211l13.632 8.556a.124.124 0 0 1 .039.172.123.123 0 0 1-.105.059ZM254.128 402.858a.116.116 0 0 1-.066-.02l-10.014-6.285a.125.125 0 1 1 .132-.211l10.014 6.285a.124.124 0 0 1 .039.172.123.123 0 0 1-.105.059Z" style="fill:#263238"/><path d="M234.252 406.852h16.201v6.942h-16.201z" style="fill:#58c57a" transform="rotate(32.113 242.354 410.325)"/><path d="M257.789 378.583h5.919v4.458h-5.919z" style="fill:#263238" transform="rotate(32.114 260.747 380.806)"/><path d="M208.593 364.12h15.533v25.924h-15.533z" style="fill:#58c57a" transform="rotate(180 216.36 377.082)"/><rect width="16.431" height="1.299" x="208.123" y="362.821" rx=".406" ry=".406" style="fill:#e0e0e0" transform="rotate(180 216.338 363.471)"/><rect width="16.431" height="1.299" x="208.123" y="389.913" rx=".406" ry=".406" style="fill:#e0e0e0" transform="rotate(180 216.338 390.562)"/><path d="m208.593 368.216 15.533 8.478v10.22l-15.533-8.591v-10.107z" style="opacity:.3"/><path d="M203.915 390.616s-20.341 13.288-18.875 26.62c.405 3.681 2.528 9.313 5.561 14.989 2.319 4.339 10.925 11.296 10.925 11.296l66.155.581s5-3.518 6.666-11.851c1.666-8.333-8.595-35.559-8.595-35.559s1.965-1.661 0-3.333c-3.443-2.93-62.148-18.134-65.296-15.912-1.102.778-1.641 1.869-1.877 2.959-.431 1.992.191 4.069 1.5 5.631l3.836 4.578Z" style="fill:#263238"/><path d="M203.915 390.616s48.763 7.118 42.608 8.637c-6.155 1.519-45.38-6.437-45.38-6.437a48.268 48.268 0 0 1 2.772-2.2ZM203.196 429.208c3.945 2.356 8.623 3.111 13.191 3.604 16.121 1.738 26.764-1.329 43.398-7.152-17.689 2.561-38.783 5.09-56.59 3.548Z" style="opacity:.3"/><path d="m252.939 360.451 31.012 5.069 7.778-15.721c.282-.847 8.306-16.27 8.306-16.27l11.835 2.11s-10.434 40.883-17.976 47.228c-6.096 5.129-44.181-15.517-44.181-15.517l3.225-6.899Z" style="fill:#ffa665"/><path d="M244.397 355.771s-4.413-.295-4.847 1.37c-.457 1.751 1.484 2.893 1.484 2.893s-2.12 1.052-1.023 3.48l.938 1.189s-.94.078-.078 2.82 4.766 3.245 9.158 4.143c5.095 1.042 14.293-3.717 14.293-3.717s-6.529-8.418-8.331-9.906-11.595-2.272-11.595-2.272Z" style="fill:#ffa665"/><path d="M250.362 343.304c-.175.433-3.245-.399-6.858-1.858-3.613-1.459-6.4-2.992-6.226-3.425.175-.433 3.245.399 6.859 1.858 3.613 1.459 6.4 2.992 6.226 3.425Z" style="fill:#e0e0e0"/><path d="M235.504 344.615h15.174v25.325h-15.174z" style="fill:#58c57a"/><rect width="16.051" height="1.269" x="235.086" y="343.366" rx=".473" ry=".473" style="fill:#e0e0e0"/><rect width="16.051" height="1.269" x="235.086" y="369.832" rx=".473" ry=".473" style="fill:#e0e0e0"/><path d="M250.679 343.454h-15.175a.125.125 0 0 1 0-.25h15.175a.125.125 0 0 1 0 .25Z" style="fill:#263238"/><path d="m250.678 348.497-15.174 8.283v9.983l15.174-8.392v-9.874z" style="opacity:.3"/><path d="M252.518 356.959c-1.996-.226-6.615 2.441-9.456 4.853-.336.285-.67.589-.881.977-.211.387-.279.878-.073 1.268.382.721 1.4.729 2.206.599 1.949-.314 3.716-1.089 5.544-1.834-.865 1.572-.572 3.885.508 5.318 1.08 1.433 3.033 2.146 4.782 1.747" style="fill:#ffa665"/><path d="M252.518 356.959c-1.824.027-3.433 1.078-4.986 1.924-1.8 1.203-3.91 2.343-5.191 4.095-.654 1.56 1.278 1.66 2.339 1.357 1.75-.331 3.414-1.043 5.095-1.717a.218.218 0 0 1 .285.12c-1.658 3.545.941 7.868 5.088 7.147-4.049 1.084-7.346-3.545-5.482-7.17l.274.308c-1.667.689-3.348 1.435-5.164 1.801-.919.163-2.094.362-2.785-.511-.651-.964.131-2.057.875-2.624 2.773-2.11 6.06-4.599 9.653-4.73Z" style="fill:#ff773b"/><path d="m283.952 358.194 30.311 11.276s13.006-29.319 11.683-35.933c-1.323-6.613-3.968-10.14-8.377-11.243-4.409-1.102-15.548-2.523-20.849 9.046-4.065 8.873-12.769 26.853-12.769 26.853Z" style="fill:#58c57a"/><path d="M304.339 341.936a.247.247 0 0 1-.187-.084c-.546-.614-1.457-1.477-2.338-2.31-.886-.838-1.803-1.704-2.361-2.334a.25.25 0 1 1 .374-.332c.545.613 1.454 1.473 2.332 2.303.889.841 1.808 1.71 2.367 2.341a.249.249 0 0 1-.187.416Z" style="fill:#263238"/><path d="m291.808 427.639 6.064.071c2.933 5.081 4.963 3.884 8.073.3 1.761-.184 2.21 1.839 2.347 2.383l3.155 12.029a1.885 1.885 0 0 1-1.871 2.382l-14.553-.171-20.382-.239c-5.556-.065-6.642-5.678-4.347-6.169 10.319-2.153 17.642-5.096 20.858-8.053.596-.517-.005-.916.655-2.533Z" style="fill:#58c57a"/><path d="M292.424 433.712a.249.249 0 0 1-.213-.119 5.079 5.079 0 0 0-3.541-2.34.25.25 0 0 1-.21-.284.243.243 0 0 1 .284-.21 5.582 5.582 0 0 1 3.893 2.572.251.251 0 0 1-.213.381ZM289.659 435.742a.249.249 0 0 1-.213-.119 5.079 5.079 0 0 0-3.541-2.34c-.137-.021-.23-.147-.21-.284s.139-.231.284-.21a5.58 5.58 0 0 1 3.893 2.572.251.251 0 0 1-.213.381ZM286.229 437.437a.249.249 0 0 1-.213-.119 5.068 5.068 0 0 0-3.54-2.339.25.25 0 0 1-.21-.283.245.245 0 0 1 .284-.211 5.57 5.57 0 0 1 3.892 2.571.251.251 0 0 1-.213.381Z" style="fill:#263238"/><path d="M310.126 444.739a1.886 1.886 0 0 1-.549.066l-14.553-.171-20.383-.239c-3.007-.035-4.694-1.695-5.255-3.288.846.016 41.346.806 41.882.632l.215.897a1.88 1.88 0 0 1-1.357 2.104Z" style="fill:#fff;opacity:.7"/><path d="M361.168 365.042s-45.608-22.622-54.482-23.293-17.319 3.223-19.015 21.597c-1.696 18.374 1.696 65.628 1.696 65.628l24.583.422-1.888-43.18s24.513 19.532 25.643 19.25c1.131-.283 34.487-4.24 34.487-4.24l-11.025-36.183Z" style="fill:#263238"/><path d="M361.168 365.042s-45.608-22.622-54.482-23.293-17.319 3.223-19.015 21.597c-1.696 18.374 1.696 65.628 1.696 65.628l24.583.422-1.888-43.18s24.513 19.532 25.643 19.25c1.131-.283 34.487-4.24 34.487-4.24l-11.025-36.183Z" style="opacity:.4"/><path d="m366.918 439.316-4.518-16.425c15.793-1.71 26.344 2.179 33.686-1.287l6.612 5.503-4.367 8.196s-11.642 3.956-31.412 4.014Z" style="fill:#ffa665"/><path d="m388.115 439.433-1.755-6.204c4.296-4.522 2.464-6.231-2.127-8.321-.719-1.74 1.209-2.808 1.722-3.111l11.313-6.843a2.005 2.005 0 0 1 2.992 1.19l4.212 14.889 5.899 20.853c1.608 5.684-3.787 8.483-4.98 6.292-5.305-9.871-10.513-16.451-14.497-18.839-.707-.452-.933.282-2.78.095Z" style="fill:#58c57a"/><path d="M392.482 441.83a.25.25 0 0 1-.247-.215 5.909 5.909 0 0 1 1.445-4.73.25.25 0 1 1 .372.334 5.408 5.408 0 0 0-1.322 4.326.248.248 0 0 1-.247.285ZM395.386 444.037a.25.25 0 0 1-.247-.215 5.914 5.914 0 0 1 1.445-4.731.25.25 0 1 1 .372.334 5.41 5.41 0 0 0-1.322 4.327.248.248 0 0 1-.247.285ZM398.147 447.023a.25.25 0 0 1-.247-.215 5.914 5.914 0 0 1 1.445-4.731.25.25 0 1 1 .372.334 5.41 5.41 0 0 0-1.322 4.327.248.248 0 0 1-.247.285Z" style="fill:#263238"/><path d="M400.028 415.604c.104.168.182.349.232.54l4.212 14.889 5.899 20.853c.87 3.076-.313 5.296-1.769 6.349-.238-.868-11.64-42.396-11.979-42.89l.849-.49a1.998 1.998 0 0 1 2.554.75Z" style="fill:#fff;opacity:.7"/><path d="m397.371 372.54-22.095 6.715c-.697-.185-12.235 3.145-24.899 6.202-1.413.565-40.348 17.874-48.465 26.706-6.29 6.844-9.942 10.968-5.419 18.883 4.523 7.915 22.519 7.107 48.01 8.271 26.835 1.225 39.944 1.225 39.944 1.225l2.06-1.283-2.06-19.002s10.983-4.029 17.441-13.716c8.737-13.106-4.518-34.001-4.518-34.001Z" style="fill:#263238"/><path d="M384.448 420.256c-1.564.408-56.848-1.375-56.848-1.375s16.34 2.802 28.424 3.821c12.084 1.019 28.424-2.447 28.424-2.447Z" style="opacity:.4"/><path d="M401.277 380.255c-15.193-4.492-24.758 4.497-39.98 8.888-5.7 1.644-12.538.404-13.518-.221-6.667-4.251-17.987-21.053-17.987-21.053l-30.433-40.839 16.234-14.903s14.04-6.875 23.279-4.745c15.129 3.488 41.073 39.002 46.926 45.344 6.9 7.478 19.074 19.814 15.481 27.529" style="fill:#58c57a"/><path d="M350.037 325.8s-1.638 16.659-9.485 33.825c-3.169 6.932-6.089 14.78-6.089 14.78l-4.552-6.359 20.126-42.246Z" style="opacity:.4"/><path d="M318.941 310.397s-3.268-1.544-5.495-14.616c-.006-.012-.74.012-.746 0a78.464 78.464 0 0 1-.71-5.049c-.007-.042-.014-.055-.014-.055l-10.987 17.281c2.143 3.487 4.257 11.207 4.92 14.578 0 0 .643 6.376 7.964 3.124 5.349-2.376 5.068-15.264 5.068-15.264Z" style="fill:#ffa665"/><path d="m303.142 312.737 8.113-5.897c.54 3.203-.333 7.731-6.481 11.043-.024.152-1.058-3.387-1.631-5.147Z" style="opacity:.2"/><path d="M319.754 285.933c-1.146 11.047-1.57 17.3-7.411 22.698-8.787 8.119-21.952 2.609-24.135-8.591-1.965-10.081.24-26.453 11.284-30.299 10.881-3.79 21.41 5.145 20.263 16.192Z" style="fill:#ffa665"/><path d="M318.294 270.114c-3.588-6.983-14.032-4.082-18.435-1.143-.658.439 8.21 5.372 7.669 5.148l2.413 3.199c.427-.076.357 3.798.279 7.149a16.917 16.917 0 0 0 2.215 8.782c1.278 2.241 3.052 4.983 5.205 7.376 3.946-1.723 4.455-8.444 5.843-12.4 2.068-5.895 4.604-17.245-5.191-18.112Z" style="fill:#263238"/><path d="M322.841 295.585c-1.005 2.815-3.222 4.889-5.465 5.888-3.374 1.503-4.454-2.163-3.994-5.639.414-3.129 1.492-6.916 5.108-6.953 3.563-.036 5.501 3.487 4.351 6.704Z" style="fill:#ffa665"/><path d="M302.868 288.699c-.048 1.133-.687 2.021-1.429 1.982-.741-.038-1.304-.988-1.257-2.122.047-1.133.687-2.021 1.429-1.982.742.038 1.304.988 1.257 2.122ZM291.743 288.453c-.047 1.133-.687 2.021-1.429 1.983-.742-.039-1.304-.989-1.257-2.122.048-1.133.687-2.021 1.429-1.982.742.039 1.304.989 1.257 2.122Z" style="fill:#263238"/><path d="M295.386 287.976s-3.825 5.481-5.071 7.725c1.517 1.491 4.263.949 4.263.949l.809-8.674Z" style="fill:#ff773b"/><path d="M305.863 283.473a.534.534 0 0 1-.529-.097c-1.812-1.54-3.697-1.019-3.716-1.013a.538.538 0 0 1-.663-.361.527.527 0 0 1 .357-.656c.099-.029 2.461-.683 4.709 1.228a.528.528 0 0 1-.159.898ZM298.53 300.803c-.134 0-.27-.003-.409-.01a.376.376 0 0 1-.356-.394c.012-.206.149-.349.394-.356 1.59.078 2.783-.113 3.848-3.294a.368.368 0 0 1 .475-.236.375.375 0 0 1 .236.475c-1.035 3.095-2.337 3.815-4.187 3.815Z" style="fill:#263238"/><path d="M315.243 295.771c-.013 0-.025 0-.039-.003a.25.25 0 0 1-.208-.286 5.782 5.782 0 0 1 1.199-2.718c.426-.53 1.134-1.202 2.095-1.396.938-.193 1.913.187 2.363.918a.25.25 0 0 1-.426.262c-.337-.546-1.111-.837-1.838-.689-.814.164-1.431.754-1.804 1.219a5.288 5.288 0 0 0-1.096 2.483.25.25 0 0 1-.247.211Z" style="opacity:.2"/><path d="M287.04 283.462a.534.534 0 0 1-.226-.912c2.171-1.966 4.529-1.336 4.638-1.321.282.077.452.37.378.653a.525.525 0 0 1-.642.377c-.097-.03-1.92-.492-3.663 1.086a.524.524 0 0 1-.486.118ZM318.294 270.114s-4.67-9.715-16.719-9.724c-9.692-.007-16.068 5.576-17.766 11.959-.729 2.743-.603 4.942-.22 6.558.289 1.221 1.897 1.428 2.524.342.178-.308.375-.607.59-.893.02.081.043.162.068.241.404 1.279 2.28 1.287 2.616-.011.106-.41.251-.811.432-1.197l.011.033c.38 1.128 1.983 1.192 2.496.118 2.26-4.739 9.234-7.05 14.205-3.517l3.411 3.295c5.176-1.582 8.352-7.204 8.352-7.204Z" style="fill:#263238"/><path d="m323.799 327.227-22.081 43.142L265 404.108l5.371 7.607s31.203-18.141 41.986-28.655c10.783-10.514 24.69-30.853 24.69-30.853s11.872-13.635 8.465-25.103c-3.407-11.468-15.737-13.965-21.713.122Z" style="fill:#ffa665"/><path d="m307.793 348.639 25.184 14.539s21.174-32.386 21.022-39.141c-.152-6.755-10.84-11.311-14.998-13.167-4.157-1.856-12.441.919-17.099 9.515-4.658 8.596-14.108 28.253-14.108 28.253Z" style="fill:#58c57a"/><path d="M272.924 400.144s-3.076-2.821-6.521-2.632c-3.446.189-6.247-.577-8.799-.26-2.552.318.335 2.245 2.078 2.959 1.743.714 3.712 1.542 2.963 2.764-.748 1.222-11.562 7.142-12.406 8.955-.845 1.813 1.204 1.402 1.204 1.402s-2.587 1.508-2.269 2.696c.083.308.775.892 2.062.389 2.895-1.131 8.849-3.816 8.849-3.816-.345.147-7.457 3.987-8.447 4.701-1.294.933-1.428 2.033-.863 2.766.805 1.043 9.785-3.417 10.296-3.341 0 0-5.256 2.395-5.38 4.09s3.267.368 6.034-1.37c2.537-1.593 7.931-4.055 10.353-5.924 2.985-2.304 4.471-4.522 3.661-7.963-.81-3.442-2.814-5.417-2.814-5.417Z" style="fill:#ffa665"/><path d="M251.248 413.579a.125.125 0 0 1-.06-.234c.775-.426 1.637-.954 2.549-1.514 1.56-.957 3.174-1.947 4.569-2.556a.125.125 0 0 1 .1.228c-1.38.602-2.985 1.587-4.539 2.54-.914.561-1.778 1.091-2.558 1.52a.124.124 0 0 1-.061.016Z" style="opacity:.3"/><path d="M332.977 363.428a.254.254 0 0 1-.125-.033l-25.184-14.539a.25.25 0 0 1-.103-.319c2.597-5.765 11.729-25.498 20.203-37.381a.248.248 0 0 1 .349-.058.25.25 0 0 1 .058.349c-8.349 11.708-17.351 31.085-20.061 37.089l24.775 14.304 14.482-23.892a.253.253 0 0 1 .344-.084.251.251 0 0 1 .084.344l-14.609 24.101a.251.251 0 0 1-.214.12Z" style="fill:#263238"/><path d="M350.037 386.8s8.459.635 18.853-4.682c10.394-5.316 21.186-9.476 20.868-9.578-.317-.102-4.92-.34-18.768 7.14-10.34 5.586-20.953 7.12-20.953 7.12Z" style="opacity:.4"/><path d="M110.919 317.644s2.458 1.389 3.074 3.636c.616 2.246 1.704 3.884 2.047 5.584.343 1.7-1.365 1.416-2.193.447-.829-.97-1.918-3.228-2.538-2.497-.62.731-2.087 8.878-3.063 9.793-.977.915-1.153-.482-1.153-.482s-.343 1.824-1.236 2.009c-.893.185-1.023-1.03-1.023-1.03s-.273 1.216-1.111.915c-.838-.301-.182-7.78-.34-8.091 0 0 .209 4.534-.846 4.963-1.056.429-1.304-2.089-1.545-4.094-.241-2.004.241-4.419 1.008-6.32.957-2.371 3.471-6.387 5.841-6.578 2.37-.19 3.08 1.746 3.08 1.746Z" style="fill:#ffa665"/><path d="M141.913 284.371c-4.7 4.76-17.721 11.463-20.315 16.329-1.668 3.129-8.44 19.008-8.44 19.008l-7.398-2.607s4.738-19.526 7.744-24.341c3.007-4.815 16.182-16.039 21-18.255 9.169-4.217 11.964 5.657 7.408 9.867Z" style="fill:#ffa665"/><path d="M163.174 435.808c1.123.103 2.214 0 2.616-.433a.773.773 0 0 0 .072-.896 1.03 1.03 0 0 0-.618-.546c-1.411-.525-4.614.937-4.748 1.03a.197.197 0 0 0-.124.206.197.197 0 0 0 .144.175c.87.235 1.759.39 2.657.463Zm1.535-1.565c.134.009.265.037.391.082a.63.63 0 0 1 .381.319c.124.278.062.391 0 .463-.453.525-2.657.34-4.264 0a9.206 9.206 0 0 1 3.491-.865Z" style="fill:#58c57a"/><path d="M160.557 435.324h.093c1.092-.371 3.347-2.06 3.275-3.09 0-.237-.154-.546-.711-.649a1.522 1.522 0 0 0-1.184.247c-1.184.814-1.638 3.09-1.658 3.234a.23.23 0 0 0 .072.196.17.17 0 0 0 .113.062Zm2.451-3.337h.124c.371.072.381.227.381.268 0 .608-1.514 1.957-2.637 2.503a4.833 4.833 0 0 1 1.39-2.585c.216-.15.48-.216.741-.185Z" style="fill:#58c57a"/><path d="m150.021 438.949 8.714.793 5.314-20.771-12.451-1.236-1.577 21.214z" style="fill:#ffa665"/><path d="m159.744 434.026-9.516-.865a.771.771 0 0 0-.803.535l-2.42 7.591a1.278 1.278 0 0 0 1.112 1.669c3.44.247 6.457.33 10.783.721 5.047.453 3.708.937 9.619 1.565 3.574.371 4.593-3.636 3.09-3.965-6.849-1.504-7.384-3.656-9.825-6.385a3.084 3.084 0 0 0-2.039-.865Z" style="fill:#263238"/><path d="M95.662 409.967c.628.937 1.37 1.741 1.988 1.761a.794.794 0 0 0 .742-.525 1.027 1.027 0 0 0 0-.824c-.494-1.421-3.656-2.966-3.79-3.028a.206.206 0 0 0-.237 0 .226.226 0 0 0-.051.237c.375.833.827 1.63 1.349 2.379Zm2.184.196c.078.108.14.226.185.35a.65.65 0 0 1 0 .505c-.134.268-.268.299-.361.288-.69 0-1.947-1.833-2.678-3.306a9.287 9.287 0 0 1 2.853 2.173v-.01Z" style="fill:#58c57a"/><path d="m94.334 407.65.062.062c1.03.608 3.739 1.267 4.459.577.175-.165.319-.463 0-.968a1.505 1.505 0 0 0-.937-.752c-1.38-.402-3.461.731-3.553.783a.217.217 0 0 0-.103.175.219.219 0 0 0 .072.124Zm4.12-.237.062.103c.175.33.072.433 0 .474-.443.412-2.472.072-3.615-.453a4.909 4.909 0 0 1 2.884-.566c.287.052.545.21.721.443h-.052Z" style="fill:#58c57a"/><path d="m84.869 401.82 4.933 7.23 18.566-8.754-6.362-10.45-17.137 11.974z" style="fill:#ffa665"/><path d="m94.849 406.198-5.387-7.9a.763.763 0 0 0-.917-.278l-7.405 2.966a1.278 1.278 0 0 0-.577 1.916c1.998 2.812 4.975 6.818 7.416 10.392 2.863 4.192.762 1.607 4.12 6.52 2.06 2.966 5.593 1.741 5.016.309-2.626-6.499-2.183-8.239-1.638-11.803a3.027 3.027 0 0 0-.628-2.121ZM179.034 325.648a236.919 236.919 0 0 1-1.153 48.221c-3.491 27.561-13.093 56.04-13.093 56.04l-16.587-1.801s2.488-26.121 6.631-53.786c1.967-29.672-6.488-51.496-6.488-51.496l30.691 2.822Z" style="fill:#263238"/><path d="M153.451 337.389c7.621 2.389 4.696 15.243 1.627 23.863a137.73 137.73 0 0 0-2.75-23.873l1.123.01Z" style="isolation:isolate;opacity:.3"/><path d="M162.494 324.144s-6.416 25.748-18.6 48.283c-13.337 24.718-40.239 32.545-40.239 32.545l-8.363-12.678s17.653-13.193 26.407-28.364c8.064-28.488 10.742-42.505 10.742-42.505l30.053 2.719Z" style="fill:#263238"/><path d="M179.328 277.135c.484 8.239 1.325 32.577 2.196 60.728l-53.628-4.078c.299-6.612 8.929-28.961 6.839-58.705a8.043 8.043 0 0 1 7.714-8.652 96.884 96.884 0 0 1 7.333 0c6.629.2 13.242.777 19.805 1.73 2.523.463 4.974 1.081 7.076 1.679 3.947 1.096 2.431 3.208 2.666 7.297Z" style="fill:#58c57a"/><path d="M135.002 287.326a138.262 138.262 0 0 1-1.03 14.172c5.52-5.52 6.18-14.172 6.18-14.172h-5.15Z" style="isolation:isolate;opacity:.3"/><path d="M140.914 266.563c-7.62.513-21.762 17.694-21.762 17.694l10.948 17.694s7.158-7.869 14.017-16.242c6.705-8.198 5.881-19.758-3.203-19.146Z" style="fill:#58c57a"/><path d="M166.273 267.154c-1.332-1.507-1.191-4.583-1.061-6.59a12.488 12.488 0 0 1 1.456-5.081l-5.836-.291-8.703-1.073c1.347 1.507-.565 2.633.231 4.49.816 3.97-.542 5.505-1.172 7.856 0 0 7.777 7.302 14.49 4.811 3.275-1.216.594-4.122.594-4.122Z" style="fill:#ffa665"/><path d="m165.968 257.658-5.171-.01-10.535-.33c1.347 1.507 6.359 7.569 14.993 7.12a20.896 20.896 0 0 1-.151-1.866c.117-1.778.022-3.344.865-4.914Z" style="isolation:isolate;opacity:.2"/><path d="M171.317 222.386s12.326 10.118-1.35 21.103c-15.456 12.431 1.35-21.103 1.35-21.103Z" style="fill:#263238"/><path d="M141.722 239.264c.736 9.51 6.07 20.017 13.946 21.434 14.466 2.614 20.11-.149 21.706-10.923 1.469-9.654-1.977-24.931-13.933-27.737-11.956-2.806-22.688 4.043-21.719 17.226Z" style="fill:#ffa665"/><path d="M172.764 228.714a26.26 26.26 0 0 1-14.006.866s-5.791.944-4.517 7.458-3.492 12.589-3.768 21.214c0 0-12.977-7.424-9.734-20.237-7.119-12.954 7.42-21.363 19.694-21.138 10.271.19 17.536 7.581 12.331 11.837Z" style="fill:#263238"/><path d="M163.2 241.913c.041 1.205.728 2.175 1.556 2.133.828-.042 1.385-1.043 1.334-2.25-.051-1.207-.733-2.155-1.553-2.142-.82.012-1.387 1.053-1.337 2.26ZM172.839 241.042c.043 1.153.701 2.074 1.455 2.034.754-.04 1.301-1.001 1.287-2.147-.014-1.145-.703-2.064-1.462-2.046-.759.017-1.323 1.006-1.28 2.159ZM166.428 235.7a.583.583 0 0 0 .176-.28.549.549 0 0 0-.461-.62 5.344 5.344 0 0 0-4.739 1.503.539.539 0 0 0 .046.76l.01.009a.57.57 0 0 0 .769-.057 4.275 4.275 0 0 1 3.797-1.134.587.587 0 0 0 .402-.181ZM175.817 235.814a.676.676 0 0 0 .294-.167.558.558 0 0 0-.109-.771 5.373 5.373 0 0 0-4.887-.933.56.56 0 0 0-.325.704.58.58 0 0 0 .703.325 4.244 4.244 0 0 1 3.867.822.62.62 0 0 0 .456.021Z" style="fill:#263238"/><path d="m170.724 242.984.3 5.314a6.546 6.546 0 0 0 3.615-1.327 15.619 15.619 0 0 1-3.915-3.987Z" style="fill:#ff773b"/><path d="M152.439 245.015s-2.628-5.799-5.602-3.901c-2.974 1.898-2.199 11.627 2.314 11.554 4.513-.073 5.376-4.558 3.288-7.653Z" style="fill:#ffa665"/><path d="M171.259 250.595a30.85 30.85 0 0 0-2.031 3.886l-.748-.189c-3.397-.86-4.631-2.398-5.063-3.837a4.507 4.507 0 0 1-.033-2.104c.08-.402.217-.791.407-1.154 1.518 1.536 4.581 2.595 6.297 3.102.746.199 1.171.297 1.171.297Z" style="fill:#263238"/><path d="m170.115 250.274-.622 1.131c-3.2-.81-5.335-1.853-6.082-3.079.08-.402.217-.791.407-1.154 1.518 1.536 4.621 2.605 6.297 3.102Z" style="fill:#fff"/><path d="M168.5 254.296c-3.397-.86-4.631-2.398-5.063-3.837 1.28.364 2.487.949 3.564 1.73a4.27 4.27 0 0 1 1.499 2.108Z" style="fill:#f54948"/><path d="M152.009 218.594a4.747 4.747 0 0 1 3.482-2.696 4.744 4.744 0 0 1 4.172 1.409c.111-1.337 1.165-2.461 2.401-2.981 1.237-.521 2.628-.531 3.963-.398 1.744.174 3.513.601 4.939 1.619 1.426 1.018 2.455 2.717 2.31 4.464 1.347-.509 2.969.325 3.567 1.635.598 1.31.283 2.916-.557 4.086-.84 1.17-2.132 1.948-3.485 2.442-3.071 1.121-6.616.866-9.494-.684.56.75.43 1.862-.118 2.621-.548.759-1.428 1.213-2.322 1.489-3.16.974-6.859-.15-8.943-2.718" style="fill:#263238"/><path d="M147.084 225.792c-.224 2.085 1.921 3.687 3.775 4.012 1.867.328 4.033-.82 3.925-2.933l-.737.1c.782 2.025 3.15 3.004 5.075 1.882s2.238-3.666.861-5.343c-.306-.373-.834.16-.53.53 1.08 1.315.764 3.297-.709 4.165s-3.365.142-3.973-1.434c-.141-.366-.76-.355-.737.1.093 1.823-1.897 2.528-3.391 2.116-1.407-.388-2.984-1.577-2.809-3.195.052-.479-.699-.476-.75 0Z" style="opacity:.3"/><path d="m215.837 299.822-20.653 3.376-5.18-10.47c-.188-.564-5.532-10.835-5.532-10.835l-7.882 1.405s6.949 27.226 11.971 31.452c4.06 3.416 29.423-10.334 29.423-10.334l-2.148-4.594Z" style="fill:#ffa665"/><path d="M221.094 294.937s3.454-.23 3.793 1.072c.357 1.37-1.162 2.264-1.162 2.264s1.659.823.8 2.724l-.734.93s.736.061.061 2.207c-.674 2.146-3.73 2.539-7.167 3.242-3.987.816-6.873-3.733-6.873-3.733s.797-5.763 2.207-6.928c1.41-1.165 9.074-1.778 9.074-1.778Z" style="fill:#ffa665"/><path d="M228.558 301.994v-3.474l2.185-3.028-.287-8.116a2.308 2.308 0 0 0-.808-1.673l-4.427-3.781h-5.147l-4.427 3.781a2.308 2.308 0 0 0-.808 1.673l-.287 8.116 2.184 3.028v3.474l-2.217 3.473.076 17.473a2.385 2.385 0 0 0 2.385 2.374h11.335a2.385 2.385 0 0 0 2.385-2.374l.076-17.473-2.218-3.473Z" style="fill:#58c57a"/><path d="M228.558 301.994v-3.474l2.185-3.028-.287-8.116a2.308 2.308 0 0 0-.808-1.673l-4.427-3.781h-5.147l-4.427 3.781a2.308 2.308 0 0 0-.808 1.673l-.287 8.116 2.184 3.028v3.474l-2.217 3.473.076 17.473a2.385 2.385 0 0 0 2.385 2.374h11.335a2.385 2.385 0 0 0 2.385-2.374l.076-17.473-2.218-3.473Z" style="fill:#fff;opacity:.6"/><path d="M228.559 298.646h-11.823a.125.125 0 0 1 0-.25h11.823a.125.125 0 0 1 0 .25ZM230.776 295.528h-16.095a.125.125 0 0 1 0-.25h16.095a.125.125 0 0 1 0 .25ZM230.776 305.198h-16.095a.125.125 0 0 1 0-.25h16.095a.125.125 0 0 1 0 .25ZM228.559 302.122h-11.823a.125.125 0 0 1 0-.25h11.823a.125.125 0 0 1 0 .25Z" style="fill:#263238"/><path d="M214.519 311.213h16.201v6.942h-16.201z" style="fill:#58c57a"/><path d="M219.554 277.681h5.919v4.458h-5.919z" style="fill:#263238"/><path d="M214.587 296.601c1.409-.16 4.67 1.723 6.676 3.426.237.201.473.416.622.689.149.273.197.62.051.895-.27.509-.988.514-1.557.423-1.376-.222-2.704-.935-3.995-1.46.611 1.11.485 2.908-.277 3.92s-2.141 1.515-3.376 1.233" style="fill:#ffa665"/><path d="M214.587 296.601c2.589.127 4.83 1.91 6.828 3.427.514.391 1.024 1.199.5 1.808-.526.526-1.315.371-1.952.242-1.283-.302-2.432-.924-3.615-1.415l.12-.135c1.311 2.613-.716 5.922-3.738 5.199 2.914.583 4.861-2.634 3.569-5.107-.045-.076.04-.17.12-.135 1.201.479 2.354 1.079 3.597 1.352.591.128 1.317.252 1.73-.151.425-.493-.025-1.16-.461-1.509-1.958-1.529-4.155-3.315-6.698-3.576Z" style="fill:#ff773b"/><path d="M187.927 279.595c-3.844-9.628-11.265-9.757-11.265-9.757l-2.355 20.001 5.746 17.389 13.617-7.501s-1.899-10.505-5.743-20.132Z" style="fill:#58c57a"/><path d="m180.558 306.951-.802-20.737s5.121 12.647.802 20.737Z" style="isolation:isolate;opacity:.3"/><path d="M59.037 433.999h-3.474l-3.028-2.185-8.116.287a2.308 2.308 0 0 0-1.673.808l-3.78 4.427v5.147l3.78 4.427c.42.492 1.027.785 1.673.808l8.116.287 3.028-2.184h3.474l3.473 2.217 17.473-.076a2.385 2.385 0 0 0 2.374-2.385v-11.335a2.385 2.385 0 0 0-2.374-2.385l-17.473-.076-3.473 2.218Z" style="fill:#58c57a"/><path d="M59.037 433.999h-3.474l-3.028-2.185-8.116.287a2.308 2.308 0 0 0-1.673.808l-3.78 4.427v5.147l3.78 4.427c.42.492 1.027.785 1.673.808l8.116.287 3.028-2.184h3.474l3.473 2.217 17.473-.076a2.385 2.385 0 0 0 2.374-2.385v-11.335a2.385 2.385 0 0 0-2.374-2.385l-17.473-.076-3.473 2.218Z" style="fill:#fff;opacity:.6"/><path d="M55.563 445.946a.125.125 0 0 1-.125-.125v-11.823a.125.125 0 0 1 .25 0v11.823a.125.125 0 0 1-.125.125ZM52.446 448.001a.125.125 0 0 1-.125-.125v-16.095a.125.125 0 0 1 .25 0v16.095a.125.125 0 0 1-.125.125ZM62.116 448.001a.125.125 0 0 1-.125-.125v-16.095a.125.125 0 0 1 .25 0v16.095a.125.125 0 0 1-.125.125ZM59.04 445.946a.125.125 0 0 1-.125-.125v-11.823a.125.125 0 0 1 .25 0v11.823a.125.125 0 0 1-.125.125Z" style="fill:#263238"/><path d="M63.626 436.466h16.201v6.942H63.626z" style="fill:#58c57a" transform="rotate(-90 71.727 439.937)"/><path d="M33.993 437.815h5.919v4.458h-5.919z" style="fill:#263238" transform="rotate(-90 36.953 440.044)"/><path d="M282.628 231.345c-8.484-7.303-21.282-6.346-28.585 2.139-7.303 8.484-6.345 21.282 2.139 28.586 6.55 5.638 15.662 6.332 22.841 2.461l5.724 2.072-.212-6.429c.075-.084.158-.157.232-.243 7.303-8.484 6.345-21.282-2.139-28.585Z" style="fill:#58c57a"/><g style="opacity:.5"><path d="M282.628 231.345c-8.484-7.303-21.282-6.346-28.585 2.139-7.303 8.484-6.345 21.282 2.139 28.586 6.55 5.638 15.662 6.332 22.841 2.461l5.724 2.072-.212-6.429c.075-.084.158-.157.232-.243 7.303-8.484 6.345-21.282-2.139-28.585Z" style="fill:#fff"/></g><path d="m268.706 255.559-9.29-6.918 2.414-3.241 6.229 4.638 8.56-10.211 3.097 2.596-11.01 13.136z" style="fill:#fff"/></svg>