<svg xmlns="http://www.w3.org/2000/svg" viewBox="0 0 500 500"><path d="M257 67.15v5.2c0 1.64 1.15 2.3 2.57 1.48l23.82-13.73a5.68 5.68 0 0 0 2.61-4.45v-5.2c0-1.64-1.15-2.31-2.57-1.49L259.6 62.7a5.68 5.68 0 0 0-2.6 4.45ZM459.6 190.29l-20.94 12.09a5.68 5.68 0 0 0-2.57 4.45V212c0 1.64 1.15 2.3 2.57 1.48l20.94-12.09ZM454.58 218l5-2.89v-11.19l-5 2.9a5.68 5.68 0 0 0-2.57 4.45v5.2c-.01 1.64 1.15 2.3 2.57 1.53ZM74.41 212.89l-23.79 13.73a4.66 4.66 0 0 0-.9.72v10.74a2.58 2.58 0 0 0 .9-.32L74.41 224a5.68 5.68 0 0 0 2.59-4.43v-5.2c0-1.64-1.17-2.3-2.59-1.48ZM74.19 324.73 50.4 338.46a4.09 4.09 0 0 0-.68.52v10.89a2.35 2.35 0 0 0 .68-.27l23.79-13.74a5.68 5.68 0 0 0 2.57-4.45v-5.2c0-1.64-1.15-2.3-2.57-1.48ZM74.41 267.58l-23.79 13.74a4 4 0 0 0-.9.72v10.74a2.42 2.42 0 0 0 .9-.33l23.79-13.73a5.68 5.68 0 0 0 2.59-4.45v-5.2c0-1.64-1.17-2.31-2.59-1.49ZM338 87.37l-23.84 13.73a5.68 5.68 0 0 0-2.57 4.45v5.2c0 1.64 1.15 2.31 2.57 1.49L338 98.5a5.68 5.68 0 0 0 2.57-4.45v-5.2c-.05-1.64-1.2-2.3-2.57-1.48ZM353 65.09l-23.82 13.73a5.68 5.68 0 0 0-2.57 4.45v5.2c0 1.64 1.15 2.31 2.57 1.49L353 76.22a5.68 5.68 0 0 0 2.57-4.45v-5.2c-.03-1.64-1.18-2.3-2.57-1.48ZM183.19 231.26 159.4 245a5.68 5.68 0 0 0-2.57 4.45v5.2c0 1.64 1.15 2.3 2.57 1.48l23.79-13.73a5.68 5.68 0 0 0 2.57-4.45v-5.2c0-1.64-1.15-2.31-2.57-1.49ZM249.68 168.58v5.2c0 1.64 1.15 2.3 2.57 1.49L276 161.53a5.68 5.68 0 0 0 2.57-4.45v-5.2c0-1.64-1.15-2.3-2.57-1.48l-23.79 13.73a5.68 5.68 0 0 0-2.53 4.45ZM218.73 147.05v5.2c0 1.63 1.15 2.3 2.57 1.48L245.09 140a5.66 5.66 0 0 0 2.57-4.45v-5.2c0-1.64-1.15-2.3-2.57-1.48l-23.79 13.72a5.69 5.69 0 0 0-2.57 4.46ZM291.07 73.42l-23.79 13.73a5.69 5.69 0 0 0-2.57 4.46v5.2c0 1.63 1.15 2.3 2.57 1.48l23.79-13.74a5.68 5.68 0 0 0 2.57-4.45v-5.2c0-1.64-1.15-2.3-2.57-1.48ZM167.26 172.13l-23.79 13.73a5.69 5.69 0 0 0-2.57 4.45v5.2c0 1.64 1.15 2.31 2.57 1.49l23.79-13.74a5.68 5.68 0 0 0 2.57-4.45v-5.2c0-1.61-1.15-2.3-2.57-1.48ZM252.25 230 276 216.23a5.69 5.69 0 0 0 2.57-4.46v-5.2c0-1.63-1.15-2.3-2.57-1.48l-23.79 13.74a5.68 5.68 0 0 0-2.57 4.45v5.2c.04 1.64 1.19 2.3 2.61 1.52ZM81.57 287.37l23.79-13.73a5.68 5.68 0 0 0 2.57-4.45V264c0-1.64-1.15-2.3-2.57-1.49l-23.79 13.73a5.68 5.68 0 0 0-2.57 4.45v5.2c0 1.64 1.15 2.3 2.57 1.48ZM436.09 139.38v5.2c0 1.64 1.15 2.31 2.57 1.49L459.6 134v-11.16l-20.94 12.09a5.68 5.68 0 0 0-2.57 4.45ZM221.3 357.19l23.79-13.73a5.68 5.68 0 0 0 2.57-4.45v-5.2c0-1.64-1.15-2.31-2.57-1.49l-23.79 13.74a5.68 5.68 0 0 0-2.57 4.45v5.2c0 1.64 1.15 2.29 2.57 1.48ZM323.91 301l23.79-13.74a5.68 5.68 0 0 0 2.57-4.45v-5.2c0-1.64-1.15-2.3-2.57-1.48l-23.79 13.73a5.68 5.68 0 0 0-2.57 4.45v5.2c0 1.64 1.15 2.31 2.57 1.49ZM452.28 60.43v-5.2c0-1.64-1.15-2.3-2.57-1.48l-23.79 13.73a5.69 5.69 0 0 0-2.57 4.46v5.2c0 1.63 1.15 2.3 2.57 1.48l23.79-13.74a5.68 5.68 0 0 0 2.57-4.45ZM107.93 405.93v-5.2c0-1.64-1.15-2.31-2.57-1.49L81.57 413a5.68 5.68 0 0 0-2.57 4.43v5.2c0 1.64 1.15 2.3 2.57 1.48l23.79-13.73a5.68 5.68 0 0 0 2.57-4.45ZM156.83 58v5.2c0 1.63 1.15 2.3 2.57 1.48L183.19 51a5.68 5.68 0 0 0 2.57-4.45v-5.2c0-1.64-1.15-2.3-2.57-1.48L159.4 53.56a5.69 5.69 0 0 0-2.57 4.44ZM459.6 163.38l-20.94 12.09a5.68 5.68 0 0 0-2.57 4.45v5.2c0 1.64 1.15 2.31 2.57 1.49l20.94-12.1ZM59.38 247.93l-9.66 5.58v11.14l9.66-5.59a5.66 5.66 0 0 0 2.62-4.45v-5.2c0-1.64-1.2-2.3-2.62-1.48ZM97.5 401.21l23.79-13.74a5.68 5.68 0 0 0 2.57-4.45v-5.2c0-1.64-1.15-2.3-2.57-1.48L97.5 390.07a5.68 5.68 0 0 0-2.57 4.45v5.2c0 1.64 1.15 2.28 2.57 1.49ZM74.41 362.39l-23.79 13.73a4.66 4.66 0 0 0-.9.72v10.74a2.58 2.58 0 0 0 .9-.32l23.79-13.74a5.68 5.68 0 0 0 2.59-4.45v-5.2c0-1.64-1.17-2.3-2.59-1.48ZM187.78 79.93v5.2c0 1.64 1.15 2.3 2.57 1.48l23.79-13.73a5.68 5.68 0 0 0 2.57-4.45v-5.2c0-1.64-1.15-2.31-2.57-1.49l-23.79 13.74a5.68 5.68 0 0 0-2.57 4.45ZM59.38 165.89l-9.66 5.58v11.13l9.66-5.6a5.68 5.68 0 0 0 2.62-4.43v-5.2c0-1.64-1.2-2.3-2.62-1.48ZM105.36 125.77 81.57 139.5A5.68 5.68 0 0 0 79 144v5.2c0 1.64 1.15 2.3 2.57 1.49l23.79-13.74a5.68 5.68 0 0 0 2.57-4.45v-5.2c0-1.69-1.15-2.3-2.57-1.53ZM167.26 62.74l-23.79 13.73a5.68 5.68 0 0 0-2.57 4.45v5.2c0 1.64 1.15 2.31 2.57 1.49l23.79-13.74a5.68 5.68 0 0 0 2.57-4.45v-5.2c0-1.64-1.15-2.3-2.57-1.48ZM159.4 365.53l23.79-13.74a5.68 5.68 0 0 0 2.57-4.45v-5.2c0-1.64-1.15-2.3-2.57-1.48l-23.79 13.73a5.68 5.68 0 0 0-2.57 4.45V364c0 1.68 1.17 2.35 2.57 1.53ZM200.78 325.06v-5.2c0-1.64-1.15-2.3-2.57-1.48l-23.78 13.73a5.68 5.68 0 0 0-2.57 4.45v5.2c0 1.64 1.16 2.31 2.57 1.49l23.79-13.74a5.68 5.68 0 0 0 2.56-4.45ZM167.26 144.78l-23.79 13.74a5.66 5.66 0 0 0-2.57 4.48v5.2c0 1.64 1.15 2.3 2.57 1.48l23.79-13.73a5.69 5.69 0 0 0 2.57-4.46v-5.2c0-1.66-1.15-2.29-2.57-1.51ZM198.21 84.65l-23.78 13.74a5.68 5.68 0 0 0-2.57 4.45V108c0 1.64 1.16 2.3 2.57 1.48l23.79-13.73a5.69 5.69 0 0 0 2.57-4.46v-5.2c-.01-1.59-1.16-2.26-2.58-1.44ZM94.93 257.78V263c0 1.64 1.15 2.31 2.57 1.49l23.79-13.74a5.68 5.68 0 0 0 2.57-4.45v-5.2c0-1.64-1.15-2.3-2.57-1.48L97.5 253.33a5.68 5.68 0 0 0-2.57 4.45ZM427.23 120.13 451 106.4a5.69 5.69 0 0 0 2.57-4.45v-5.2c0-1.64-1.15-2.31-2.57-1.49L427.23 109a5.68 5.68 0 0 0-2.57 4.45v5.2c0 1.64 1.15 2.35 2.57 1.48ZM97.5 373.86l23.79-13.74a5.68 5.68 0 0 0 2.57-4.45v-5.2c0-1.64-1.15-2.3-2.57-1.48L97.5 362.72a5.69 5.69 0 0 0-2.57 4.45v5.21c0 1.62 1.15 2.3 2.57 1.48ZM152.24 276.45l-23.79 13.74a5.68 5.68 0 0 0-2.57 4.45v5.2c0 1.64 1.15 2.3 2.57 1.48l23.79-13.73a5.68 5.68 0 0 0 2.57-4.45v-5.2c0-1.64-1.15-2.31-2.57-1.49ZM187.78 204.26v5.2c0 1.64 1.15 2.31 2.57 1.49l23.79-13.74a5.68 5.68 0 0 0 2.57-4.45v-5.2c0-1.64-1.15-2.3-2.57-1.48l-23.79 13.73a5.68 5.68 0 0 0-2.57 4.45ZM326.05 127.1v5.2c0 1.64 1.15 2.3 2.57 1.48l23.79-13.73a5.69 5.69 0 0 0 2.59-4.45v-5.2c0-1.64-1.15-2.31-2.57-1.49l-23.79 13.74a5.68 5.68 0 0 0-2.59 4.45ZM387.47 42.67v5.2c0 1.64 1.15 2.3 2.57 1.48l23.79-13.73a5.68 5.68 0 0 0 2.57-4.45V26c0-1.64-1.15-2.31-2.57-1.49L390 38.22a5.68 5.68 0 0 0-2.53 4.45ZM330.22 168.46v-5.2c0-1.64-1.15-2.31-2.57-1.49l-23.79 13.74a5.68 5.68 0 0 0-2.57 4.45v5.2c0 1.64 1.15 2.3 2.57 1.48l23.79-13.73a5.69 5.69 0 0 0 2.57-4.45ZM361.17 150.62v-5.21c0-1.63-1.15-2.3-2.57-1.48l-23.79 13.74a5.68 5.68 0 0 0-2.57 4.45v5.2c0 1.64 1.15 2.3 2.57 1.48l23.79-13.73a5.69 5.69 0 0 0 2.57-4.45ZM260.12 133.93l-23.79 13.73a5.68 5.68 0 0 0-2.57 4.45v5.2c0 1.64 1.15 2.31 2.57 1.49l23.79-13.74a5.68 5.68 0 0 0 2.57-4.45v-5.2c0-1.64-1.15-2.3-2.57-1.48ZM200.78 243v-5.2c0-1.64-1.15-2.31-2.57-1.49l-23.78 13.74a5.68 5.68 0 0 0-2.57 4.45v5.2c0 1.64 1.16 2.3 2.57 1.48l23.79-13.73a5.69 5.69 0 0 0 2.56-4.45ZM406.09 217.52l23.79-13.74a5.7 5.7 0 0 0 2.57-4.45v-5.2c0-1.64-1.16-2.3-2.57-1.49l-23.79 13.74a5.68 5.68 0 0 0-2.57 4.45V216c0 1.67 1.15 2.33 2.57 1.52ZM416.47 226.45l-23.79 13.74a5.68 5.68 0 0 0-2.57 4.45v5.2c0 1.64 1.15 2.3 2.57 1.48l23.79-13.73a5.69 5.69 0 0 0 2.57-4.45v-5.2c-.04-1.64-1.15-2.31-2.57-1.49ZM249.68 281.05v-5.2c0-1.64-1.15-2.31-2.57-1.49l-23.79 13.74a5.68 5.68 0 0 0-2.57 4.45v5.2c0 1.64 1.15 2.3 2.57 1.48l23.79-13.73a5.68 5.68 0 0 0 2.57-4.45ZM231.74 361.91v-5.2c0-1.63-1.15-2.3-2.57-1.48L205.38 369a5.68 5.68 0 0 0-2.57 4.45v5.2c0 1.64 1.15 2.3 2.57 1.48l23.79-13.73a5.69 5.69 0 0 0 2.57-4.49ZM125.88 75.86v5.2c0 1.63 1.15 2.3 2.57 1.48l23.79-13.74a5.68 5.68 0 0 0 2.57-4.45v-5.2c0-1.64-1.15-2.3-2.57-1.48L128.45 71.4a5.69 5.69 0 0 0-2.57 4.46ZM169.83 397.6v-5.2c0-1.64-1.15-2.31-2.57-1.49l-23.79 13.74a5.68 5.68 0 0 0-2.57 4.45v5.2c0 1.64 1.15 2.3 2.57 1.48l23.79-13.73a5.69 5.69 0 0 0 2.57-4.45ZM59.38 439.36 49.72 445v11.13l9.66-5.58a5.68 5.68 0 0 0 2.62-4.5v-5.2c0-1.64-1.2-2.3-2.62-1.49ZM74.41 171l-23.79 13.69a4 4 0 0 0-.9.72v10.74a2.42 2.42 0 0 0 .9-.33l23.79-13.73a5.68 5.68 0 0 0 2.59-4.45v-5.2c0-1.64-1.17-2.31-2.59-1.44ZM190.35 347.69 214.14 334a5.68 5.68 0 0 0 2.57-4.45v-5.2c0-1.64-1.15-2.3-2.57-1.48l-23.79 13.73a5.68 5.68 0 0 0-2.57 4.45v5.2c0 1.59 1.15 2.26 2.57 1.44ZM447.42 143.48l-23.79 13.73a5.68 5.68 0 0 0-2.57 4.45v5.2c0 1.64 1.15 2.31 2.57 1.49l23.79-13.74a5.68 5.68 0 0 0 2.57-4.45V145c.01-1.68-1.15-2.34-2.57-1.52ZM229.17 66.81l-23.79 13.74a5.68 5.68 0 0 0-2.57 4.45v5.2c0 1.64 1.15 2.3 2.57 1.48L229.17 78a5.69 5.69 0 0 0 2.57-4.46v-5.2c0-1.68-1.15-2.34-2.57-1.53ZM345.3 33.86 321.51 47.6a5.68 5.68 0 0 0-2.57 4.45v5.2c0 1.64 1.15 2.3 2.57 1.48L345.3 45a5.68 5.68 0 0 0 2.57-4.45v-5.2c0-1.64-1.15-2.3-2.57-1.49ZM112.52 214.84l23.79-13.74a5.68 5.68 0 0 0 2.57-4.45v-5.2c0-1.64-1.15-2.3-2.57-1.48l-23.79 13.73a5.69 5.69 0 0 0-2.57 4.45v5.2c.05 1.65 1.15 2.31 2.57 1.49ZM231.74 279.87v-5.2c0-1.64-1.15-2.3-2.57-1.48l-23.79 13.73a5.68 5.68 0 0 0-2.57 4.45v5.2c0 1.64 1.15 2.31 2.57 1.49l23.79-13.74a5.68 5.68 0 0 0 2.57-4.45ZM276.54 304.37l23.79-13.73a5.69 5.69 0 0 0 2.57-4.45V281c0-1.64-1.15-2.31-2.57-1.49l-23.79 13.74a5.68 5.68 0 0 0-2.57 4.45v5.2c.03 1.63 1.15 2.29 2.57 1.47ZM317.93 263.9v-5.2c0-1.63-1.15-2.3-2.57-1.48L291.57 271a5.68 5.68 0 0 0-2.57 4.45v5.2c0 1.64 1.15 2.3 2.57 1.48l23.79-13.73a5.69 5.69 0 0 0 2.57-4.5ZM354.67 221v-5.2c0-1.64-1.15-2.31-2.57-1.49l-23.79 13.74a5.68 5.68 0 0 0-2.57 4.45v5.2c0 1.64 1.15 2.3 2.57 1.48l23.79-13.73a5.69 5.69 0 0 0 2.57-4.45ZM307.5 286.53l23.79-13.73a5.72 5.72 0 0 0 2.57-4.45v-5.21c0-1.63-1.16-2.3-2.57-1.48L307.5 275.4a5.68 5.68 0 0 0-2.57 4.45v5.2c0 1.64 1.15 2.3 2.57 1.48ZM336.72 219.82v-5.2c0-1.64-1.15-2.3-2.57-1.49l-23.79 13.74a5.68 5.68 0 0 0-2.57 4.45v5.2c0 1.64 1.15 2.3 2.57 1.48l23.79-13.73a5.68 5.68 0 0 0 2.57-4.45ZM319.79 191.08l23.79-13.73a5.72 5.72 0 0 0 2.57-4.45v-5.2c0-1.64-1.16-2.31-2.57-1.49L319.79 180a5.68 5.68 0 0 0-2.57 4.45v5.2c0 1.59 1.15 2.25 2.57 1.43ZM262.69 207.33v-5.2c0-1.63-1.15-2.3-2.57-1.48l-23.79 13.74a5.68 5.68 0 0 0-2.57 4.45V224c0 1.64 1.15 2.3 2.57 1.48l23.79-13.73a5.69 5.69 0 0 0 2.57-4.42ZM58.26 320.29l-8.54 4.93v11.14l8.54-4.94a5.68 5.68 0 0 0 2.57-4.42v-5.2c0-1.67-1.15-2.33-2.57-1.51ZM75.53 393.41l-23.79 13.74a5.52 5.52 0 0 0-2 2.33v8.81a1.65 1.65 0 0 0 2 0l23.79-13.73a5.68 5.68 0 0 0 2.57-4.45v-5.2c0-1.65-1.1-2.32-2.57-1.5ZM94.93 148.39v5.2c0 1.64 1.15 2.31 2.57 1.49l23.79-13.74a5.68 5.68 0 0 0 2.57-4.45v-5.2c0-1.64-1.15-2.3-2.57-1.48L97.5 143.94a5.68 5.68 0 0 0-2.57 4.45ZM459.6 217.63l-20.94 12.1a5.68 5.68 0 0 0-2.57 4.45v5.2c0 1.64 1.15 2.3 2.57 1.48l20.94-12.09Z" style="fill:#f0f0f0"/><path d="M51.82 473.03 459.4 237.71M51.82 473.56a.52.52 0 0 1-.46-.27.53.53 0 0 1 .2-.72l407.58-235.32a.53.53 0 0 1 .53.92L52.09 473.49a.52.52 0 0 1-.27.07ZM194 477.17a10 10 0 0 1-4.92-1.24l-38.63-22.3a6.19 6.19 0 0 1 0-11.06l43.48-25.1a10.31 10.31 0 0 1 9.84 0l38.62 22.29a6.2 6.2 0 0 1 0 11.06l-43.48 25.11a10 10 0 0 1-4.91 1.24ZM343.9 466.81c26.66 15.38 69.87 15.38 96.52 0s26.66-40.34 0-55.73-69.87-15.39-96.52 0-26.65 40.34 0 55.73Z" style="fill:#e0e0e0"/><path d="M255.31 39.58c0-.15 0-.3-.07-.44s0-.2-.07-.3a.25.25 0 0 0 0-.07 1.18 1.18 0 0 0-.07-.2.36.36 0 0 0 0-.11 1.47 1.47 0 0 0-.1-.22 2 2 0 0 0-.28-.44 1.07 1.07 0 0 0-.14-.16.75.75 0 0 0-.16-.15 1.85 1.85 0 0 0-.27-.19l-.16-.09a3.13 3.13 0 0 0-2.92.38l-149.55 86.23a8.81 8.81 0 0 0-3.08 3.26 4.25 4.25 0 0 0-.29.56c-.08.15-.15.3-.22.45a5.89 5.89 0 0 0-.24.58c-.08.2-.14.4-.2.6s-.08.29-.11.44a.19.19 0 0 0 0 .1c0 .13-.06.26-.08.39a2.34 2.34 0 0 0 0 .26v.35a5.4 5.4 0 0 0 0 .56v263.84a2.71 2.71 0 0 0 .09.41l.06.2a2 2 0 0 0 .1.26 2.37 2.37 0 0 0 .52.77l.16.16.11.07.16.09a2.51 2.51 0 0 0 .56.22h.52a4 4 0 0 0 2-.6L251 310.66a9.63 9.63 0 0 0 4.36-7.55v-263c-.03-.2-.04-.37-.05-.53Z" style="opacity:.1"/><path d="M264.69 44.92c0-.15 0-.3-.07-.44s0-.2-.07-.3a.25.25 0 0 0 0-.07 1.18 1.18 0 0 0-.07-.2.36.36 0 0 0 0-.11 1.47 1.47 0 0 0-.1-.22 2 2 0 0 0-.28-.44 1.07 1.07 0 0 0-.14-.16.75.75 0 0 0-.16-.15 1.85 1.85 0 0 0-.27-.19l-.16-.09c-.93-.55-3.27-1.9-3.95-2.29a3 3 0 0 0-3.05.31L106.82 126.8a8.92 8.92 0 0 0-3.09 3.26 8.61 8.61 0 0 0-.53 1.05c-.15.36-.29.72-.4 1.08l-.15.55a7.52 7.52 0 0 0-.19 1.61v263.73l.06.33a1.57 1.57 0 0 0 .08.31 3.33 3.33 0 0 0 .33.71 2.12 2.12 0 0 0 .49.54 1.51 1.51 0 0 0 .26.18l.75.43 1.32.77 1.36.78.38.22.11.07.16.09a2.51 2.51 0 0 0 .56.22h.52a4 4 0 0 0 2-.6L260.35 316a9.63 9.63 0 0 0 4.36-7.55v-263c0-.2-.01-.37-.02-.53Zm-134.22 88.42a2.91 2.91 0 0 1 0-.31v-.4a9.75 9.75 0 0 1 4.42-7.66l.31-.16a4.91 4.91 0 0 1 .74-.29h.14a5 5 0 0 1 .17 1.28 9.78 9.78 0 0 1-4.42 7.65 5 5 0 0 1-1.2.5 3.38 3.38 0 0 1-.16-.61Zm99.6-58.24a9.77 9.77 0 0 1 4.41-7.66 3.6 3.6 0 0 1 .39-.2l.22-.1.3-.11.29-.07a4.82 4.82 0 0 1 .16 1.26 9.75 9.75 0 0 1-4.42 7.66 4.35 4.35 0 0 1-1.19.49 4.9 4.9 0 0 1-.16-1.27Z" style="fill:#37474f"/><path d="M106.54 136.72v263a3.29 3.29 0 0 0 1 2.65l-3.83-2.21a3 3 0 0 1-1.28-2.81v-263a8.89 8.89 0 0 1 1.28-4.29l4.09 2.36a8.83 8.83 0 0 0-1.26 4.3Z" style="fill:#263238"/><path d="M264.69 44.92c0-.15 0-.3-.07-.44s0-.2-.07-.3a.25.25 0 0 0 0-.07 1.18 1.18 0 0 0-.07-.2.36.36 0 0 0 0-.11 1.47 1.47 0 0 0-.1-.22 2 2 0 0 0-.28-.44 1.07 1.07 0 0 0-.14-.16.75.75 0 0 0-.16-.15 1.85 1.85 0 0 0-.27-.19l-.16-.09a3.13 3.13 0 0 0-2.92.38L110.9 129.16a8.81 8.81 0 0 0-3.08 3.26 4.25 4.25 0 0 0-.29.56c-.08.15-.15.3-.22.45a5.89 5.89 0 0 0-.24.58c-.08.2-.14.4-.2.6s-.08.29-.11.44a.19.19 0 0 0 0 .1c0 .13-.06.26-.08.39a2.34 2.34 0 0 0 0 .26v.35a5.4 5.4 0 0 0 0 .56v263.84a2.71 2.71 0 0 0 .09.41l.06.2a2 2 0 0 0 .1.26 2.37 2.37 0 0 0 .52.77l.16.16.11.07.16.09a2.51 2.51 0 0 0 .56.22h.52a4 4 0 0 0 2-.6L260.35 316a9.63 9.63 0 0 0 4.36-7.55v-263c0-.2-.01-.37-.02-.53Zm-134.22 88.42a2.91 2.91 0 0 1 0-.31v-.4a9.75 9.75 0 0 1 4.42-7.66l.31-.16a4.91 4.91 0 0 1 .74-.29h.14a5 5 0 0 1 .17 1.28 9.78 9.78 0 0 1-4.42 7.65 5 5 0 0 1-1.2.5 3.38 3.38 0 0 1-.16-.61Zm99.6-58.24a9.77 9.77 0 0 1 4.41-7.66 3.6 3.6 0 0 1 .39-.2l.22-.1.3-.11.29-.07a4.82 4.82 0 0 1 .16 1.26 9.75 9.75 0 0 1-4.42 7.66 4.35 4.35 0 0 1-1.19.49 4.9 4.9 0 0 1-.16-1.27Z" style="fill:#455a64"/><path d="m109.09 351.76 153.07-88.37V79.83L109.09 168.2v183.56z" style="fill:#fff"/><path d="M135.15 124.81a4 4 0 0 1 .74-.29 4.91 4.91 0 0 0-.74.29Z" style="fill:#263238"/><path d="M139.26 127.53a9.78 9.78 0 0 1-4.42 7.65c-2 1.17-3.74.58-4.26-1.27a5 5 0 0 0 1.2-.5 9.78 9.78 0 0 0 4.42-7.65 5 5 0 0 0-.17-1.28h-.14c1.93-.48 3.37.65 3.37 3.05ZM235.68 67l-.29.07ZM238.9 70a9.75 9.75 0 0 1-4.42 7.66c-2 1.17-3.73.57-4.25-1.28a4.35 4.35 0 0 0 1.19-.49 9.75 9.75 0 0 0 4.42-7.66 4.82 4.82 0 0 0-.16-1.26c1.86-.48 3.22.68 3.22 3.03Z" style="fill:#263238"/><path d="M129.37 211a1.08 1.08 0 0 1-1.09-1.08v-36.61a1.08 1.08 0 0 1 .55-.94l27.5-15.88a1.08 1.08 0 1 1 1.08 1.88l-27 15.56v36a1.08 1.08 0 0 1-1.04 1.07ZM129.37 324.27a1 1 0 0 1-.54-.15 1.08 1.08 0 0 1-.55-.94v-36.59a1.09 1.09 0 0 1 2.17 0v34.71l25.88-14.93a1.08 1.08 0 0 1 1.48.39 1.09 1.09 0 0 1-.4 1.49l-27.5 15.87a1 1 0 0 1-.54.15ZM241.88 146a1.08 1.08 0 0 1-1.08-1.08v-34.69l-25.87 14.93a1.08 1.08 0 1 1-1.08-1.88l27.49-15.87a1.09 1.09 0 0 1 1.08 0 1.08 1.08 0 0 1 .55.94v36.59a1.08 1.08 0 0 1-1.09 1.06ZM214.39 275.18a1.07 1.07 0 0 1-.94-.54 1.08 1.08 0 0 1 .4-1.48l27-15.56v-36a1.09 1.09 0 0 1 2.17 0v36.59a1.08 1.08 0 0 1-.55.94L214.93 275a1.17 1.17 0 0 1-.54.18Z" style="fill:#32ad79"/><path d="M176.25 233.72Zm-3.73-42.79ZM225 235.46l7.38-4.26v-19.82h-.14l-6.91 4c-.35.2-.37.49-.37.84v8.71c0 .47.11.58.47.36.89-.55 1.79-1 2.69-1.57.41-.26.59-.22.58.39v3.58a.94.94 0 0 1-.54 1c-.92.5-1.83 1.06-2.75 1.57a.81.81 0 0 0-.45.85v4.35l-3.74 2.16v-24.89c-1 .57-1.9 1.11-2.81 1.62-1.1.63-.94.75-1-.72v-3.69l-3.74 2.16v-5c-1 .51-2 1.12-3 1.69-.73.42-.73.42-.73-.52v-3c0-1 0-1 .79-1.48l2.92-1.69v-5c-1.09.64-2.13 1.21-3.21 1.86-.38.24-.51.14-.5-.38v-3.29c0-1.09 0-1 .79-1.47l2.95-1.71v-4.41c0-.55-.16-.56-.52-.34-.91.56-1.83 1-2.74 1.6-.39.24-.5.12-.49-.39v-3.67c0-.52-.13-.59-.51-.36-.91.56-1.83 1.09-2.74 1.58a.9.9 0 0 0-.49 1v3.73a.76.76 0 0 1-.39.8c-1.11.62-2.22 1.26-3.33 1.89v-23.46c0-1.41 0-1.41-1.08-.79l-2.62 1.51v-5c1.1-.63 2.15-1.26 3.21-1.84a.92.92 0 0 0 .5-1v-8.63c0-.54-.12-.67-.53-.42-.84.52-1.68.94-2.52 1.48-.53.34-.73.29-.72-.5v-8.21c0-.65-.11-.82-.63-.51q-5 2.92-10 5.77a1.13 1.13 0 0 0-.65 1.23v8.25a1.14 1.14 0 0 1-.66 1.24c-.86.45-1.72 1-2.58 1.48-.38.23-.52.14-.51-.38v-3.52c0-.59-.11-.77-.58-.47-.88.55-1.76 1.05-2.63 1.52a.93.93 0 0 0-.54 1v3.66a1.5 1.5 0 0 1-.3.77c-1.13.69-2.26 1.33-3.45 2v-9.94c-1.2.69-2.33 1.33-3.46 2a1.45 1.45 0 0 0-.27.7v3.74a.9.9 0 0 1-.51 1c-.91.51-1.83 1.07-2.74 1.57a.92.92 0 0 0-.51 1v3.29c0 1.1 0 1 .79.56 2-1.18 4.09-2.37 6.14-3.53.18-.1.51-.07.51.06v4.59c-1.11.63-2.15 1.26-3.18 1.82a1 1 0 0 0-.56 1.08v4.29l3.72-2.12v5l-3.59 2.17v5c1.07-.61 2.14-1.21 3.21-1.85.4-.24.54-.18.53.38v4.29l3.88-2.17c0 1.66-.16 3.35-.06 4.95 2.31-1.33 4.56-2.65 6.86-3.94.18-.11.52-.07.53.06v4.59c-3.57 2.07-7.12 4.1-10.68 6.18-.21.12-.54.15-.54.67v4.61c1.1-.64 2.14-1.21 3.17-1.85.45-.27.62-.2.6.43v3.52c0 .64.15.69.6.43 2.1-1.24 4.2-2.43 6.3-3.66.42-.25.59-.2.58.41v3.5a1 1 0 0 1-.59 1.08c-.89.49-1.79 1.05-2.68 1.54a.86.86 0 0 0-.48.9v3.43a1.19 1.19 0 0 1-.67 1.32c-.84.43-1.68 1-2.52 1.43a1 1 0 0 0-.56 1.07v9.31l-3.74 2.16v4.3c0 .52.13.6.51.37 1.05-.63 2.11-1.23 3.22-1.87.15 3 0 6.16.06 9.2a1 1 0 0 1-.56 1.07c-1.07.59-2.15 1.23-3.22 1.86v4.21a1 1 0 0 1-.6 1.1c-.82.44-1.64 1-2.46 1.4-.59.28-.71.64-.69 1.35v4c1.08-.6 2.15-1.17 3.22-1.81.44-.27.55-.14.55.43v8.41a1.14 1.14 0 0 1-.63 1.24c-2.3 1.32-4.56 2.55-6.85 4v4.22c0 .55.12.67.53.42.89-.55 1.79-1 2.69-1.57.39-.24.55-.18.54.39v3.58a1 1 0 0 1-.54 1c-.91.5-1.83 1-2.74 1.59a1.42 1.42 0 0 0-.45.66v4.51l7.47-4.31v-4.15a1 1 0 0 1 .55-1.09c.91-.49 1.83-1 2.74-1.58.39-.24.51-.12.5.39v3.66c0 .45.07.63.45.4 2.2-1.29 4.39-2.55 6.58-3.8a.82.82 0 0 0 .44-.86v-3.65a1 1 0 0 1 .53-1c.9-.49 1.79-1 2.69-1.55.42-.26.53-.08.52.44v3.37c0 .74.15.81.68.51 3.53-2.11 7.05-4 10.58-6.18v-14c0-.64.1-1 .63-1.24.84-.43 1.68-1 2.52-1.43a1 1 0 0 0 .6-1.12v-3.65a.86.86 0 0 1 .47-.9c.94-.51 1.87-1.05 2.8-1.61.37-.23.47-.09.47.37v3.81c0 .45.12.54.44.34 1.12-.66 2.17-1.25 3.3-1.91v9.49a.71.71 0 0 1-.43.71c-.95.55-1.9 1.08-2.85 1.65-.37.22-.48.1-.47-.37v-3.66c0-.49-.08-.67-.49-.42-.91.56-1.82 1.09-2.74 1.59a1 1 0 0 0-.52 1v3.37c0 .71.14.85.67.52 1-.64 2-1.18 3.07-1.79v4.8l3.74-2.16v-3.65c0-1.4-.16-1.17.92-1.79 2-1.16 4-2.33 6-3.45a1.09 1.09 0 0 0 .61-1.19c-.15-5.51.81-4.3-3.32-2.25-.16.08-.44 0-.44-.16v-4.49c2.26-1.41 4.48-2.6 6.74-3.94.76-.44.76-.44.76-1.49-.13-1.33-.16-2.57-.05-3.97Zm-48.69-56.63v-5c1.25-.71 2.44-1.47 3.68-2.22 0-1.44.09-2.91.09-4.34a.81.81 0 0 1 .43-.86c1-.53 1.91-1.08 2.86-1.64.34-.2.44-.08.44.35v13.76a.89.89 0 0 1-.48.91c-.92.5-1.83 1-2.75 1.58-.38.23-.52.15-.51-.37v-4.29Zm6.93 10.94c-1 .56-2 1.18-3.05 1.78a2.76 2.76 0 0 1-.19-.55v-3.78a.86.86 0 0 1 .46-.91c.93-.5 1.86-1 2.79-1.61.39-.23.5-.08.49.41v3.57a1 1 0 0 1-.55 1.09Zm27.1 24.23 3.32-1.89v4.94c-1.19.69-2.33 1.36-3.48 2-.08 0-.23-.15-.23-.31v-4a.72.72 0 0 1 .39-.74Zm-7.49-15.62c1-.57 1.93-1.11 2.9-1.69.32-.19.46-.13.46.32v3.81a.84.84 0 0 1-.46.85c-.93.52-1.87 1-2.8 1.62-.4.24-.49.07-.49-.42v-4.14a2.57 2.57 0 0 1 .39-.34Zm-.38 10.74a.8.8 0 0 1 .46-.85c.48-.26.95-.54 1.43-.82s.95-.53 1.42-.82c.31-.19.43-.09.42.32v3.87a.76.76 0 0 1-.43.79c-1 .54-1.9 1.08-2.86 1.65-.32.2-.45.11-.44-.34.01-1.26.01-2.53 0-3.79Zm-3.74-28.94a.81.81 0 0 1-.43.85c-1 .54-1.94 1.1-2.9 1.67-.26.15-.41.15-.41-.26v-4.51c1.07-.62 2.14-1.22 3.21-1.86.38-.23.5-.13.49.39.02 1.26.03 2.54.04 3.73Zm-7.5 4.25a.92.92 0 0 1-.5 1c-.91.5-1.83 1-2.74 1.58-.39.23-.51.11-.5-.39v-8.63c0-.32 0-.65.34-.86L195 173v5c-1 .61-2.11 1.27-3.16 1.83a1.13 1.13 0 0 0-.64 1.25c.05 1.05.01 2.22.03 3.36ZM187.49 163a.91.91 0 0 1 .51-1c.78-.43 1.57-.9 2.36-1.35 1-.57.86-.36.86-1.69v-3.07a1 1 0 0 1 .53-1c.9-.49 1.79-1 2.69-1.55.42-.26.58-.18.57.42V158l3.72-2.15v4.61a1.36 1.36 0 0 1-.47.63c-2.31 1.36-4.63 2.65-6.94 4.14 0 1.44-.07 2.91-.07 4.33a.85.85 0 0 1-.47.91c-.92.5-1.83 1-2.74 1.58-.38.23-.53.16-.52-.36q-.01-4.36-.03-8.69Zm-7.42 68.51c1.14-.66 2.28-1.33 3.42-2 .09 0 .25.14.25.29v4.08a1 1 0 0 1-.26.56c-1.13.68-2.25 1.32-3.41 2Zm3.69 42.1a.88.88 0 0 1-.49.91c-.93.52-1.86 1.06-2.8 1.62-.32.19-.46.12-.45-.34v-3.9a1.43 1.43 0 0 1 .37-.71c1-.6 1.94-1.13 2.9-1.7.35-.21.44-.05.44.37.02 1.26.02 2.5.03 3.74Zm0-15a1.55 1.55 0 0 1-.29.76c-1.11.68-2.22 1.31-3.42 2V258c0-1.58 0-1.59 1.17-2.26l2.67-1.49a40.57 40.57 0 0 0-.15 4.38Zm3.09-6.12c-1 .52-2 1.15-3 1.73a30.71 30.71 0 0 1-.12-4.33c0-.47-.11-.59-.47-.37-.93.56-1.87 1.1-2.8 1.6-.15.09-.43 0-.44-.14v-4.55l2.89-1.66c.92-.54.84-.37.84-1.64v-8.81l2.44-1.41c1.29-.75 1.29-.75 1.29 1v17.32c.02.68-.11.99-.65 1.28Zm7.62 10.58c-4.09 2.12-3.11 3-3.22-2.51 0-.48-.12-.57-.47-.35-4.2 2.27-3.09 2.94-3.28-2.41a1 1 0 0 1 .58-1.07c2.31-1.31 4.62-2.66 6.94-4v9.25a1 1 0 0 1-.57 1.11Zm4.28-12.51-3.75 2.16v-9.39a.78.78 0 0 1 .42-.79c1-.54 1.94-1.1 2.91-1.67.25-.15.41-.16.41.25-.02 3.11-.01 6.23-.01 9.46Zm0-15.64a1 1 0 0 1-.53 1c-.89.48-1.79 1-2.68 1.55-.4.24-.56.19-.54-.38v-3.6c0-.54-.1-.67-.52-.42-.91.57-1.83 1-2.74 1.61-.37.22-.53.16-.52-.37v-3.73a.84.84 0 0 1 .49-.89c.95-.53 1.9-1.1 2.86-1.64a.75.75 0 0 0 .43-.78v-4.39c-2.31 1.2-4.61 2.62-6.92 3.95-.45.26-.61.18-.6-.44v-3.59a.91.91 0 0 1 .51-1c.89-.5 1.79-1 2.69-1.54a.93.93 0 0 0 .54-1c0-6.4.07-12.9-.06-19.26-1.06.62-2.08 1.18-3.1 1.81-.46.28-.6.16-.59-.45v-4.19l7.51-4.33v-4c0-1 0-1 .74-1.42s1.65-.92 2.47-1.43c.42-.26.53-.12.52.41v9.25l3.73-2.15v5.17a1.5 1.5 0 0 0-.35.09c-2.35 1.4-4.7 2.62-7.05 4.13v4.92l2.91-1.68c.79-.45.79-.45.79.57v14c2.32-1.35 4.6-2.64 6.92-4 .42-.25.58-.2.56.41v3.44a1.07 1.07 0 0 1-.61 1.18c-2.3 1.29-4.56 2.62-6.87 3.95-.01 3.12-.02 6.18 0 9.26Zm14.92 2.08c-3.55 2.06-7.07 4.08-10.62 6.15-.45.26-.59.19-.59-.43v-13.39a1.09 1.09 0 0 1 .63-1.17q5-2.84 10-5.76c.49-.29.62-.18.62.46-.05 4.73-.03 9.41-.04 14.14Zm-41.15-56Zm-21.94 72.5c-.37.22-.52.17-.52-.35v-8.69a1 1 0 0 1 .51-1q3.27-1.86 6.52-3.76c.39-.23.49-.1.49.4v4.35c2.29-1.32 4.58-2.66 6.87-3.95a1 1 0 0 0 .6-1.11v-4.19c-2.49 1.19-5 2.91-7.47 4.18v-4.3c0-.48-.12-.58-.47-.37-.92.55-1.83 1-2.74 1.6-.42.25-.54.13-.54-.41v-9.25c-2.31 1.34-4.58 2.63-6.89 4-.48.29-.64.17-.62-.48v-3.44a1 1 0 0 1 .59-1.12c3.55-2.06 7.1-4 10.65-6.19v-9.43c0-.41-.17-.39-.42-.24-1 .56-1.94 1.13-2.91 1.67a.77.77 0 0 0-.41.8v4.43l-2.48 1.44c-1.29.74-1.29.74-1.29-1v-3.26c-1.1.64-2.1 1.25-3.1 1.78-.53.27-.65.6-.65 1.24 0 3 .07 6 0 9.12l-7.37 4.26c-.11 1.54 0 2.89-.06 4.39 0 .58.16.61.55.37.92-.55 1.83-1 2.75-1.59.33-.2.45-.1.45.34v3.73a.9.9 0 0 1-.53.95c-.87.49-1.75 1-2.63 1.5a1.06 1.06 0 0 0-.59 1.13c0 3-.05 6.14 0 9.15 1.1-.63 2.14-1.25 3.23-1.84.15-.09.43 0 .43.08v4.67l-3.66 2.11v5c1.1-.64 2.14-1.22 3.18-1.85.39-.23.51-.12.5.38v3.74c0 .43.11.55.45.35q1.42-.85 2.85-1.65a.85.85 0 0 0 .44-.87v-4.35l3.67-2.12c.05 1.4 0 2.81 0 4.24 0 .49.09.66.49.42.94-.57 1.87-1.11 2.8-1.62a.89.89 0 0 0 .5-1v-4.3c-.99.66-2.08 1.27-3.17 1.91Zm-4.25 2.44c-1.19.69-2.31 1.35-3.44 2-.09 0-.27-.11-.27-.25v-4.54c1.19-.69 2.29-1.33 3.38-1.93.12-.07.32.07.33.22.01 1.43 0 2.92 0 4.5Zm3.23-16.84c-.75.41-1.5.85-2.25 1.29-1.09.65-1 .39-1 1.84v3.06a.88.88 0 0 1-.48.92c-.93.52-1.86 1-2.79 1.61-.36.22-.47.09-.47-.37v-8.55a1 1 0 0 1 .55-1.09c2.13-1.2 4.27-2.44 6.4-3.69.37-.22.53-.17.52.36v3.65a.92.92 0 0 1-.48.97Zm57.36-63 25.46-14.7v-33.92c0-1 0-1-.77-.58l-24.69 14.25c-.72.41-.72.42-.72 1.37v33c0 .95 0 .95.72.54Zm3.65-32.1q8.7-5 17.39-10c.58-.33.7-.13.69.58v23.11a1.19 1.19 0 0 1-.68 1.29q-8.7 5-17.39 10c-.49.28-.66.22-.66-.47v-23.26a1.16 1.16 0 0 1 .65-1.25Zm-71 71q12.41-7.18 24.8-14.33c.72-.41.72-.41.72-1.37v-33c0-.95 0-.95-.72-.54-8.48 4.93-17 9.72-25.43 14.72-.08 11.38 0 22.65 0 34-.08.69.06.8.59.52Zm3.07-30.92a1.09 1.09 0 0 1 .6-1.14q8.78-5 17.55-10.13c.47-.28.57-.09.57.48v23.33a1.1 1.1 0 0 1-.63 1.18q-8.74 5-17.49 10.1c-.44.26-.61.2-.61-.42q-.01-11.74-.03-23.43Zm21.79 71.42q-12.75 7.39-25.49 14.73c-.09 11.4 0 22.68 0 34.05 0 .7.14.81.67.5q12.76-7.39 25.52-14.74v-34c-.07-.77-.21-.88-.74-.57Zm-3.7 32.09q-8.73 5-17.44 10.07c-.52.3-.66.16-.65-.5v-23.19a1.19 1.19 0 0 1 .67-1.3c2.92-1.66 5.85-3.36 8.77-5.05s5.78-3.32 8.67-5c.49-.29.62-.16.61.48v23.33a1.12 1.12 0 0 1-.67 1.13Zm71.65-116.24-3.69 2.13v-4.33c0-.47-.11-.59-.48-.37-.93.56-1.86 1.1-2.79 1.61a.88.88 0 0 0-.47.93v3.73c0 .48.12.56.47.35.92-.56 1.83-1 2.75-1.61.42-.26.53-.11.52.42v3.58a.94.94 0 0 1-.55 1c-2.32 1.32-4.58 2.64-6.91 4v4.65c0 .13.27.19.41.11.86-.46 1.72-1 2.58-1.47s.71-.4.71.57v8.27c0 .54.13.66.54.41.88-.54 1.76-1 2.63-1.54.43-.26.59-.18.58.41v3.29a1.2 1.2 0 0 1-.69 1.36c-2.27 1.23-4.51 2.66-6.78 3.86v-9.14c0-.62-.14-.73-.59-.44-.88.54-1.76 1-2.64 1.52a1 1 0 0 0-.56 1.06c0 3.06-.06 6.17 0 9.2 1.24-.75 2.43-1.37 3.66-2 0 1.63.09 3.17.07 4.87 1.08-.63 2.07-1.15 3-1.79.59-.38.72-.17.69.56V210c0 .42.09.56.44.35 1-.57 1.9-1.12 2.85-1.64a.84.84 0 0 0 .45-.86v-3.44c0-.94 0-.95.72-1.36l2.94-1.7c.17-4.89 0-9.62.07-14.46 0-.47-.15-.49-.46-.3-.92.54-1.83 1-2.75 1.59-.41.25-.54.12-.53-.42v-3.58a.91.91 0 0 1 .51-1c.86-.47 1.72-1 2.58-1.47a1.12 1.12 0 0 0 .66-1.22c.01-3.04.11-6.14.02-9.17Zm-59.88 59.54v-3.63c0-1.42 0-1.42 1.07-2l2.63-1.51v-9.93l-3.58 2.07a1 1 0 0 0-.18.24.77.77 0 0 1 .06.23v9a.74.74 0 0 1-.43.78c-1 .54-1.9 1.08-2.85 1.65-.36.21-.47.09-.47-.38v-3.66c0-.5-.1-.63-.49-.4-2.16 1.26-4.31 2.5-6.47 3.73a.91.91 0 0 0-.51 1v3.65c0 .52.12.63.5.39.91-.55 1.83-1 2.74-1.59.39-.24.51-.11.5.39v4.36c2.52-1.62 4.98-2.99 7.48-4.39Zm-.05-14.79Zm-7.4 19.09Zm64.17 7.8c.9-.47 1.79-1 2.69-1.53a.87.87 0 0 0 .47-.91v-3.8c0-.41-.11-.5-.41-.31-1 .57-1.94 1.13-2.91 1.67a.83.83 0 0 0-.42.87v3.65a1 1 0 0 1-.54 1c-.9.49-1.79 1-2.69 1.54a.9.9 0 0 0-.52.95v8.63c0 .57.16.61.55.37 1.06-.64 2.12-1.23 3.18-1.84l3.29-1.9a.78.78 0 0 0 .46-.83v-3.81c0-.49-.14-.54-.48-.33-.92.55-1.83 1-2.75 1.59-.37.23-.52.13-.51-.38v-3.51a1.05 1.05 0 0 1 .59-1.11Zm-60.45 5Zm3.75-41.56a3.39 3.39 0 0 0-.07-.49l-3.31 1.91c-.36.2-.36.5-.36.83v8.71c0 .58.17.6.55.37a16.63 16.63 0 0 1 3.13-1.65 4.57 4.57 0 0 0 .07-.61Zm-.07 9.69Zm3.78 32.54Zm-.45-4.71-7 4v4.29c0 .56.15.61.54.38 2.31-1.35 4.62-2.68 6.92-4v-4.38c.03-.48-.12-.51-.46-.31Zm-11.11-28.55c-1 .59-2 1.15-3 1.71a.72.72 0 0 0-.4.73v4c0 .44.16.45.44.28.49-.3 1-.57 1.48-.86s1-.51 1.42-.84a1.42 1.42 0 0 0 .38-.7v-4c.06-.4.01-.51-.32-.34Zm-22.46 3c-1 .53-2 1.1-3 1.7a1.31 1.31 0 0 0-.37.63v4.56c1.19-.69 2.3-1.32 3.41-2a1.1 1.1 0 0 0 .3-.61v-4c.03-.16-.2-.34-.34-.27Zm30.31 12.5Zm3.71-37.13Zm-3.71 6.5c0 .42.07.58.42.37 1-.57 1.93-1.13 2.9-1.67a.77.77 0 0 0 .42-.79v-4.41l-3.71 2.15c-.03 1.46-.02 2.9-.03 4.36Zm-7.89 5.16-2.9 1.68a.78.78 0 0 0-.42.8v3.94c0 .39.13.43.4.27 1-.58 2-1.15 2.95-1.71a.71.71 0 0 0 .39-.73v-4c.01-.35-.12-.42-.42-.24Zm-7 44Zm-3.73 2.16Zm3.73-7.12Zm-3.72 2.15v4.95l3.72-2.14v-5ZM172.5 186Zm-3.31-3.08a.79.79 0 0 0-.42.8v3.79c0 .54.17.55.52.34 1.07-.64 2.14-1.24 3.21-1.85v-5c-1.1.64-2.21 1.28-3.31 1.89Zm3.31 13Zm-3.22-3.12a.9.9 0 0 0-.51 1v3.66c0 .53.14.6.51.37 1.07-.64 2.15-1.25 3.22-1.87v-5c-1.07.62-2.15 1.25-3.22 1.84ZM217 175.21c-1 .57-1.94 1.13-2.91 1.67a.78.78 0 0 0-.42.79v3.94c0 .17.17.37.26.32 1.13-.61 2.26-1.28 3.45-2v-4.51c.03-.37-.12-.36-.38-.21Zm-44.52 85.53Zm-3.7 2.64v4.08c0 .14.18.29.28.24 1.13-.62 2.26-1.29 3.41-1.95v-5l-3.22 1.9a.7.7 0 0 0-.47.73Zm40.79-34c-.49.23-1 .55-1.48.83s-1 .58-1.48.85a.73.73 0 0 0-.41.73v4c0 .16.22.32.34.26 1-.54 2-1.12 3-1.74a1.35 1.35 0 0 0 .34-.66v-4c.03-.13-.18-.29-.31-.23Zm-37.63 11.75a1 1 0 0 0 .59-1.1v-4.19l3.71-2.17v-4.94l-3.71 2.14v5c-1.07.61-2.14 1.25-3.21 1.83a1 1 0 0 0-.52 1v4.28l-11.18 6.47v4.37c0 .5.14.53.48.33l10.72-6.2v-5c1.02-.56 2.07-1.2 3.12-1.78Zm42.37-79.34c3.53-2.06 7-4.07 10.56-6.11.11-4.77 0-9.39.06-14.13 0-.72-.17-.81-.69-.5-3.53 2.11-7 4-10.57 6.17v14.1c-.01.73.15.8.64.51Zm-68 38.5c0 .57.12.69.56.43l5.1-3c1.7-1 3.33-1.94 5-2.87a1 1 0 0 0 .6-1.1v-13.53c0-.54-.12-.65-.53-.42q-5.1 3-10.2 5.89a1 1 0 0 0-.52 1c.02 4.62.02 9.12.01 13.64ZM157 269.73c-3.53 2.07-7 4.08-10.58 6.12-.1 4.77 0 9.39-.05 14.12 0 .7.14.84.68.52 3.53-2.11 7-4 10.57-6.17v-14.09c-.03-.67-.16-.8-.62-.5Z" style="fill:#263238"/><path d="M150.35 351.47a17.23 17.23 0 0 1 .36-3 13.25 13.25 0 0 1 .92-2.77 10.94 10.94 0 0 1 1.52-2.38 8.16 8.16 0 0 1 2.16-1.8 4.15 4.15 0 0 1 2.14-.69 2.14 2.14 0 0 1 1.52.62 4.12 4.12 0 0 1 .93 1.7 10.82 10.82 0 0 1 .37 2.54v4.65a18.19 18.19 0 0 1-.34 2.84 12.53 12.53 0 0 1-.86 2.68l1.27 2.07a.54.54 0 0 1 0 .21.85.85 0 0 1-.1.47.74.74 0 0 1-.26.31l-1.6.92q-.3.15-.45 0c-.09-.1-.17-.19-.22-.26l-.54-.88a8.76 8.76 0 0 1-.9.83 7.13 7.13 0 0 1-1 .68 4.36 4.36 0 0 1-2.16.71 2.18 2.18 0 0 1-1.52-.62 3.88 3.88 0 0 1-.92-1.7 11 11 0 0 1-.36-2.53v-3.55c0-.4.03-.72.04-1.05Zm7.64-4.28a3.38 3.38 0 0 0-.78-2.45c-.48-.4-1.11-.38-1.9.07a4.88 4.88 0 0 0-1.9 2.12 8 8 0 0 0-.78 3.35V354.67a3.26 3.26 0 0 0 .78 2.43c.48.4 1.11.37 1.9-.08a4.91 4.91 0 0 0 1.9-2.11 8 8 0 0 0 .78-3.34v-2.21c0-.8.01-1.53.01-2.17ZM167.32 334.89c1.41-.81 2.47-.92 3.2-.34s1.1 1.76 1.1 3.55a11.2 11.2 0 0 1-.56 3.56 9 9 0 0 1-1.67 2.94l2.33 5.07a.6.6 0 0 1 .05.26 1 1 0 0 1-.11.46.62.62 0 0 1-.26.32l-1.43.83c-.23.13-.39.15-.5 0a1 1 0 0 1-.23-.32l-2.24-4.74-2.24 1.3v6.05a1.33 1.33 0 0 1-.14.57.81.81 0 0 1-.32.39l-1.36.79a.24.24 0 0 1-.32 0 .56.56 0 0 1-.14-.42v-16.79a1.33 1.33 0 0 1 .14-.57.89.89 0 0 1 .32-.4Zm-2.53 9.64 2.44-1.41a4.54 4.54 0 0 0 1.54-1.4 4.11 4.11 0 0 0 .57-2.31c0-1-.19-1.51-.57-1.61a2.12 2.12 0 0 0-1.54.39l-2.44 1.41ZM184.91 337.15a1.41 1.41 0 0 1 .18-.61.9.9 0 0 1 .31-.35l1.37-.79a.27.27 0 0 1 .33 0 .51.51 0 0 1 .12.43 12.73 12.73 0 0 1-.34 2.33 11.62 11.62 0 0 1-.9 2.44 11.35 11.35 0 0 1-1.54 2.29 8.79 8.79 0 0 1-2.24 1.84 4.13 4.13 0 0 1-2.06.66 2.21 2.21 0 0 1-1.52-.61 3.8 3.8 0 0 1-1-1.71 10.45 10.45 0 0 1-.41-2.64v-4.37a17.09 17.09 0 0 1 .41-3.12 13.29 13.29 0 0 1 1-2.83 10.84 10.84 0 0 1 1.52-2.36 7.9 7.9 0 0 1 2.06-1.75 4.71 4.71 0 0 1 2.24-.75 2.39 2.39 0 0 1 1.54.52 3.07 3.07 0 0 1 .9 1.41 7.57 7.57 0 0 1 .34 1.92 1.17 1.17 0 0 1-.12.58 1 1 0 0 1-.33.38l-1.37.79a.31.31 0 0 1-.32 0c-.1-.05-.16-.19-.18-.4a2.91 2.91 0 0 0-.24-.88 1.4 1.4 0 0 0-.51-.59 1.36 1.36 0 0 0-.81-.17 3 3 0 0 0-1.14.42 4.27 4.27 0 0 0-1.15 1 5.89 5.89 0 0 0-.82 1.31 6.62 6.62 0 0 0-.5 1.54 9.31 9.31 0 0 0-.21 1.65v4.36a5.91 5.91 0 0 0 .21 1.43 2.1 2.1 0 0 0 .5.94 1.22 1.22 0 0 0 .82.36 2.08 2.08 0 0 0 1.15-.36 4.63 4.63 0 0 0 1.14-.9 6.34 6.34 0 0 0 .82-1.11 6.43 6.43 0 0 0 .52-1.18 5.71 5.71 0 0 0 .23-1.12ZM188.79 329.27a18.43 18.43 0 0 1 .36-2.95 13.35 13.35 0 0 1 .92-2.76 10.94 10.94 0 0 1 1.52-2.38 8 8 0 0 1 2.16-1.81 4.34 4.34 0 0 1 2.14-.69 2.09 2.09 0 0 1 1.52.63 3.85 3.85 0 0 1 .93 1.7 10.25 10.25 0 0 1 .37 2.54v4.65a16.29 16.29 0 0 1-.36 2.94 13.25 13.25 0 0 1-.92 2.77 10.68 10.68 0 0 1-1.53 2.37 8.05 8.05 0 0 1-2.15 1.79 4.33 4.33 0 0 1-2.16.7 2.14 2.14 0 0 1-1.52-.62 3.77 3.77 0 0 1-.92-1.7 11.49 11.49 0 0 1-.36-2.53v-3.54c0-.4-.01-.77 0-1.11Zm7.64-4.28a3.3 3.3 0 0 0-.78-2.44c-.48-.41-1.11-.39-1.9.07a4.83 4.83 0 0 0-1.9 2.12 8.14 8.14 0 0 0-.78 3.35V332.48a3.3 3.3 0 0 0 .78 2.43c.48.4 1.11.37 1.9-.09a4.83 4.83 0 0 0 1.9-2.1 7.94 7.94 0 0 0 .78-3.34v-2.21c0-.8.02-1.53 0-2.17ZM205.56 312.81a4.78 4.78 0 0 1 2.17-.74 2 2 0 0 1 1.53.56 3.58 3.58 0 0 1 .94 1.71 11.43 11.43 0 0 1 .4 2.73q.08 1.89 0 3.84a18 18 0 0 1-.4 3.19 12.61 12.61 0 0 1-.93 2.8 10.18 10.18 0 0 1-1.51 2.32 8.5 8.5 0 0 1-2.12 1.73l-4.25 2.45a.25.25 0 0 1-.32 0 .57.57 0 0 1-.13-.42v-16.8a1.31 1.31 0 0 1 .13-.57.86.86 0 0 1 .32-.39Zm2.76 5.58a5.91 5.91 0 0 0-.21-1.43 2.07 2.07 0 0 0-.52-.94 1.21 1.21 0 0 0-.87-.33 2.63 2.63 0 0 0-1.25.42l-2.26 1.3v11.69l2.35-1.35a4.81 4.81 0 0 0 1.2-1 6.36 6.36 0 0 0 .84-1.31 7.32 7.32 0 0 0 .51-1.54 9.41 9.41 0 0 0 .21-1.68q.08-1.95 0-3.83ZM220.67 319a.24.24 0 0 1 .32 0 .53.53 0 0 1 .14.41v1.84a1.37 1.37 0 0 1-.14.58.81.81 0 0 1-.32.39l-7.4 4.27a.24.24 0 0 1-.32 0 .56.56 0 0 1-.14-.42v-16.74a1.33 1.33 0 0 1 .14-.57.89.89 0 0 1 .32-.4l7.27-4.19a.24.24 0 0 1 .32 0 .57.57 0 0 1 .13.42v1.84a1.31 1.31 0 0 1-.13.57.86.86 0 0 1-.32.39l-5.45 3.15v4.13l5.08-2.93a.24.24 0 0 1 .32 0 .57.57 0 0 1 .13.42V314a1.31 1.31 0 0 1-.13.57.86.86 0 0 1-.32.39l-5.08 2.93v4.32Z" style="fill:#fafafa"/><path d="m191.36 472.62-38.62-22.3a5.71 5.71 0 0 1-2.59-4.49v-5.25a5.73 5.73 0 0 1 2.59-4.49L196.23 411a5.72 5.72 0 0 1 5.19 0L240 433.28a5.73 5.73 0 0 1 2.59 4.49V443a5.71 5.71 0 0 1-2.59 4.49l-43.49 25.11a5.72 5.72 0 0 1-5.15.02Z" style="fill:#37474f"/><path d="m196.23 411-43.49 25.11c-1.43.82-1.43 2.17 0 3l38.62 22.3a5.72 5.72 0 0 0 5.19 0L240 436.27c1.43-.82 1.43-2.17 0-3L201.42 411a5.72 5.72 0 0 0-5.19 0Z" style="fill:#455a64"/><path d="M194 462v11.23a5.31 5.31 0 0 1-2.59-.62l-38.62-22.3a5.72 5.72 0 0 1-2.59-4.48v-5.26a5.77 5.77 0 0 1 2.12-4.16c-.94.82-.78 1.93.47 2.66l38.62 22.3a5.2 5.2 0 0 0 2.59.63Z" style="fill:#263238"/><path d="M190.32 438c.35-1.42 2.79-2.83 5.25-3l2.29-.19c1.28-.11 2.45-.78 2.63-1.52s-.7-1.24-2-1.13l-2.29.19a16.67 16.67 0 0 0-6.89 2.09c-2 1.14-3.27 2.55-3.62 4l-2.1 8.56c-.73 2.93 2.81 5 7.88 4.55l2.29-.19a16.72 16.72 0 0 0 6.89-2.09c2-1.15 3.26-2.56 3.61-4l1-4.08c.18-.73-.7-1.24-2-1.13s-2.45.78-2.63 1.51l-1 4.08c-.35 1.41-2.79 2.82-5.25 3l-2.3.19c-2.53.21-4.3-.82-3.94-2.28l2.14-8.62Zm16.74-4 2.13-8.62a3.09 3.09 0 0 0-1.76-3.53 10.78 10.78 0 0 0-6.12-1L199 421a16.67 16.67 0 0 0-6.88 2.09c-2 1.14-3.27 2.56-3.62 4l-.92 3.73c-.18.73.7 1.24 2 1.13s2.45-.78 2.63-1.51l.92-3.73a3.51 3.51 0 0 1 1.81-2 8.25 8.25 0 0 1 3.44-1.05l2.3-.19a5.36 5.36 0 0 1 3.05.51 1.54 1.54 0 0 1 .88 1.77l-2.13 8.62c-.35 1.42-2.8 2.83-5.25 3-1.27.11-2.44.78-2.63 1.52s.7 1.24 2 1.13a16.77 16.77 0 0 0 6.88-2.08c2-1.15 3.27-2.56 3.63-4Zm0 0" style="fill:#fff"/><path d="M228.26 400.65v-5.25a5.71 5.71 0 0 1 2.59-4.49L297 352.69a5.72 5.72 0 0 1 5.19 0L340.82 375a5.71 5.71 0 0 1 2.6 4.49v5.25a5.71 5.71 0 0 1-2.6 4.49l-66.16 38.22a5.72 5.72 0 0 1-5.19 0l-38.62-22.3a5.73 5.73 0 0 1-2.59-4.5Z" style="fill:#e0e0e0"/><path d="M343.41 379.48v5.25a5.71 5.71 0 0 1-2.59 4.49l-66.16 38.22a5.2 5.2 0 0 1-2.59.62v-11.24a5.31 5.31 0 0 0 2.59-.62l66.16-38.2c1.25-.72 1.41-1.84.47-2.66a5.77 5.77 0 0 1 2.12 4.14ZM242.89 412.09l-10 1.94v11.27a1.31 1.31 0 0 0 1.64 1.24l23-6v-11.27Z" style="fill:#f0f0f0"/><path d="M272.07 416.35a4.79 4.79 0 0 1-2.36-.55l-12.18-7-23.18 6.09h-.23a.85.85 0 0 1-.65-1.37l10.09-12.82-12.47-7.2a1.13 1.13 0 0 1 0-2.19l66.16-38.22a5.25 5.25 0 0 1 4.72 0l38.62 22.3a1.13 1.13 0 0 1 0 2.19l-66.16 38.22a4.79 4.79 0 0 1-2.36.55Z" style="fill:#fafafa"/><path d="M299.61 353a4.5 4.5 0 0 1 2.13.49l38.62 22.3c.37.22.61.48.61.69s-.24.48-.61.7l-66.16 38.21a4.79 4.79 0 0 1-4.26 0l-12-6.93-.33-.19-.37.1-23 6h-.11a.37.37 0 0 1-.33-.22.35.35 0 0 1 .05-.39l9.75-12.4.67-.84-.93-.54-12-6.93c-.38-.22-.61-.49-.61-.7s.23-.47.61-.69l66.16-38.22a4.44 4.44 0 0 1 2.13-.49m0-.93a5.26 5.26 0 0 0-2.6.62l-66.16 38.22c-1.43.82-1.43 2.16 0 3l12 6.93-9.75 12.4a1.31 1.31 0 0 0 1 2.12 1.45 1.45 0 0 0 .35 0l23-6 12 6.93a5.37 5.37 0 0 0 2.6.62 5.31 5.31 0 0 0 2.59-.62L340.82 378c1.44-.83 1.44-2.17 0-3l-38.62-22.3a5.2 5.2 0 0 0-2.59-.62Z" style="fill:#e0e0e0"/><path d="M273.53 401.06a2.27 2.27 0 0 1-1.09-.35L255 390.63q-.9-.51.72-1.44l1.11-.64q1.6-.93 2.49-.42l14.94 8.63 4.13-2.38a1.48 1.48 0 0 1 1-.18 3.64 3.64 0 0 1 1.25.5l.86.49a2.21 2.21 0 0 1 .86.72c.09.2 0 .39-.31.56l-7.43 4.29a2.07 2.07 0 0 1-1.09.3ZM268 385l-1.66-1c-.59-.34-.27-.87 1-1.58s2.23-1 2.83-.61l1.66 1c.59.34.27.87-1 1.59s-2.21.95-2.83.6Zm15.88 9.4-12.8-7.4q-.88-.51.78-1.47l.77-.45q1.67-1 2.55-.45L288 392q.89.51-.78 1.47l-.77.45c-1.09.68-1.94.83-2.54.49ZM290.87 390.39l-8.84-5.1a27.79 27.79 0 0 0-2.94-1.54c-.65-.27-1-.44-1.16-.51-.34-.2-.19-.56.43-1.1a11.55 11.55 0 0 1 1.78-1.3 1.47 1.47 0 0 1 1-.23 4.81 4.81 0 0 1 1 .32c.37.16.66.29.88.37a2.54 2.54 0 0 1 0-1.76 3.17 3.17 0 0 1 1.5-1.55 5.76 5.76 0 0 1 3.3-.77 8.3 8.3 0 0 1 3.66 1.2l10 5.79c.59.35.35.82-.72 1.44l-.94.55c-1.07.62-1.9.76-2.5.41l-9.09-5.25a3.5 3.5 0 0 0-1.29-.48 1.82 1.82 0 0 0-1.15.26 1 1 0 0 0-.5 1.31L295 388c.3.17.39.37.28.61a2.4 2.4 0 0 1-1 .81l-1 .56c-.99.62-1.82.75-2.41.41ZM315.68 376.58c.3.17 0 .53-1 1.09l-1.55.89a2.48 2.48 0 0 1-.84.36 1.88 1.88 0 0 1-.77 0l-8.81-2.24-.31.18 6 3.46q.89.51-.72 1.44l-.89.51q-1.61.93-2.49.42l-19.18-11.08q-.9-.51.72-1.44l.88-.51c1.08-.62 1.91-.76 2.5-.42l11.53 6.66.14-.08-3.19-4.56c-.13-.2-.16-.36-.1-.46a2.4 2.4 0 0 1 .66-.47l1.44-.83c1-.58 1.65-.78 2-.59a1.35 1.35 0 0 1 .38.44l3.3 4.92 9.62 2.13a2.82 2.82 0 0 1 .68.18Z" style="fill:#32ad79"/><path d="M52.33 111.74c1.57-2.42 3.48-3.75 5.18-3.88l8.59-29.74a3.85 3.85 0 0 1-1.37-1.38c-1.91-3.08-1.22-9 1.53-13.24s6.53-5.16 8.43-2.07 1.22 9-1.53 13.24c-1.57 2.42-3.48 3.75-5.18 3.88l-8.59 29.74a3.93 3.93 0 0 1 1.37 1.38 6.89 6.89 0 0 1 .84 2.19l19.07-12.77A16.56 16.56 0 0 1 83.26 91c2.74-4.21 6.53-5.14 8.43-2s1.22 9-1.53 13.24-6.53 5.16-8.43 2.07a6.66 6.66 0 0 1-.84-2.19l-19.07 12.72a16.67 16.67 0 0 1-2.59 8.07c-2.75 4.23-6.53 5.16-8.44 2.07s-1.21-8.98 1.54-13.24Z" style="fill:#e0e0e0"/><path d="m62.17 467 8.68-5S76 440.54 74 421.22c-2.89-27.16-20.77-37.38-27.57-35s-8.76 10.25 2.48 26.42C55.5 422.15 63.65 442 62.17 467Z" style="fill:#32ad79"/><g style="opacity:.65"><path d="m62.17 467 8.68-5S76 440.54 74 421.22c-2.89-27.16-20.77-37.38-27.57-35s-8.76 10.25 2.48 26.42C55.5 422.15 63.65 442 62.17 467Z" style="fill:#fff"/></g><path d="M65.76 456.48h-.08a.61.61 0 0 1-.48-.71c4.76-25.05-4-53.2-14.83-64.91a.61.61 0 0 1 .89-.82c11 11.93 19.95 40.54 15.12 66a.6.6 0 0 1-.62.44Z" style="fill:#fff"/><path d="M40.32 479.64c-1.3.66-4.75-2.29-5.71-3a12.1 12.1 0 0 1-3.77-4.79 11.31 11.31 0 0 1-.66-6.82 27.39 27.39 0 0 1 1-3.56L32.4 458a8.83 8.83 0 0 0 .69-3.49c-.19-2.41-2.22-4.19-4.08-5.73-2.05-1.71-4.17-3.93-4-6.8a10.15 10.15 0 0 1 2.84-5.9c1.46-1.67 3.17-3.13 4.51-4.9a7.06 7.06 0 0 0 1.67-4.4 7.28 7.28 0 0 0-.83-2.84c-.92-1.93-2.17-3.71-2.77-5.76s-.38-4.55 1.27-5.91c1.35-1.11 3.27-1.18 5-1a11.46 11.46 0 0 1 4.52 1.85c4.44 2.77 6.78 8.32 11.52 10.51a47.8 47.8 0 0 0 5.8 1.73c1.92.62 3.86 1.71 4.67 3.56 1.6 3.64-1.92 7.86-.86 11.69.93 3.4 4.11 4.84 5.78 7.94a7.17 7.17 0 0 1 .64 4.41 21 21 0 0 1-2.22 7.29 65.32 65.32 0 0 1-4.38 6.75s-21.65 12.54-21.85 12.64Z" style="fill:#32ad79"/><g style="opacity:.30000000000000004"><path d="M40.32 479.64c-1.3.66-4.75-2.29-5.71-3a12.1 12.1 0 0 1-3.77-4.79 11.31 11.31 0 0 1-.66-6.82 27.39 27.39 0 0 1 1-3.56L32.4 458a8.83 8.83 0 0 0 .69-3.49c-.19-2.41-2.22-4.19-4.08-5.73-2.05-1.71-4.17-3.93-4-6.8a10.15 10.15 0 0 1 2.84-5.9c1.46-1.67 3.17-3.13 4.51-4.9a7.06 7.06 0 0 0 1.67-4.4 7.28 7.28 0 0 0-.83-2.84c-.92-1.93-2.17-3.71-2.77-5.76s-.38-4.55 1.27-5.91c1.35-1.11 3.27-1.18 5-1a11.46 11.46 0 0 1 4.52 1.85c4.44 2.77 6.78 8.32 11.52 10.51a47.8 47.8 0 0 0 5.8 1.73c1.92.62 3.86 1.71 4.67 3.56 1.6 3.64-1.92 7.86-.86 11.69.93 3.4 4.11 4.84 5.78 7.94a7.17 7.17 0 0 1 .64 4.41 21 21 0 0 1-2.22 7.29 65.32 65.32 0 0 1-4.38 6.75s-21.65 12.54-21.85 12.64Z" style="fill:#fff"/></g><path d="M52.88 473.09a.59.59 0 0 1-.53-.62c2.08-22.53-7.3-48-14.67-55.63a.57.57 0 1 1 .82-.79c7.52 7.78 17.1 33.67 15 56.52a.57.57 0 0 1-.62.52Z" style="fill:#fff"/><path d="M50.64 445.31h-.16a75.64 75.64 0 0 0-16.25-3.46.57.57 0 0 1-.52-.62.55.55 0 0 1 .62-.52 77.77 77.77 0 0 1 16.54 3.53.58.58 0 0 1 .34.73.58.58 0 0 1-.57.34Z" style="fill:#fff"/><path d="M361.44 419.55c.09 4.94.48 12.13 0 14.18s-8.72 4-15.16 4.34-14.19-.7-14.65 3.82 3.56 7.6 6.52 9c5 2.32 10.63 1.82 15.56 1.09s7.55-.19 12.76 1.08 8.14.49 10.36-.63c3.3-1.65 2.42-7.28 1.26-10.95s-1-7-.6-12.11 1.88-12.51 1.88-12.51Z" style="fill:#ffbda7"/><path d="M378.09 441.45s0 1.56-3.38 2.27-9 .52-12.9.78c-5.88.38-10.35 1.05-17.09 0-5.92-.93-5.67-5.62-.37-6.37-6 .1-12.3-.31-12.72 3.76-.47 4.57 3.56 7.6 6.52 9 5 2.32 10.63 1.82 15.56 1.09s7.55-.19 12.76 1.08 8.14.49 10.36-.63c3.3-1.68 2.42-7.31 1.26-10.98Z" style="fill:#455a64"/><path d="M422.61 407.29c2.76 4 7.33 11.58 8 13.47s1.2 8.94 0 11c-1.73 1.26-4.44 2-6.76 3.13-3.34 1.65-4.06 4.39-1.87 6.48 3 2.93 8 3.27 10.93 3.1 4.32-.66 4.62-5.5 5.24-9.78s-.15-12.69 3.13-17.86 9-5.66 9.75-3.94c-.35-2.6-1.79-2.68-4.9-4.44s-5.83-1.71-7.55-5.8c-2-4.83-3.9-10.61-3.9-10.61Z" style="fill:#ffbda7"/><path d="M428.69 444.58c3.1.52 5.28.51 10.79-2.19 4.75-2.33 6-3.31 6.68-4.61 1.15-2-.09-7.09.91-11.45a45.58 45.58 0 0 1 3.14-8.89c1.07-2.64 1-3.78.82-4.55-.37-1.65-3.73-1.86-6.93 0s-5.27 5.4-6.32 13.83.57 17.65-9.09 17.86Z" style="fill:#263238"/><path d="M451 412.89c-.35-2.6-1.25-3-4.37-4.75-1.15-.65-2.29-1.12-3.35-1.67-3-.57-7.77 1.8-8 8.13s.84 14.35-1.06 17.33c-1.62 2.53-4.29 2.36-3.67-.15-4.28 1.57-5.75 1.59-8.16 2.91-2.78 1.52-3.72 5.5-1.15 7.1a16.51 16.51 0 0 0 11.61 2.7c4.32-.66 4.62-5.5 5.24-9.78s-.09-12.71 3.19-17.88 9-5.66 9.72-3.94ZM423.43 409.8s-15.69-23.05-24.08-38c-6.2-11-6.76-13.18-8.28-20.4-3.27-15.52-4-19.16-4-19.16l-4.87 31.35c.78 3.4 2.35 10.14 2.41 14.1a153.33 153.33 0 0 1-1.88 23.11 242.2 242.2 0 0 1-4.77 25.61c-1.22.85-4.76 1-7.84.91a36 36 0 0 1-8.8-1.64s-2.56-36.94-3.16-47.11c-.71-12.19-1-17-1.34-23.68-.61-10.66-2.06-26.11-1.65-45.7.83-39 9.51-56.77 9.51-56.77l44-6.11c3.65 13.13 11.24 14.66 12 32.58.19 4.07-2 12.15-2 18.46-.23 20.48-2.06 52.65-2.06 52.65 4.83 4.46 8.37 8.48 11.7 18.82 2 6.27 6.53 22.15 8.42 28.6-5.59.01-13.38 9.87-13.31 12.38Z" style="fill:#455a64"/><path d="m379 274.9 1.16-.18c1 7.06 2.71 15.07 3.64 15.71 1.62 1.1 7.6 2 8.95 1.66s2.53-1.43 4.92-4.68c1.68-2.28 1.5-3.7 1.1-6.81-.14-1.16-.31-2.48-.42-4.14l1.18-.08c.1 1.62.27 2.92.41 4.07.4 3.13.64 5-1.33 7.69-2.58 3.51-3.89 4.71-5.59 5.12a4.41 4.41 0 0 1-.75.1c-2.37.1-7.52-.84-9.12-1.93-1.85-1.22-3.68-12.96-4.15-16.53ZM360.94 273.86l1.13.33c-3.33 12-2.6 22.93 3.36 26.26 1.09-8.08 2.62-16.43 4.73-25.37l1.14.28c-6.78 28.78-7.6 51.45-6.73 78.7.67 20.76 2 56.44 2.6 73l-1.19-.2c-.62-16.66-1.92-52.1-2.58-72.76-.6-18.44-.4-34.81 1.87-52.38-6.83-3.47-7.91-15.02-4.33-27.86ZM420.18 284.6a6.53 6.53 0 0 1-2.59 1.52c-1.86.09-4.93-2.56-5.81-4.55A13.44 13.44 0 0 1 411 278a31.88 31.88 0 0 0-1-5.35l1.13-.34a34.6 34.6 0 0 1 1 5.54 12.85 12.85 0 0 0 .65 3.28c.74 1.68 3.43 3.89 4.67 3.84a9.5 9.5 0 0 0 2.93-2.33c0 .54-.11 1.36-.2 1.96ZM427.12 403.6c.28-.32.55-.63.84-.93-7.51-13.1-23.64-41.76-25.08-48.71-1.85-8.91-5-38.76-5.15-54.82h-1.18c.13 16.12 3.32 46.11 5.18 55.06 1.5 7.29 17.93 36.4 25.39 49.4ZM404.11 270.22c3 4.75 4.8 13.08.94 22.21L404 292c3.67-8.71 2-16.6-.85-21.09Z" style="fill:#37474f"/><path d="m387 332.25 4.78-32.87s12.37-1.73 14.08-13.33c.3 6.88-2.45 12.8-10.13 16l-6.14 30.34 1.44 19ZM305.93 183.34v-33.91a1.59 1.59 0 0 0-.73-1.64 1.56 1.56 0 0 0-1.79.18l-14.82 8.56a2.33 2.33 0 0 0-1 1.82v33.91a1.54 1.54 0 0 0 2.52 1.46l14.83-8.56a2 2 0 0 0 .99-1.82Z" style="fill:#37474f"/><path d="m305 183.68-15.24 8.8v-34.06l-1.91-1.1a2.07 2.07 0 0 0-.3 1v33.91a1.64 1.64 0 0 0 .74 1.64 1.61 1.61 0 0 0 1.78-.18l14.83-8.56a2 2 0 0 0 .9-1h-.06Z" style="fill:#263238"/><path d="M304.86 149.12 290 157.7a1.67 1.67 0 0 0-.74 1.28v33.62c0 .72.51 1 1.14.65l14.47-8.35a1.86 1.86 0 0 0 .83-1.45V149.6c-.01-.53-.38-.74-.84-.48Z" style="fill:#455a64"/><path d="M305 151.3v31.3a1.74 1.74 0 0 1-.8 1.37l-13.4 7.74c-.44.26-.79 0-.79-.45v-31.55a1.75 1.75 0 0 1 .56-1.19l.07-.07.16-.11 3.77-2.17.25-.15c.13-.07.24 0 .24.15s.12.21.27.13l4.39-2.54a.57.57 0 0 0 .26-.43.55.55 0 0 1 .22-.41l3.69-2.13h.07c.56-.38 1.04-.12 1.04.51Z" style="fill:#263238"/><path d="M303.89 150.77v31.09a1.75 1.75 0 0 1-.8 1.37L290 190.8v-31.09a1.75 1.75 0 0 1 .56-1.19l.07-.07.16-.11 3.77-2.17.25-.15c.13-.07.24 0 .24.15s.12.21.27.13l4.39-2.54a.57.57 0 0 0 .26-.43.55.55 0 0 1 .22-.41Z" style="fill:#fff"/><path d="m296 155 2-1.16c.12-.07.21 0 .21.11a.46.46 0 0 1-.21.36l-2 1.16c-.12.07-.21 0-.21-.11a.46.46 0 0 1 .21-.36ZM299 153.1c.14-.07.25 0 .25.14a.54.54 0 0 1-.25.43c-.13.08-.24 0-.24-.14a.56.56 0 0 1 .24-.43Z" style="fill:#263238"/><path d="M288.91 162.66a.87.87 0 0 0-.38-.7.27.27 0 0 0-.27 0l-.29.17a.3.3 0 0 0-.12.27v2.93a.87.87 0 0 0 .39.7.26.26 0 0 0 .25 0l.3-.17a.3.3 0 0 0 .12-.28Z" style="fill:#455a64"/><path d="M288.62 162.82v2.93c0 .26-.17.37-.38.25a.87.87 0 0 1-.39-.7v-2.93c0-.26.17-.37.39-.25a.89.89 0 0 1 .38.7Z" style="fill:#37474f"/><path d="M288.91 167.78a.91.91 0 0 0-.38-.71.29.29 0 0 0-.27 0l-.29.17a.3.3 0 0 0-.12.27v2.93a.87.87 0 0 0 .39.7.26.26 0 0 0 .25 0l.3-.17a.3.3 0 0 0 .12-.28Z" style="fill:#455a64"/><path d="M288.62 167.94v2.93c0 .26-.17.37-.38.25a.87.87 0 0 1-.39-.7v-2.93c0-.26.17-.37.39-.25a.89.89 0 0 1 .38.7Z" style="fill:#37474f"/><path d="M412.37 193.22c8 1.9 12.34 4.12 15.64 15 3.12 10.3 8.34 27.69 9.71 35.07.67 3.59 1 7-4 9.13-11.3 4.78-22.19 8.13-22.19 8.13l-4.41-13.34 12.08-6-3-9.72Z" style="fill:#ffbda7"/><path d="M419.18 241.19a11.47 11.47 0 0 0 5 5.44c-2.94.36-5.81-2.72-6.56-4.65Z" style="fill:#f0997a"/><path d="M373.48 153.37c-1.4-1.87-1.2-4.67-.2-6.77s2.94-4.27 8.3-6.58c6.38-2.75 23.77-4.57 30.44 7.07 1 1.74-17.19 32.52-16.83 39.06-4-4.84-17.09-21.8-17.09-21.8-3.27-1.67-5.22-3-5.71-6.27a7.83 7.83 0 0 1 1.09-4.71Z" style="fill:#263238"/><path d="M375.38 162.39s-5.08 7.12-4.62 7.76a22.87 22.87 0 0 0 3.22 2.47Z" style="fill:#f0997a"/><path d="M382 149.23c-3.16 1.23-6 3.38-7.4 10-.38 1.73.82 4.23 0 6.52-3.37 9.79-.81 18.34 1 20.31 1.23 1.33 8 2.37 11.71 1.63 4.59-.94 14.68-4.66 19.84-11.36 6.08-7.89 8.15-18.93 2.36-23.83-8.1-6.88-24.13-4.58-27.51-3.27Z" style="fill:#ffbda7"/><path d="m403.86 181.78.58 9.95c5.52 3.23-5.91 7.44-18 2.25l-.88-9Z" style="fill:#ffbda7"/><path d="M385.94 189.1c.22 2.3.45 5.74-3.12 6.69-3.35.9-8.77 1.45-14.06 3.43 0 0 19.05 3 29 1.36s11.73-8.08 11.73-8.08c-3.6-.48-5.1-1.08-5.24-3.4Z" style="fill:#ffbda7"/><path d="M376 186.36c1.53 1 5 1.9 9.83 1.57l-.22-2.49a25.58 25.58 0 0 1-4.65 1 16.84 16.84 0 0 1-4.96-.08Z" style="fill:#f0997a"/><path d="M377.23 152.49c-.47 4.33 2.16 5.9 4 6.89a9.39 9.39 0 0 0-1.17 5.07c.28 2.23 1 4.1 3.11 5 1.29.54 1.73 0 2.27-1 .78-1.44 1.79-3.66 4.95-3 3.63.77 4.21 6.35 1.81 9.81a5.38 5.38 0 0 1-4.32 2.49 3.35 3.35 0 0 1-2.41-1.35s-.1 4.83 5.89 8.12c0 0 6 4 12.54 2.53a120.11 120.11 0 0 0 8.86-9.46c7.46-9.28 9-26.92-2.27-30.94-.54-.19-9.81-2.54-15-1.79-15.77 2.22-18.18 6.88-18.26 7.63Z" style="fill:#263238"/><path d="M412 147.09c1.78 0 7.16 2.75 7.15 14.71 0 8.07-2 18.88-4.58 23.94-6.92 7.63-27 9.09-35.82 5.89 5.74-2.63 6.77-9.76 6.74-15.28 2.62 4 7.42 4.91 13.22 2S412 147.09 412 147.09Z" style="fill:#263238"/><path d="M420.13 203.12c-1.66-8.08-6-9.83-8-10.18-3.11-.55-5-.87-5-.87.06 1 .69 3.23-8.24 4.35-5.75.72-15.65-.75-15.65-.75l-8.85 1.2c-3.27 2-11.29 9.74-15.07 18.67-3 7.06-1.87 14.25 3.46 19.5.41 4.43-.31 13.21-.31 13.21-3.07 16-4.78 22.75-4.78 22.75s4.19 6.55 31.32 5.94c21-.47 30.7-9.86 30.7-9.86-.61-3.14-2.8-9.86-6.77-20.31.5-10.22 10.78-26.19 7.19-43.65Z" style="fill:#32ad79"/><path d="M329.28 208.12S309 195.67 307.78 194c-1.07-1.43-1-3.21-1.24-4.89a20.19 20.19 0 0 0-1.72-5.55c-.53-1.16-1.26-2.25-1.72-3.43s-.38-2.29-.78-3.39-1.52-.75-2.22 0a5.36 5.36 0 0 0-1.1 3.86c0 .61.06 1.22.1 1.83a8.16 8.16 0 0 1 .12 1.7 1.38 1.38 0 0 1-.32.81c-.46.41-1.32-.23-1.7-.54a24.23 24.23 0 0 1-6.08-7.49c-.64-1.24-1-2.53-1.77-3.73a12.55 12.55 0 0 0-2.43-3 4.58 4.58 0 0 0-2.28-1.19c-1.38.08-.62 2.47-.51 3.23a4.65 4.65 0 0 1-.17 2.56 3.92 3.92 0 0 0 0 3c.3 1 .89 2.2.7 3.26a8.92 8.92 0 0 1-.35 1.11 5.69 5.69 0 0 0 .36 3.45 4.56 4.56 0 0 1 .26 3.21c-.5 2.49 1.46 5 3 6.8a33.9 33.9 0 0 0 6 5.23c1.16.83 2.26 1.74 3.44 2.54s2.19 1.32 3.2 2.11c2.38 1.89 11.46 10.71 22 19.25 3.49 2.82 4.56 3.8 11.32 2.58 12.16-2.19 14.9-2.8 22.17-4.15 11.09-2.06 12.46-2.4 12.46-2.4 6.91-3 7.88-11.29 8.06-15.43a14.24 14.24 0 0 0-2.17-8.46c-6.33.29-11.79 1.77-21.92 4.73a1288.63 1288.63 0 0 1-23.21 6.51Z" style="fill:#ffbda7"/><path d="m392.1 130.73-3.84-7.22 3.09-8.92v-5.46l-9.46 5.46v5.46l4.07 7a.61.61 0 0 0 .27.24Z" style="fill:#32ad79"/><path d="m392.1 130.73-3.84-7.22 3.09-8.92v-5.46l-9.46 5.46v5.46l4.07 7a.61.61 0 0 0 .27.24Z" style="opacity:.2"/><path d="M412.41 61.4a6.25 6.25 0 0 0-2.84-4.91l-2.31-1.34a6.29 6.29 0 0 0-5.67 0L369 74.06a6.27 6.27 0 0 0-2.86 4.94v44.58a6.25 6.25 0 0 0 2.84 4.91l2.31 1.33a6.23 6.23 0 0 0 5.67 0l10.87-6.3 4.06 7a.6.6 0 0 0 1.09-.1l4.29-12.42 12.3-7.14a6.28 6.28 0 0 0 2.84-4.91Z" style="fill:#32ad79"/><path d="M366.14 123.55a6.25 6.25 0 0 0 2.84 4.91l2.31 1.33a6.31 6.31 0 0 0 5.18.23c-1.33.51-2.35-.25-2.35-1.86V83.58a5.8 5.8 0 0 1 .83-2.79l-8-4.61a5.83 5.83 0 0 0-.83 2.79Z" style="opacity:.2"/><path d="M412.32 60.59c-.34-1.2-1.43-1.59-2.74-.83L377 78.67a5.61 5.61 0 0 0-2 2.12l-8-4.6a5.77 5.77 0 0 1 2-2.12l32.61-18.92a6.35 6.35 0 0 1 5.67 0l2.32 1.34a6.3 6.3 0 0 1 2.72 4.1Z" style="fill:#fff;opacity:.30000000000000004"/><path d="M401.84 75.19c-2.6-1.5-5.91-1.25-9.31.71C385 80.27 378.8 92 378.8 102.08c0 5.4 1.79 9.53 4.91 11.33a7.38 7.38 0 0 0 3.7 1 11.42 11.42 0 0 0 5.59-1.71c7.57-4.37 13.72-16.12 13.72-26.18.02-5.4-1.72-9.52-4.88-11.33Zm-22 26a33.44 33.44 0 0 1 4.39-14.84 7.15 7.15 0 0 0 1.92.6 35.66 35.66 0 0 0-2.39 12Zm13.45-6.63 7.53-4.35a35.25 35.25 0 0 1-2.41 11.3 10.54 10.54 0 0 0-5.12 1.28Zm0-1.14v-8.17a22.44 22.44 0 0 0 5.41-4.74 16.56 16.56 0 0 1 2.14 8.58Zm0-9.36v-7.19a7.2 7.2 0 0 1 4.83 2.81 22.29 22.29 0 0 1-4.85 4.4Zm-1 .6a10.19 10.19 0 0 1-4.74 1.4 38.22 38.22 0 0 1 4.74-8.35Zm-5.13 2.39h.26a10.92 10.92 0 0 0 4.87-1.31V94l-7.54 4.36a35.25 35.25 0 0 1 2.4-11.29Zm5.13 8.08v8.19a22.56 22.56 0 0 0-5.42 4.75 16.47 16.47 0 0 1-2.14-8.58Zm0 9.36v7.22a7.2 7.2 0 0 1-4.84-2.81 22.41 22.41 0 0 1 4.83-4.39Zm1-.6a10.27 10.27 0 0 1 4.73-1.4 38.36 38.36 0 0 1-4.73 8.35Zm8.53-14.26 3.93-2.26a33.63 33.63 0 0 1-4.4 14.84 7.15 7.15 0 0 0-1.92-.6 35.91 35.91 0 0 0 2.37-11.96Zm3.95-3.41-4 2.29a17 17 0 0 0-2.45-8.83 32 32 0 0 0 2.35-3.41c2.55 1.73 4.02 5.29 4.08 9.97Zm-4.91-10.45a32.2 32.2 0 0 1-2.11 3.09 8.25 8.25 0 0 0-4.37-2.81 9.5 9.5 0 0 1 3.77-.86 6.46 6.46 0 0 1 2.69.6Zm-10.37 2.77a39.67 39.67 0 0 0-4 7.46 5.89 5.89 0 0 1-1.81-.52 28.07 28.07 0 0 1 5.79-6.92Zm-10.67 23.8 3.95-2.29a16.86 16.86 0 0 0 2.45 8.83 32 32 0 0 0-2.35 3.41c-2.55-1.68-4.01-5.29-4.07-9.93Zm4.91 10.44a32 32 0 0 1 2.1-3.08 8.12 8.12 0 0 0 4.35 2.8 7.76 7.76 0 0 1-6.47.3Zm10.33-2.78a38.93 38.93 0 0 0 4-7.47 6.18 6.18 0 0 1 1.81.52 27.55 27.55 0 0 1-5.81 6.95Z" style="fill:#fff"/></svg>